<svg width="31" height="27" viewBox="0 0 31 27" fill="none" xmlns="http://www.w3.org/2000/svg">
<path d="M1.52173 11.9698C0.681295 11.9698 -1.06805e-05 12.6511 -1.06096e-05 13.4916C-1.05388e-05 14.332 0.681295 15.0133 1.52173 15.0133L1.52173 13.4916L1.52173 11.9698ZM29.5978 14.5676C30.192 13.9733 30.192 13.0098 29.5978 12.4155L19.9135 2.73125C19.3192 2.13698 18.3557 2.13698 17.7614 2.73126C17.1671 3.32553 17.1671 4.28904 17.7614 4.88332L26.3697 13.4916L17.7614 22.0998C17.1671 22.6941 17.1671 23.6576 17.7614 24.2519C18.3557 24.8462 19.3192 24.8462 19.9135 24.2519L29.5978 14.5676ZM1.52173 13.4916L1.52173 15.0133L28.5217 15.0133L28.5217 13.4916L28.5217 11.9698L1.52173 11.9698L1.52173 13.4916Z" fill="#FFF3E8"/>
</svg>
