<svg width="2070" height="1580" viewBox="0 0 2070 1580" fill="none" xmlns="http://www.w3.org/2000/svg">
<g clip-path="url(#clip0_2001_1330)">
<path d="M1278.98 888.788C1278.37 887.548 1276.87 887.034 1275.63 887.641C1273.28 888.789 1271.07 889.825 1268.99 890.74C1267.73 891.298 1267.16 892.774 1267.71 894.037C1268.27 895.3 1269.75 895.872 1271.01 895.315C1273.15 894.369 1275.43 893.304 1277.83 892.132C1279.07 891.525 1279.58 890.028 1278.98 888.788Z" fill="url(#paint0_linear_2001_1330)"/>
<path d="M1305.24 874.362C1304.55 873.168 1303.02 872.761 1301.82 873.453C1297.28 876.086 1292.93 878.539 1288.82 880.78C1287.61 881.442 1287.17 882.961 1287.83 884.173C1288.49 885.384 1290.01 885.831 1291.22 885.17C1295.37 882.904 1299.76 880.429 1304.33 877.778C1305.52 877.086 1305.93 875.557 1305.24 874.362Z" fill="url(#paint1_linear_2001_1330)"/>
<path d="M1330.9 858.826C1330.17 857.653 1328.63 857.292 1327.46 858.021C1323.1 860.725 1318.83 863.337 1314.68 865.84C1313.5 866.553 1313.12 868.089 1313.83 869.271C1314.55 870.454 1316.08 870.835 1317.27 870.122C1321.44 867.607 1325.72 864.983 1330.09 862.269C1331.27 861.54 1331.63 859.999 1330.9 858.826Z" fill="url(#paint2_linear_2001_1330)"/>
<path d="M1356.17 842.75C1355.42 841.59 1353.87 841.257 1352.71 842.006C1348.47 844.749 1344.26 847.445 1340.11 850.078C1338.94 850.818 1338.59 852.363 1339.33 853.529C1340.07 854.695 1341.62 855.04 1342.78 854.301C1346.95 851.659 1351.17 848.956 1355.43 846.206C1356.59 845.457 1356.92 843.91 1356.17 842.75Z" fill="url(#paint3_linear_2001_1330)"/>
<path d="M1381.22 826.3C1380.45 825.15 1378.9 824.836 1377.75 825.6C1373.58 828.37 1369.41 831.123 1365.25 833.845C1364.1 834.602 1363.78 836.151 1364.53 837.306C1365.29 838.46 1366.84 838.783 1367.99 838.026C1372.16 835.299 1376.34 832.54 1380.52 829.765C1381.67 829.001 1381.98 827.45 1381.22 826.3Z" fill="url(#paint4_linear_2001_1330)"/>
<path d="M1406.08 809.579C1405.31 808.436 1403.75 808.138 1402.61 808.913C1398.5 811.7 1394.36 814.496 1390.2 817.287C1389.05 818.057 1388.75 819.611 1389.52 820.757C1390.29 821.903 1391.84 822.208 1392.99 821.438C1397.15 818.642 1401.3 815.842 1405.42 813.052C1406.56 812.277 1406.86 810.722 1406.08 809.579Z" fill="url(#paint5_linear_2001_1330)"/>
<path d="M1430.8 792.639C1430.02 791.503 1428.46 791.218 1427.32 792.002C1423.28 794.795 1419.16 797.627 1414.98 800.483C1413.84 801.263 1413.55 802.819 1414.33 803.958C1415.11 805.097 1416.67 805.389 1417.81 804.609C1421.99 801.749 1426.11 798.914 1430.17 796.117C1431.3 795.333 1431.59 793.775 1430.8 792.639Z" fill="url(#paint6_linear_2001_1330)"/>
<path d="M1455.4 775.503C1454.6 774.373 1453.05 774.099 1451.91 774.892C1447.94 777.677 1443.84 780.546 1439.62 783.479C1438.49 784.268 1438.21 785.826 1439 786.959C1439.79 788.092 1441.35 788.372 1442.48 787.583C1446.7 784.646 1450.81 781.774 1454.79 778.984C1455.92 778.192 1456.19 776.633 1455.4 775.503Z" fill="url(#paint7_linear_2001_1330)"/>
<path d="M1479.85 758.177C1479.05 757.053 1477.49 756.792 1476.36 757.595C1472.54 760.322 1468.46 763.223 1464.16 766.269C1463.03 767.066 1462.76 768.626 1463.56 769.753C1464.36 770.88 1465.92 771.148 1467.04 770.351C1471.35 767.301 1475.44 764.395 1479.27 761.664C1480.39 760.862 1480.65 759.3 1479.85 758.177Z" fill="url(#paint8_linear_2001_1330)"/>
<path d="M1504.1 740.571C1503.28 739.461 1501.71 739.227 1500.6 740.048C1498.48 741.615 1496.45 743.104 1494.53 744.508C1492.68 745.855 1490.67 747.309 1488.53 748.861C1487.41 749.67 1487.15 751.233 1487.96 752.352C1488.77 753.471 1490.34 753.723 1491.45 752.914C1493.61 751.358 1495.62 749.9 1497.47 748.549C1499.41 747.137 1501.45 745.641 1503.57 744.068C1504.68 743.247 1504.92 741.681 1504.1 740.571Z" fill="url(#paint9_linear_2001_1330)"/>
<path d="M1528.24 722.354C1527.4 721.256 1525.83 721.045 1524.74 721.882C1520.52 725.094 1516.49 728.154 1512.66 731.041C1511.55 731.872 1511.33 733.439 1512.16 734.542C1513 735.645 1514.56 735.865 1515.67 735.034C1519.51 732.14 1523.55 729.075 1527.77 725.857C1528.87 725.02 1529.08 723.451 1528.24 722.354Z" fill="url(#paint10_linear_2001_1330)"/>
<path d="M1552.23 703.879C1551.39 702.787 1549.82 702.587 1548.73 703.433C1544.62 706.611 1540.61 709.704 1536.72 712.698C1535.63 713.54 1535.42 715.11 1536.27 716.204C1537.11 717.299 1538.68 717.503 1539.77 716.661C1543.67 713.663 1547.68 710.567 1551.79 707.386C1552.88 706.54 1553.08 704.97 1552.23 703.879Z" fill="url(#paint11_linear_2001_1330)"/>
<path d="M1576.11 685.28C1575.26 684.193 1573.69 684 1572.61 684.851C1568.57 688.003 1564.59 691.105 1560.69 694.146C1559.6 694.995 1559.4 696.566 1560.25 697.655C1561.1 698.744 1562.67 698.941 1563.76 698.093C1567.67 695.049 1571.65 691.944 1575.68 688.789C1576.77 687.939 1576.96 686.368 1576.11 685.28Z" fill="url(#paint12_linear_2001_1330)"/>
<path d="M1599.93 666.583C1599.08 665.498 1597.51 665.311 1596.42 666.165C1592.42 669.314 1588.45 672.435 1584.52 675.52C1583.43 676.372 1583.24 677.944 1584.09 679.03C1584.95 680.116 1586.52 680.305 1587.6 679.453C1591.54 676.367 1595.51 673.245 1599.51 670.094C1600.6 669.24 1600.79 667.668 1599.93 666.583Z" fill="url(#paint13_linear_2001_1330)"/>
<path d="M1623.7 647.811C1622.84 646.728 1621.27 646.546 1620.19 647.402C1616.22 650.545 1612.26 653.677 1608.31 656.791C1607.23 657.647 1607.04 659.219 1607.9 660.303C1608.75 661.386 1610.33 661.571 1611.41 660.716C1615.35 657.601 1619.32 654.466 1623.29 651.322C1624.37 650.465 1624.56 648.893 1623.7 647.811Z" fill="url(#paint14_linear_2001_1330)"/>
<path d="M1359 1577.8C1359 1575.32 1359 1572.84 1358.99 1570.37C1358.98 1568.98 1360.1 1567.86 1361.48 1567.86C1362.86 1567.85 1363.98 1568.97 1363.99 1570.35C1364 1572.83 1364 1575.31 1364 1577.8C1364 1579.19 1362.88 1580.3 1361.5 1580.3C1360.12 1580.3 1359 1579.19 1359 1577.8ZM1360.78 1538.08C1362.16 1538.02 1363.32 1539.09 1363.38 1540.47C1363.6 1545.49 1363.74 1550.46 1363.84 1555.42C1363.86 1556.8 1362.76 1557.94 1361.38 1557.96C1360 1557.99 1358.86 1556.89 1358.84 1555.51C1358.74 1550.59 1358.6 1545.66 1358.39 1540.68C1358.33 1539.31 1359.4 1538.14 1360.78 1538.08ZM1358.32 1508.41C1359.69 1508.25 1360.93 1509.24 1361.09 1510.61C1361.67 1515.66 1362.13 1520.63 1362.5 1525.53C1362.61 1526.9 1361.58 1528.1 1360.2 1528.21C1358.82 1528.31 1357.62 1527.28 1357.52 1525.9C1357.15 1521.06 1356.69 1516.16 1356.12 1511.17C1355.97 1509.8 1356.95 1508.56 1358.32 1508.41ZM1353.54 1479.02C1354.89 1478.75 1356.21 1479.63 1356.47 1480.98C1357.47 1486.01 1358.34 1490.92 1359.09 1495.74C1359.3 1497.1 1358.36 1498.38 1357 1498.59C1355.64 1498.81 1354.36 1497.87 1354.14 1496.51C1353.4 1491.76 1352.55 1486.91 1351.57 1481.96C1351.3 1480.6 1352.18 1479.29 1353.54 1479.02ZM1346.41 1450.09C1347.74 1449.72 1349.12 1450.5 1349.49 1451.83C1350.88 1456.78 1352.13 1461.61 1353.27 1466.34C1353.59 1467.68 1352.76 1469.03 1351.42 1469.35C1350.08 1469.68 1348.73 1468.85 1348.4 1467.51C1347.28 1462.84 1346.04 1458.07 1344.67 1453.18C1344.3 1451.85 1345.08 1450.47 1346.41 1450.09ZM1337.25 1421.75C1338.55 1421.29 1339.98 1421.98 1340.44 1423.28C1342.14 1428.12 1343.73 1432.85 1345.2 1437.47C1345.61 1438.79 1344.89 1440.19 1343.57 1440.61C1342.25 1441.03 1340.85 1440.3 1340.43 1438.98C1338.98 1434.41 1337.41 1429.73 1335.72 1424.94C1335.26 1423.64 1335.95 1422.21 1337.25 1421.75ZM1326.46 1394.02C1327.73 1393.49 1329.19 1394.1 1329.72 1395.37C1331.68 1400.1 1333.52 1404.72 1335.27 1409.25C1335.76 1410.54 1335.12 1411.99 1333.83 1412.48C1332.54 1412.98 1331.09 1412.33 1330.6 1411.05C1328.87 1406.56 1327.04 1401.97 1325.1 1397.28C1324.57 1396.01 1325.18 1394.55 1326.46 1394.02ZM1313.88 1366.4C1315.1 1365.77 1316.61 1366.25 1317.24 1367.48C1318.51 1369.94 1319.69 1372.37 1320.78 1374.77C1321.82 1377.08 1322.84 1379.36 1323.84 1381.62C1324.4 1382.88 1323.82 1384.35 1322.56 1384.91C1321.3 1385.47 1319.82 1384.9 1319.26 1383.63C1318.27 1381.39 1317.26 1379.13 1316.22 1376.84C1315.17 1374.52 1314.03 1372.16 1312.8 1369.77C1312.17 1368.54 1312.65 1367.03 1313.88 1366.4ZM1296.87 1339.4C1297.99 1338.6 1299.55 1338.87 1300.35 1339.99C1303.54 1344.5 1306.52 1348.99 1309.27 1353.43C1309.99 1354.61 1309.63 1356.15 1308.46 1356.87C1307.28 1357.6 1305.74 1357.24 1305.02 1356.06C1302.33 1351.71 1299.4 1347.31 1296.27 1342.88C1295.47 1341.75 1295.74 1340.19 1296.87 1339.4ZM1276.9 1314.49C1277.94 1313.58 1279.52 1313.69 1280.42 1314.73C1283.99 1318.83 1287.42 1322.96 1290.7 1327.11C1291.56 1328.19 1291.37 1329.76 1290.29 1330.62C1289.21 1331.48 1287.63 1331.29 1286.78 1330.21C1283.55 1326.13 1280.17 1322.05 1276.65 1318.02C1275.75 1316.98 1275.86 1315.4 1276.9 1314.49ZM1254.69 1291.55C1255.64 1290.55 1257.23 1290.52 1258.22 1291.47C1262.11 1295.19 1265.9 1298.99 1269.59 1302.85C1270.54 1303.85 1270.5 1305.43 1269.51 1306.39C1268.51 1307.34 1266.92 1307.3 1265.97 1306.3C1262.33 1302.49 1258.59 1298.75 1254.77 1295.08C1253.77 1294.13 1253.74 1292.55 1254.69 1291.55ZM1230.45 1270.77C1231.3 1269.68 1232.88 1269.49 1233.96 1270.35C1238.15 1273.64 1242.29 1277.08 1246.35 1280.62C1247.39 1281.53 1247.5 1283.11 1246.59 1284.15C1245.69 1285.19 1244.11 1285.3 1243.07 1284.39C1239.06 1280.9 1234.99 1277.52 1230.87 1274.28C1229.78 1273.42 1229.6 1271.85 1230.45 1270.77ZM1204.58 1252.82C1205.33 1251.66 1206.88 1251.33 1208.04 1252.08C1210.18 1253.47 1212.29 1254.85 1214.37 1256.21C1216.6 1257.68 1218.82 1259.18 1221.04 1260.74C1222.17 1261.53 1222.44 1263.09 1221.65 1264.22C1220.86 1265.35 1219.3 1265.62 1218.17 1264.83C1216 1263.31 1213.82 1261.83 1211.63 1260.4C1209.55 1259.03 1207.45 1257.66 1205.32 1256.28C1204.16 1255.53 1203.83 1253.98 1204.58 1252.82ZM1178.78 1237.04C1179.47 1235.84 1181 1235.43 1182.19 1236.12C1186.68 1238.72 1191.01 1241.33 1195.22 1243.94C1196.4 1244.67 1196.76 1246.21 1196.03 1247.38C1195.3 1248.55 1193.76 1248.92 1192.59 1248.19C1188.42 1245.6 1184.12 1243.01 1179.69 1240.45C1178.5 1239.76 1178.09 1238.23 1178.78 1237.04ZM784.958 1238.85C786.174 1238.2 787.691 1238.65 788.346 1239.86C789.001 1241.08 788.546 1242.6 787.331 1243.25C784.906 1244.56 782.718 1245.8 780.78 1246.95C779.593 1247.66 778.058 1247.27 777.352 1246.08C776.645 1244.9 777.035 1243.36 778.221 1242.66C780.227 1241.46 782.478 1240.19 784.958 1238.85ZM812.842 1225.66C814.114 1225.13 815.58 1225.72 816.116 1227C816.652 1228.27 816.056 1229.73 814.783 1230.27C809.783 1232.38 805.141 1234.45 800.888 1236.45C799.638 1237.04 798.149 1236.5 797.562 1235.25C796.974 1234 797.511 1232.51 798.76 1231.92C803.076 1229.89 807.78 1227.79 812.842 1225.66ZM1151.94 1223.12C1152.53 1221.87 1154.02 1221.34 1155.27 1221.93C1159.96 1224.15 1164.49 1226.43 1168.88 1228.75C1170.1 1229.39 1170.56 1230.91 1169.92 1232.13C1169.27 1233.35 1167.76 1233.82 1166.54 1233.17C1162.21 1230.89 1157.75 1228.64 1153.13 1226.45C1151.88 1225.85 1151.35 1224.36 1151.94 1223.12ZM841.617 1214.71C842.923 1214.26 844.346 1214.96 844.794 1216.26C845.242 1217.57 844.546 1218.99 843.24 1219.44C838.259 1221.15 833.479 1222.88 828.918 1224.61C827.628 1225.1 826.183 1224.46 825.693 1223.17C825.202 1221.87 825.85 1220.43 827.141 1219.94C831.753 1218.19 836.584 1216.44 841.617 1214.71ZM1123.95 1211.65C1124.42 1210.35 1125.85 1209.69 1127.15 1210.16C1132.04 1211.94 1136.77 1213.8 1141.35 1215.71C1142.62 1216.25 1143.22 1217.71 1142.69 1218.99C1142.16 1220.26 1140.69 1220.86 1139.42 1220.33C1134.91 1218.44 1130.25 1216.61 1125.44 1214.86C1124.14 1214.38 1123.47 1212.95 1123.95 1211.65ZM671.717 1210.42C673.016 1209.96 674.448 1210.63 674.915 1211.93C675.383 1213.23 674.708 1214.66 673.409 1215.13C670.963 1216.01 668.605 1216.85 666.339 1217.66C665.039 1218.12 663.609 1217.44 663.146 1216.14C662.682 1214.84 663.361 1213.41 664.661 1212.95C666.922 1212.14 669.276 1211.3 671.717 1210.42ZM871.036 1205.63C872.368 1205.27 873.744 1206.05 874.11 1207.38C874.475 1208.72 873.692 1210.09 872.361 1210.46C867.348 1211.83 862.47 1213.26 857.738 1214.72C856.418 1215.12 855.019 1214.38 854.613 1213.07C854.206 1211.75 854.945 1210.35 856.265 1209.94C861.045 1208.47 865.973 1207.03 871.036 1205.63ZM1095.01 1202.87C1095.36 1201.54 1096.73 1200.74 1098.06 1201.09C1103.09 1202.41 1107.97 1203.81 1112.71 1205.28C1114.03 1205.69 1114.76 1207.09 1114.35 1208.41C1113.94 1209.73 1112.54 1210.47 1111.22 1210.06C1106.56 1208.6 1101.75 1207.22 1096.8 1205.92C1095.46 1205.58 1094.66 1204.21 1095.01 1202.87ZM699.827 1200.14C701.122 1199.66 702.56 1200.32 703.04 1201.62C703.52 1202.91 702.86 1204.35 701.566 1204.83C696.68 1206.64 691.979 1208.37 687.488 1210.02C686.192 1210.49 684.757 1209.82 684.282 1208.53C683.808 1207.23 684.474 1205.8 685.771 1205.32C690.254 1203.68 694.948 1201.95 699.827 1200.14ZM900.949 1198.41C902.301 1198.13 903.626 1199 903.907 1200.35C904.189 1201.7 903.322 1203.03 901.97 1203.31C896.917 1204.36 891.96 1205.48 887.109 1206.65C885.766 1206.98 884.415 1206.15 884.091 1204.81C883.767 1203.47 884.593 1202.12 885.935 1201.79C890.836 1200.61 895.844 1199.48 900.949 1198.41ZM1065.42 1196.72C1065.66 1195.36 1066.95 1194.45 1068.31 1194.68C1073.43 1195.56 1078.41 1196.52 1083.25 1197.56C1084.6 1197.85 1085.46 1199.18 1085.17 1200.53C1084.88 1201.88 1083.55 1202.74 1082.2 1202.45C1077.43 1201.42 1072.52 1200.47 1067.47 1199.61C1066.11 1199.37 1065.19 1198.08 1065.42 1196.72ZM931.262 1193.11C932.629 1192.91 933.894 1193.86 934.087 1195.23C934.281 1196.6 933.329 1197.86 931.962 1198.06C926.878 1198.78 921.865 1199.57 916.929 1200.44C915.569 1200.68 914.273 1199.77 914.034 1198.41C913.796 1197.05 914.706 1195.75 916.066 1195.51C921.054 1194.64 926.122 1193.83 931.262 1193.11ZM727.92 1189.6C729.211 1189.11 730.655 1189.76 731.145 1191.05C731.634 1192.34 730.985 1193.79 729.695 1194.28C724.907 1196.09 720.229 1197.86 715.678 1199.57C714.385 1200.05 712.944 1199.4 712.459 1198.1C711.974 1196.81 712.63 1195.37 713.922 1194.89C718.467 1193.18 723.138 1191.42 727.92 1189.6ZM1038.12 1190.71C1043.29 1191.2 1048.34 1191.76 1053.25 1192.41C1054.62 1192.59 1055.59 1193.84 1055.41 1195.21C1055.23 1196.58 1053.97 1197.54 1052.6 1197.36C1047.75 1196.73 1042.77 1196.17 1037.66 1195.69C1036.28 1195.56 1035.27 1194.34 1035.4 1192.97C1035.53 1191.59 1036.75 1190.58 1038.12 1190.71ZM961.871 1189.83C963.248 1189.73 964.445 1190.77 964.544 1192.15C964.643 1193.52 963.607 1194.72 962.23 1194.82C957.122 1195.19 952.066 1195.64 947.068 1196.18C945.695 1196.32 944.463 1195.33 944.316 1193.96C944.169 1192.59 945.162 1191.35 946.534 1191.21C951.589 1190.66 956.704 1190.2 961.871 1189.83ZM1007.77 1188.91C1012.95 1189.05 1018.02 1189.27 1022.98 1189.56C1024.36 1189.64 1025.41 1190.82 1025.33 1192.2C1025.25 1193.58 1024.06 1194.63 1022.68 1194.55C1017.78 1194.26 1012.77 1194.05 1007.63 1193.91C1006.25 1193.87 1005.16 1192.72 1005.2 1191.34C1005.24 1189.96 1006.39 1188.87 1007.77 1188.91ZM992.591 1188.73C993.972 1188.73 995.094 1189.84 995.098 1191.22C995.101 1192.6 993.985 1193.73 992.605 1193.73C990.11 1193.74 987.59 1193.76 985.042 1193.8C982.495 1193.85 979.958 1193.91 977.432 1194C976.052 1194.05 974.894 1192.97 974.845 1191.59C974.796 1190.21 975.874 1189.06 977.254 1189.01C979.811 1188.92 982.38 1188.85 984.958 1188.8C987.529 1188.76 990.073 1188.74 992.591 1188.73ZM755.955 1178.85C757.243 1178.35 758.691 1178.99 759.19 1180.28C759.689 1181.56 759.05 1183.01 757.763 1183.51C753.013 1185.35 748.332 1187.16 743.734 1188.92C742.445 1189.42 740.999 1188.77 740.504 1187.48C740.01 1186.19 740.654 1184.75 741.943 1184.25C746.536 1182.49 751.211 1180.69 755.955 1178.85ZM783.867 1167.91C785.151 1167.41 786.603 1168.03 787.112 1169.32C787.62 1170.6 786.992 1172.05 785.708 1172.56C781.006 1174.42 776.344 1176.26 771.736 1178.07C770.45 1178.57 769 1177.93 768.496 1176.65C767.993 1175.36 768.627 1173.91 769.912 1173.41C774.515 1171.61 779.171 1169.77 783.867 1167.91ZM811.731 1156.76C813.01 1156.24 814.468 1156.86 814.987 1158.14C815.505 1159.42 814.887 1160.87 813.608 1161.39C808.937 1163.28 804.288 1165.15 799.668 1167C798.386 1167.52 796.931 1166.89 796.418 1165.61C795.905 1164.33 796.528 1162.88 797.81 1162.36C802.423 1160.52 807.067 1158.65 811.731 1156.76ZM839.478 1145.39C840.753 1144.86 842.216 1145.46 842.745 1146.74C843.274 1148.01 842.669 1149.48 841.394 1150C836.76 1151.93 832.129 1153.84 827.509 1155.73C826.232 1156.25 824.772 1155.64 824.248 1154.36C823.725 1153.09 824.336 1151.63 825.613 1151.1C830.227 1149.21 834.851 1147.31 839.478 1145.39ZM867.127 1133.76C868.397 1133.22 869.866 1133.81 870.407 1135.08C870.949 1136.35 870.358 1137.82 869.088 1138.36C864.489 1140.32 859.875 1142.27 855.255 1144.22C853.982 1144.75 852.517 1144.15 851.982 1142.88C851.447 1141.61 852.045 1140.14 853.318 1139.61C857.93 1137.67 862.536 1135.72 867.127 1133.76ZM894.643 1121.85C895.907 1121.29 897.382 1121.87 897.938 1123.13C898.494 1124.39 897.921 1125.87 896.657 1126.42C892.097 1128.43 887.504 1130.44 882.887 1132.43C881.62 1132.98 880.147 1132.4 879.599 1131.13C879.051 1129.87 879.634 1128.39 880.901 1127.85C885.508 1125.85 890.092 1123.85 894.643 1121.85ZM922.011 1109.58C923.267 1109 924.75 1109.56 925.324 1110.81C925.898 1112.07 925.346 1113.55 924.09 1114.13C919.576 1116.19 915.008 1118.26 910.397 1120.32C909.137 1120.89 907.658 1120.32 907.093 1119.06C906.528 1117.8 907.092 1116.33 908.352 1115.76C912.952 1113.7 917.509 1111.64 922.011 1109.58ZM949.138 1096.88C950.383 1096.29 951.876 1096.81 952.474 1098.05C953.071 1099.3 952.547 1100.79 951.302 1101.39C946.853 1103.53 942.323 1105.67 937.724 1107.82C936.473 1108.41 934.986 1107.87 934.401 1106.62C933.816 1105.37 934.355 1103.88 935.606 1103.29C940.19 1101.15 944.705 1099.01 949.138 1096.88ZM975.991 1083.59C977.22 1082.96 978.726 1083.45 979.356 1084.68C979.985 1085.9 979.5 1087.41 978.271 1088.04C973.91 1090.27 969.43 1092.53 964.844 1094.79C963.606 1095.41 962.106 1094.9 961.494 1093.66C960.883 1092.42 961.39 1090.93 962.627 1090.31C967.194 1088.06 971.653 1085.81 975.991 1083.59ZM1002.7 1069.3C1003.91 1068.63 1005.43 1069.06 1006.1 1070.26C1006.77 1071.47 1006.34 1072.99 1005.13 1073.67C1002.82 1074.96 1000.5 1076.24 998.202 1077.5C996.048 1078.68 993.851 1079.87 991.614 1081.06C990.397 1081.71 988.883 1081.25 988.232 1080.04C987.581 1078.82 988.04 1077.3 989.257 1076.65C991.479 1075.47 993.66 1074.28 995.798 1073.11C998.09 1071.86 1000.39 1070.58 1002.7 1069.3ZM1030.12 1053.58C1031.31 1052.88 1032.85 1053.28 1033.55 1054.47C1034.25 1055.66 1033.85 1057.19 1032.66 1057.89C1028.07 1060.59 1023.49 1063.25 1018.94 1065.86C1017.74 1066.55 1016.21 1066.13 1015.53 1064.94C1014.84 1063.74 1015.25 1062.21 1016.45 1061.52C1020.99 1058.92 1025.55 1056.27 1030.12 1053.58ZM1057.22 1037.31C1058.4 1036.58 1059.94 1036.95 1060.66 1038.13C1061.38 1039.31 1061.01 1040.85 1059.83 1041.57C1055.32 1044.34 1050.8 1047.08 1046.28 1049.8C1045.1 1050.51 1043.56 1050.12 1042.85 1048.94C1042.14 1047.76 1042.52 1046.22 1043.71 1045.51C1048.21 1042.8 1052.72 1040.06 1057.22 1037.31ZM1084.05 1020.57C1085.21 1019.83 1086.76 1020.18 1087.5 1021.34C1088.24 1022.51 1087.89 1024.05 1086.73 1024.79C1082.28 1027.62 1077.8 1030.43 1073.31 1033.23C1072.14 1033.96 1070.6 1033.6 1069.87 1032.43C1069.14 1031.26 1069.5 1029.72 1070.67 1028.99C1075.15 1026.19 1079.61 1023.39 1084.05 1020.57ZM1110.64 1003.45C1111.8 1002.69 1113.35 1003.02 1114.1 1004.18C1114.86 1005.33 1114.53 1006.88 1113.38 1007.64C1108.99 1010.5 1104.55 1013.38 1100.08 1016.26C1098.92 1017 1097.38 1016.67 1096.63 1015.51C1095.88 1014.35 1096.22 1012.8 1097.38 1012.05C1101.84 1009.18 1106.26 1006.31 1110.64 1003.45ZM1137.03 985.99C1138.17 985.222 1139.73 985.528 1140.5 986.675C1141.26 987.822 1140.96 989.375 1139.81 990.144C1135.48 993.049 1131.07 995.981 1126.62 998.932C1125.47 999.694 1123.91 999.378 1123.15 998.227C1122.39 997.075 1122.71 995.524 1123.86 994.762C1128.31 991.817 1132.7 988.89 1137.03 985.99ZM1163.19 968.234C1164.33 967.453 1165.89 967.742 1166.67 968.88C1167.45 970.018 1167.16 971.575 1166.02 972.356C1161.76 975.287 1157.39 978.269 1152.94 981.292C1151.79 982.067 1150.24 981.769 1149.46 980.627C1148.69 979.484 1148.99 977.93 1150.13 977.154C1154.58 974.137 1158.94 971.16 1163.19 968.234ZM1189.18 950.171C1190.31 949.376 1191.87 949.647 1192.66 950.776C1193.46 951.905 1193.19 953.465 1192.06 954.26C1187.88 957.201 1183.54 960.234 1179.07 963.343C1177.94 964.131 1176.38 963.851 1175.59 962.717C1174.8 961.583 1175.08 960.025 1176.22 959.237C1180.68 956.134 1185.01 953.107 1189.18 950.171ZM1214.91 931.816C1216.03 931.007 1217.59 931.257 1218.4 932.376C1219.21 933.494 1218.96 935.058 1217.84 935.867C1213.82 938.779 1209.53 941.864 1204.99 945.1C1203.87 945.901 1202.3 945.64 1201.5 944.516C1200.7 943.391 1200.96 941.83 1202.09 941.028C1206.61 937.8 1210.9 934.721 1214.91 931.816ZM1234 917.802C1235.11 916.976 1236.68 917.202 1237.5 918.309C1238.33 919.415 1238.1 920.981 1237 921.808C1235.03 923.277 1232.92 924.844 1230.67 926.501C1229.56 927.32 1228 927.084 1227.18 925.973C1226.36 924.861 1226.59 923.296 1227.7 922.477C1229.94 920.825 1232.05 919.265 1234 917.802Z" fill="#162661"/>
<path d="M827.969 843.667C839.532 838.818 850.798 846.311 857.936 852.951C862.643 857.294 867.128 861.781 871.68 866.223C871.74 866.271 871.801 866.329 871.862 866.382C868.092 865.047 864.361 863.652 860.498 862.485C857.587 861.633 853.448 859.254 851.339 862.294C850.474 863.645 851.202 865.406 852.974 866.048C858.809 868.249 864.534 870.646 870.619 872.422C874.524 873.634 879.087 874.798 880.105 870.477C880.199 870.221 880.278 869.961 880.365 869.704C880.702 869.328 880.83 868.89 880.785 868.403C881.978 864.415 882.534 860.291 883.139 856.232C883.25 855.126 883.225 853.736 881.824 853.098C879.837 852.141 877.684 853.299 877.434 854.975C876.737 857.262 876.133 859.564 875.579 861.874C873.587 860.097 871.614 858.473 870.866 857.455C861.563 849.233 851.482 838.014 835.946 837.905C817.085 839.377 803.883 854.536 784.169 853.516C765.73 850.532 756.396 835.537 749.63 823.281C744.364 814.122 740.876 803.061 729.995 796.69C715.192 787.065 691.839 786.957 677.413 796.989C675.151 800.134 680.193 801.642 682.497 798.628C698.099 790.584 719.106 792.49 731.063 803.93C744.551 820.454 747.963 842.91 770.851 854.135C790.46 864.933 810.5 850.111 827.97 843.666L827.969 843.667Z" fill="#162661"/>
<g clip-path="url(#clip1_2001_1330)">
<path d="M33.7215 1097.92C36.1489 1097.97 38.5756 1098 40.9998 1098C43.4854 1098 46.0081 1097.99 48.5672 1097.97C49.9478 1097.96 51.0758 1099.07 51.0867 1100.45C51.0974 1101.83 49.9868 1102.96 48.6062 1102.97C46.0302 1102.99 43.4939 1103 40.9998 1103C38.5401 1103 36.0796 1102.97 33.6199 1102.92C32.2395 1102.9 31.1437 1101.75 31.1717 1100.37C31.1998 1098.99 32.3411 1097.9 33.7215 1097.92ZM78.7273 1096.81C80.1037 1096.7 81.3072 1097.73 81.4148 1099.11C81.5225 1100.48 80.4935 1101.69 79.117 1101.79C73.9156 1102.2 68.8253 1102.47 63.8572 1102.65C62.4775 1102.7 61.3177 1101.63 61.2674 1100.25C61.2171 1098.87 62.295 1097.71 63.6746 1097.66C68.5848 1097.48 73.6057 1097.21 78.7273 1096.81ZM4.60623 1096.34C9.43971 1096.75 14.2951 1097.09 19.1599 1097.36C20.5385 1097.44 21.5939 1098.62 21.5174 1100C21.4406 1101.38 20.2611 1102.43 18.8826 1102.36C13.9655 1102.08 9.06337 1101.73 4.18924 1101.32C2.81337 1101.21 1.79073 1100 1.90604 1098.62C2.02138 1097.25 3.23042 1096.23 4.60623 1096.34ZM108.525 1092.89C109.881 1092.63 111.19 1093.52 111.449 1094.88C111.707 1096.23 110.818 1097.54 109.462 1097.8C104.339 1098.78 99.2932 1099.57 94.3328 1100.22C92.9639 1100.4 91.7094 1099.43 91.531 1098.06C91.3527 1096.69 92.3182 1095.44 93.6873 1095.26C98.5576 1094.63 103.506 1093.85 108.525 1092.89ZM-24.466 1093.31C-19.6664 1093.88 -14.8168 1094.44 -9.93087 1094.96C-8.55797 1095.1 -7.56239 1096.33 -7.70724 1097.71C-7.85217 1099.08 -9.08321 1100.07 -10.4563 1099.93C-15.3721 1099.41 -20.2467 1098.85 -25.0647 1098.27C-26.4352 1098.1 -27.4124 1096.86 -27.2473 1095.49C-27.082 1094.12 -25.8367 1093.14 -24.466 1093.31ZM-53.5315 1089.61C-51.1487 1089.91 -48.744 1090.23 -46.3205 1090.54C-43.8965 1090.85 -41.4533 1091.17 -38.9924 1091.49C-37.623 1091.66 -36.6553 1092.92 -36.8313 1094.29C-37.0073 1095.66 -38.2607 1096.62 -39.6301 1096.45C-42.0941 1096.13 -44.5395 1095.81 -46.9631 1095.5C-49.3871 1095.18 -51.7895 1094.87 -54.1692 1094.57C-55.5385 1094.39 -56.5054 1093.14 -56.3293 1091.77C-56.1531 1090.4 -54.9007 1089.43 -53.5315 1089.61ZM137.593 1085.38C138.903 1084.95 140.317 1085.66 140.751 1086.97C141.184 1088.28 140.474 1089.69 139.163 1090.13C134.202 1091.77 129.292 1093.2 124.441 1094.45C123.104 1094.8 121.741 1093.99 121.396 1092.65C121.051 1091.32 121.855 1089.95 123.192 1089.61C127.939 1088.39 132.742 1086.98 137.593 1085.38ZM-82.7404 1086.2C-77.9963 1086.66 -73.11 1087.2 -68.1047 1087.79C-66.7336 1087.96 -65.7544 1089.2 -65.9172 1090.57C-66.0801 1091.94 -67.3228 1092.92 -68.6936 1092.76C-73.6739 1092.17 -78.5213 1091.63 -83.217 1091.18C-84.5914 1091.05 -85.5985 1089.83 -85.467 1088.45C-85.3354 1087.08 -84.1149 1086.07 -82.7404 1086.2ZM-127.224 1086.01C-125.86 1085.8 -124.58 1086.73 -124.364 1088.09C-124.149 1089.46 -125.079 1090.74 -126.443 1090.95C-128.874 1091.34 -131.176 1091.82 -133.342 1092.41C-134.674 1092.77 -136.049 1091.99 -136.412 1090.66C-136.775 1089.33 -135.99 1087.95 -134.658 1087.59C-132.294 1086.94 -129.812 1086.42 -127.224 1086.01ZM-112.305 1084.79C-107.596 1084.69 -102.635 1084.8 -97.4611 1085.08C-96.0825 1085.15 -95.0243 1086.33 -95.0979 1087.71C-95.1717 1089.09 -96.3492 1090.14 -97.7277 1090.07C-102.808 1089.8 -107.641 1089.69 -112.198 1089.79C-113.579 1089.81 -114.722 1088.72 -114.751 1087.34C-114.78 1085.96 -113.685 1084.82 -112.305 1084.79ZM165.366 1074.04C166.606 1073.43 168.103 1073.94 168.711 1075.18C169.318 1076.42 168.805 1077.92 167.565 1078.53C162.86 1080.83 158.188 1082.92 153.553 1084.81C152.275 1085.34 150.816 1084.72 150.294 1083.44C149.772 1082.17 150.386 1080.71 151.664 1080.19C156.195 1078.33 160.764 1076.29 165.366 1074.04ZM191.391 1059.12C192.544 1058.36 194.094 1058.67 194.855 1059.83C195.616 1060.98 195.299 1062.53 194.147 1063.29C189.782 1066.17 185.435 1068.85 181.111 1071.33C179.914 1072.02 178.385 1071.6 177.698 1070.41C177.011 1069.21 177.424 1067.68 178.622 1066.99C182.855 1064.56 187.113 1061.94 191.391 1059.12ZM215.506 1041.09C216.564 1040.2 218.14 1040.34 219.027 1041.4C219.914 1042.45 219.775 1044.03 218.718 1044.92C214.699 1048.29 210.691 1051.46 206.696 1054.45C205.591 1055.28 204.024 1055.06 203.196 1053.95C202.368 1052.85 202.594 1051.28 203.699 1050.45C207.62 1047.51 211.557 1044.4 215.506 1041.09ZM237.542 1020.65C238.509 1019.66 240.091 1019.65 241.077 1020.61C242.062 1021.58 242.078 1023.16 241.111 1024.15C237.458 1027.87 233.808 1031.42 230.165 1034.81C229.153 1035.75 227.571 1035.69 226.632 1034.68C225.692 1033.66 225.751 1032.08 226.762 1031.14C230.348 1027.81 233.942 1024.32 237.542 1020.65ZM257.716 998.257C258.598 997.196 260.175 997.05 261.237 997.933C262.299 998.816 262.443 1000.39 261.56 1001.45C258.229 1005.46 254.899 1009.31 251.57 1013.01C250.646 1014.04 249.065 1014.12 248.039 1013.19C247.013 1012.27 246.93 1010.69 247.853 1009.66C251.137 1006.01 254.425 1002.21 257.716 998.257ZM276.19 974.362C276.998 973.242 278.56 972.988 279.68 973.795C280.8 974.603 281.053 976.166 280.246 977.286C277.202 981.507 274.156 985.588 271.11 989.533C270.266 990.625 268.696 990.827 267.603 989.983C266.511 989.139 266.309 987.569 267.153 986.476C270.165 982.576 273.178 978.54 276.19 974.362ZM293.141 949.309C293.883 948.144 295.428 947.8 296.593 948.542C297.757 949.283 298.101 950.828 297.36 951.993C294.576 956.368 291.788 960.618 288.999 964.745C288.226 965.888 286.672 966.188 285.528 965.416C284.384 964.642 284.084 963.088 284.857 961.944C287.62 957.857 290.382 953.646 293.141 949.309ZM308.683 923.468C309.367 922.269 310.893 921.85 312.093 922.533C313.292 923.216 313.711 924.743 313.028 925.943C310.471 930.433 307.911 934.81 305.346 939.076C304.635 940.259 303.099 940.641 301.916 939.93C300.732 939.219 300.349 937.683 301.06 936.5C303.604 932.268 306.146 927.925 308.683 923.468ZM323.132 896.765C323.764 895.538 325.271 895.055 326.499 895.687C327.726 896.319 328.21 897.827 327.578 899.054C325.201 903.671 322.819 908.183 320.434 912.593C319.777 913.807 318.261 914.26 317.047 913.603C315.832 912.946 315.38 911.429 316.037 910.214C318.406 905.834 320.77 901.352 323.132 896.765ZM336.321 869.738C336.878 868.475 338.355 867.902 339.618 868.459C340.881 869.017 341.454 870.493 340.896 871.756C339.887 874.045 338.84 876.321 337.754 878.583C336.628 880.926 335.501 883.245 334.374 885.54C333.765 886.779 332.267 887.29 331.028 886.681C329.789 886.072 329.278 884.574 329.887 883.334C331.007 881.053 332.127 878.747 333.246 876.417C334.308 874.205 335.333 871.978 336.321 869.738ZM346.536 842.16C346.94 840.84 348.338 840.097 349.658 840.5C350.978 840.904 351.721 842.302 351.317 843.623C349.858 848.395 348.264 853.138 346.525 857.841C346.046 859.136 344.608 859.797 343.313 859.319C342.019 858.84 341.357 857.403 341.836 856.108C343.54 851.498 345.103 846.844 346.536 842.16ZM353.66 813.58C353.927 812.225 355.242 811.342 356.596 811.609C357.951 811.876 358.833 813.191 358.566 814.545C357.604 819.432 356.523 824.313 355.314 829.176C354.981 830.516 353.625 831.333 352.285 831C350.945 830.666 350.129 829.31 350.462 827.97C351.65 823.19 352.713 818.389 353.66 813.58ZM360.797 782.191C362.169 782.338 363.164 783.569 363.017 784.942C362.491 789.878 361.86 794.832 361.117 799.792C360.912 801.158 359.64 802.1 358.274 801.895C356.909 801.69 355.968 800.418 356.173 799.052C356.905 794.164 357.525 789.28 358.045 784.412C358.191 783.039 359.424 782.044 360.797 782.191ZM362.605 752.526C363.985 752.567 365.071 753.72 365.029 755.1C364.88 760.039 364.643 765.024 364.306 770.042C364.214 771.419 363.023 772.461 361.645 772.369C360.268 772.276 359.226 771.085 359.318 769.708C359.65 764.754 359.884 759.83 360.031 754.95C360.073 753.57 361.225 752.484 362.605 752.526ZM362.318 722.802C363.698 722.751 364.858 723.829 364.909 725.208C365.09 730.117 365.197 735.106 365.219 740.16C365.225 741.54 364.111 742.664 362.73 742.67C361.35 742.676 360.225 741.563 360.219 740.182C360.197 735.184 360.091 730.249 359.912 725.392C359.861 724.013 360.939 722.853 362.318 722.802ZM360.167 693.162C361.541 693.028 362.763 694.033 362.897 695.407C363.369 700.25 363.784 705.224 364.129 710.309C364.222 711.686 363.181 712.879 361.803 712.972C360.426 713.065 359.234 712.024 359.14 710.647C358.8 705.613 358.388 700.688 357.921 695.892C357.787 694.518 358.793 693.296 360.167 693.162ZM356.301 663.678C357.665 663.467 358.942 664.401 359.154 665.765C359.886 670.486 360.587 675.425 361.235 680.555C361.408 681.925 360.438 683.176 359.068 683.349C357.698 683.522 356.447 682.552 356.274 681.182C355.632 676.101 354.939 671.208 354.214 666.532C354.002 665.167 354.936 663.89 356.301 663.678ZM350.767 634.507C352.117 634.216 353.448 635.075 353.739 636.424C354.697 640.869 355.684 645.758 356.657 651.038C356.907 652.395 356.009 653.699 354.651 653.95C353.293 654.2 351.989 653.302 351.739 651.944C350.775 646.715 349.8 641.875 348.851 637.478C348.56 636.129 349.418 634.799 350.767 634.507ZM343.191 605.768C344.514 605.372 345.907 606.122 346.303 607.445C346.682 608.707 347.046 609.939 347.396 611.138L348.405 614.635L348.406 614.639C348.973 616.644 349.625 619.065 350.336 621.866C350.675 623.204 349.866 624.564 348.528 624.904C347.19 625.244 345.829 624.434 345.489 623.096C344.788 620.336 344.149 617.96 343.595 616.001L343.595 616.002C342.958 613.763 342.264 611.384 341.514 608.88C341.118 607.558 341.869 606.164 343.191 605.768ZM321.119 596.728C322.499 596.709 323.634 597.812 323.653 599.193C323.672 600.573 322.569 601.709 321.188 601.728C316.3 601.797 311.405 601.8 306.506 601.738C305.125 601.72 304.02 600.587 304.038 599.207C304.056 597.826 305.189 596.721 306.569 596.739C311.423 596.801 316.274 596.796 321.119 596.728ZM277.508 595.544C282.348 595.885 287.189 596.152 292.028 596.35C293.408 596.406 294.48 597.57 294.424 598.95C294.367 600.329 293.204 601.403 291.824 601.346C286.937 601.146 282.047 600.876 277.157 600.533C275.78 600.436 274.742 599.24 274.839 597.863C274.936 596.486 276.13 595.448 277.508 595.544ZM333.86 577.254C335.165 576.804 336.588 577.497 337.039 578.802C338.752 583.765 340.347 588.542 341.817 593.079C342.214 594.302 341.616 595.607 340.47 596.125C343.718 595.969 346.962 595.791 350.202 595.583C351.58 595.495 352.768 596.541 352.856 597.918C352.944 599.296 351.899 600.484 350.521 600.573C345.645 600.885 340.758 601.14 335.863 601.333C334.484 601.388 333.321 600.314 333.266 598.934C333.212 597.554 334.286 596.392 335.666 596.337C336.653 596.298 337.641 596.254 338.628 596.21C337.91 595.963 337.313 595.397 337.061 594.62C335.601 590.113 334.015 585.366 332.312 580.433C331.862 579.128 332.555 577.705 333.86 577.254ZM379.21 593.06C380.582 592.91 381.817 593.9 381.967 595.273C382.117 596.645 381.126 597.879 379.754 598.03C374.901 598.56 370.033 599.041 365.153 599.466C363.778 599.586 362.565 598.568 362.445 597.193C362.325 595.817 363.343 594.605 364.719 594.485C369.561 594.063 374.393 593.587 379.21 593.06ZM255.79 593.516C258.199 593.798 260.61 594.061 263.021 594.305C264.395 594.444 265.395 595.67 265.257 597.043C265.118 598.417 263.892 599.419 262.518 599.28C260.147 599.04 257.776 598.78 255.405 598.503C252.903 598.603 250.207 598.639 247.345 598.607C245.964 598.591 244.857 597.46 244.873 596.08C244.888 594.699 246.021 593.592 247.401 593.608C250.263 593.64 252.937 593.603 255.396 593.501L255.594 593.494L255.79 593.516ZM215.238 591.08C220.816 591.835 226.202 592.414 231.295 592.828C232.671 592.939 233.696 594.146 233.585 595.522C233.473 596.898 232.266 597.923 230.89 597.811C225.707 597.391 220.232 596.802 214.567 596.035C213.199 595.849 212.24 594.589 212.426 593.221C212.611 591.853 213.87 590.894 215.238 591.08ZM408.096 589.296C409.461 589.091 410.734 590.031 410.939 591.396C411.145 592.761 410.205 594.035 408.84 594.241C404.017 594.967 399.175 595.649 394.316 596.283C392.947 596.461 391.692 595.496 391.513 594.126C391.335 592.758 392.301 591.503 393.67 591.325C398.495 590.695 403.305 590.018 408.096 589.296ZM180.451 586.988C180.774 585.645 182.124 584.818 183.467 585.141C188.766 586.416 194.059 587.537 199.276 588.51C200.633 588.764 201.528 590.069 201.275 591.426C201.022 592.784 199.716 593.678 198.359 593.425C193.062 592.437 187.684 591.298 182.297 590.002C180.954 589.679 180.128 588.33 180.451 586.988ZM436.83 584.425C438.187 584.171 439.493 585.064 439.748 586.421C440.003 587.778 439.11 589.084 437.753 589.339C432.965 590.239 428.154 591.1 423.32 591.92C421.959 592.151 420.667 591.236 420.436 589.875C420.205 588.513 421.122 587.223 422.483 586.992C427.287 586.177 432.07 585.319 436.83 584.425ZM465.391 578.575C466.739 578.277 468.073 579.127 468.372 580.475C468.67 581.823 467.82 583.158 466.471 583.457C461.722 584.508 456.943 585.528 452.138 586.513C450.785 586.791 449.464 585.919 449.186 584.566C448.909 583.213 449.78 581.892 451.133 581.615C455.912 580.635 460.666 579.62 465.391 578.575ZM149.388 577.211C149.877 575.92 151.32 575.27 152.611 575.758C157.589 577.641 162.701 579.361 167.879 580.926C169.2 581.326 169.948 582.721 169.549 584.042C169.149 585.364 167.754 586.112 166.432 585.712C161.156 584.118 155.936 582.361 150.843 580.435C149.551 579.947 148.9 578.503 149.388 577.211ZM493.771 571.863C495.11 571.527 496.469 572.34 496.805 573.679C497.142 575.018 496.328 576.376 494.989 576.712C490.279 577.895 485.534 579.053 480.756 580.184C479.412 580.502 478.065 579.671 477.747 578.328C477.429 576.984 478.261 575.637 479.604 575.319C484.359 574.194 489.083 573.04 493.771 571.863ZM120.338 562.576C121.071 561.406 122.614 561.052 123.784 561.786C128.17 564.536 132.875 567.093 137.819 569.462C139.064 570.059 139.591 571.552 138.994 572.797C138.397 574.042 136.904 574.568 135.659 573.971C130.568 571.531 125.694 568.885 121.128 566.022C119.958 565.288 119.604 563.745 120.338 562.576ZM521.972 564.409C523.303 564.04 524.68 564.82 525.049 566.15C525.417 567.48 524.638 568.858 523.307 569.227C518.638 570.521 513.925 571.798 509.173 573.055C507.838 573.408 506.47 572.612 506.117 571.278C505.764 569.943 506.56 568.574 507.894 568.221C512.627 566.969 517.32 565.697 521.972 564.409ZM323.488 549.133C324.776 548.636 326.224 549.278 326.721 550.566C328.563 555.337 330.327 560.04 332.007 564.637C332.48 565.934 331.813 567.369 330.516 567.843C329.22 568.317 327.784 567.65 327.31 566.353C325.641 561.783 323.887 557.108 322.056 552.366C321.559 551.078 322.2 549.631 323.488 549.133ZM550.014 556.326C551.337 555.931 552.73 556.683 553.125 558.005C553.52 559.328 552.768 560.721 551.445 561.117C546.811 562.501 542.126 563.878 537.393 565.244C536.067 565.626 534.682 564.861 534.299 563.535C533.916 562.208 534.681 560.822 536.008 560.439C540.725 559.078 545.395 557.706 550.014 556.326ZM577.937 547.732C579.254 547.316 580.658 548.046 581.074 549.363C581.49 550.679 580.759 552.083 579.443 552.5C574.844 553.952 570.182 555.409 565.462 556.863C564.142 557.269 562.743 556.529 562.337 555.209C561.93 553.89 562.671 552.49 563.99 552.083C568.698 550.634 573.348 549.181 577.937 547.732ZM97.0633 540.717C98.1641 539.884 99.7319 540.101 100.565 541.202C102.062 543.18 103.652 545.079 105.333 546.89C107.082 548.776 108.971 550.601 110.989 552.367C112.028 553.276 112.133 554.855 111.224 555.894C110.315 556.933 108.735 557.039 107.696 556.129C105.558 554.259 103.542 552.313 101.667 550.292C99.8703 548.355 98.1741 546.327 96.5789 544.22C95.7455 543.119 95.9624 541.551 97.0633 540.717ZM605.752 538.777C607.064 538.348 608.476 539.063 608.905 540.375C609.334 541.688 608.618 543.1 607.305 543.529C602.743 545.021 598.103 546.53 593.39 548.048C592.076 548.472 590.667 547.749 590.244 546.435C589.821 545.121 590.542 543.712 591.856 543.289C596.561 541.772 601.194 540.267 605.752 538.777ZM312.06 521.415C313.328 520.867 314.799 521.449 315.347 522.716C317.352 527.351 319.295 531.985 321.174 536.587C321.695 537.866 321.081 539.324 319.803 539.846C318.525 540.368 317.065 539.754 316.544 538.476C314.678 533.904 312.747 529.303 310.758 524.702C310.21 523.434 310.793 521.963 312.06 521.415ZM633.481 529.649C634.792 529.217 636.206 529.93 636.638 531.241C637.071 532.552 636.358 533.966 635.047 534.398C630.526 535.888 625.898 537.417 621.187 538.969C619.876 539.401 618.463 538.689 618.031 537.377C617.599 536.066 618.312 534.653 619.623 534.221C624.338 532.667 628.953 531.142 633.481 529.649ZM84.1092 513.035C85.4296 512.632 86.827 513.375 87.2303 514.696C88.6946 519.493 90.5356 524.138 92.743 528.556C93.3597 529.791 92.8587 531.293 91.6238 531.91C90.3887 532.527 88.8875 532.026 88.2703 530.791C85.9338 526.114 83.9907 521.209 82.448 516.156C82.045 514.835 82.7887 513.438 84.1092 513.035ZM661.332 520.576C662.647 520.156 664.054 520.882 664.473 522.197C664.893 523.512 664.167 524.919 662.851 525.338C658.352 526.774 653.722 528.274 648.966 529.827C647.653 530.255 646.242 529.539 645.813 528.226C645.385 526.914 646.101 525.502 647.414 525.074C652.177 523.518 656.819 522.016 661.332 520.576ZM689.388 511.892C690.701 511.463 692.112 512.179 692.542 513.491C692.971 514.803 692.255 516.215 690.943 516.644C688.539 517.431 686.127 518.182 683.709 518.897C681.441 519.567 679.128 520.263 676.771 520.983C675.451 521.386 674.054 520.643 673.65 519.323C673.247 518.002 673.99 516.605 675.31 516.202C677.68 515.478 680.007 514.777 682.291 514.102C684.663 513.401 687.029 512.664 689.388 511.892ZM299.398 494.237C300.637 493.627 302.136 494.136 302.746 495.375C304.956 499.859 307.115 504.401 309.218 508.971C309.795 510.225 309.245 511.71 307.991 512.288C306.737 512.865 305.252 512.315 304.675 511.061C302.589 506.529 300.449 502.027 298.261 497.584C297.65 496.346 298.16 494.847 299.398 494.237ZM717.185 501.132C718.447 500.57 719.924 501.138 720.486 502.399C721.048 503.66 720.482 505.138 719.221 505.7C714.576 507.769 709.913 509.717 705.227 511.535C703.94 512.034 702.492 511.396 701.993 510.109C701.494 508.822 702.132 507.373 703.419 506.874C708.025 505.087 712.613 503.17 717.185 501.132ZM80.5623 482.647C81.9429 482.662 83.0501 483.794 83.0349 485.174C82.98 490.174 83.3048 495.174 84.0017 500.102C84.1951 501.469 83.2437 502.734 81.8767 502.927C80.5096 503.121 79.2439 502.169 79.0506 500.802C78.3183 495.624 77.9772 490.372 78.0349 485.12C78.0501 483.739 79.1818 482.632 80.5623 482.647ZM743.915 487.801C745.125 487.136 746.645 487.577 747.31 488.787C747.976 489.996 747.534 491.517 746.324 492.182C741.868 494.633 737.4 496.982 732.918 499.222C731.683 499.839 730.181 499.338 729.563 498.103C728.946 496.868 729.448 495.367 730.682 494.75C735.103 492.54 739.513 490.222 743.915 487.801ZM285.135 467.871C286.328 467.177 287.858 467.581 288.553 468.774C291.043 473.054 293.487 477.46 295.881 481.958C296.529 483.177 296.067 484.692 294.848 485.34C293.63 485.989 292.115 485.526 291.467 484.307C289.1 479.86 286.686 475.509 284.23 471.289C283.536 470.095 283.941 468.565 285.135 467.871ZM769.638 472.487C770.802 471.744 772.348 472.085 773.091 473.249C773.834 474.412 773.493 475.958 772.329 476.701C768.043 479.437 763.753 482.09 759.455 484.653C758.269 485.36 756.735 484.971 756.028 483.786C755.321 482.6 755.708 481.065 756.894 480.358C761.146 477.823 765.393 475.198 769.638 472.487ZM83.2312 454.189C83.6754 452.882 85.0958 452.181 86.4031 452.625C87.7104 453.07 88.4097 454.49 87.9656 455.797C86.3673 460.502 85.1615 465.353 84.3416 470.279C84.1149 471.641 82.8266 472.561 81.4646 472.334C80.1027 472.108 79.1823 470.819 79.409 469.458C80.2719 464.273 81.5428 459.159 83.2312 454.189ZM794.445 455.724C795.571 454.924 797.132 455.189 797.931 456.314C798.731 457.439 798.467 459.001 797.342 459.8C793.211 462.736 789.08 465.604 784.949 468.399C783.805 469.172 782.252 468.872 781.478 467.729C780.705 466.585 781.004 465.031 782.147 464.257C786.245 461.485 790.343 458.639 794.445 455.724ZM268.549 442.915C269.658 442.093 271.224 442.325 272.046 443.434C274.964 447.371 277.838 451.541 280.661 455.899C281.411 457.058 281.08 458.606 279.922 459.357C278.763 460.108 277.214 459.777 276.464 458.618C273.691 454.337 270.878 450.254 268.029 446.412C267.207 445.302 267.439 443.737 268.549 442.915ZM818.545 437.893C819.64 437.053 821.21 437.26 822.051 438.356C822.891 439.452 822.683 441.021 821.588 441.861C817.569 444.943 813.555 447.971 809.546 450.941C808.436 451.763 806.87 451.529 806.049 450.419C805.227 449.31 805.461 447.745 806.57 446.923C810.556 443.972 814.546 440.959 818.545 437.893ZM98.4597 426.685C99.3417 425.623 100.918 425.476 101.98 426.358C103.043 427.24 103.188 428.816 102.306 429.878C99.1236 433.712 96.3427 437.83 93.9578 442.163C93.292 443.372 91.7719 443.813 90.5623 443.147C89.3529 442.481 88.9122 440.961 89.5779 439.751C92.1094 435.152 95.0671 430.771 98.4597 426.685ZM248.147 421.17C249.042 420.119 250.619 419.992 251.671 420.887C253.585 422.516 255.453 424.236 257.267 426.051C259.021 427.805 260.761 429.657 262.487 431.6C263.404 432.632 263.31 434.213 262.278 435.129C261.246 436.046 259.666 435.953 258.749 434.92C257.083 433.045 255.41 431.265 253.732 429.586C252.013 427.867 250.244 426.238 248.43 424.695C247.379 423.8 247.252 422.222 248.147 421.17ZM842.138 419.29C843.212 418.422 844.786 418.589 845.654 419.663C846.522 420.736 846.355 422.31 845.281 423.178C841.342 426.361 837.412 429.502 833.491 432.596C832.407 433.451 830.836 433.267 829.98 432.183C829.125 431.099 829.311 429.527 830.394 428.671C834.299 425.59 838.213 422.461 842.138 419.29ZM122.825 407.124C124.064 406.514 125.562 407.024 126.172 408.262C126.781 409.501 126.272 410.999 125.033 411.609C122.759 412.729 120.696 413.896 118.868 415.091C116.769 416.464 114.767 417.925 112.859 419.464C111.785 420.331 110.211 420.163 109.344 419.088C108.476 418.014 108.644 416.44 109.719 415.573C111.755 413.929 113.893 412.372 116.132 410.908C118.151 409.587 120.393 408.321 122.825 407.124ZM222.577 406.42C223.114 405.148 224.579 404.552 225.851 405.088C230.47 407.037 234.991 409.327 239.36 411.991C240.539 412.709 240.913 414.247 240.194 415.426C239.475 416.605 237.937 416.979 236.758 416.26C232.61 413.732 228.31 411.553 223.908 409.696C222.636 409.159 222.04 407.693 222.577 406.42ZM865.328 400.212C866.388 399.327 867.964 399.469 868.849 400.529C869.734 401.589 869.593 403.165 868.533 404.05C864.661 407.284 860.803 410.485 856.957 413.652C855.891 414.529 854.315 414.377 853.437 413.311C852.56 412.245 852.713 410.669 853.779 409.792C857.615 406.633 861.464 403.439 865.328 400.212ZM151.674 398.051C153.032 397.805 154.333 398.706 154.58 400.065C154.826 401.423 153.925 402.725 152.566 402.971C147.571 403.878 142.835 405.032 138.454 406.376C137.134 406.782 135.736 406.04 135.331 404.72C134.926 403.4 135.667 402.002 136.987 401.597C141.565 400.192 146.492 398.991 151.674 398.051ZM196.727 397.134C201.671 397.844 206.625 398.845 211.53 400.172C212.863 400.533 213.65 401.906 213.29 403.239C212.929 404.572 211.556 405.359 210.223 404.999C205.525 403.727 200.771 402.766 196.016 402.083C194.65 401.887 193.701 400.62 193.897 399.253C194.094 397.887 195.361 396.938 196.727 397.134ZM166.632 396.154C171.541 395.792 176.585 395.671 181.698 395.833C183.078 395.876 184.161 397.031 184.118 398.411C184.074 399.79 182.921 400.874 181.541 400.831C176.608 400.675 171.739 400.791 166.999 401.141C165.622 401.242 164.424 400.208 164.322 398.832C164.22 397.455 165.255 396.255 166.632 396.154ZM888.314 380.828C889.366 379.934 890.944 380.063 891.838 381.115C892.731 382.167 892.603 383.744 891.552 384.638C887.705 387.906 883.874 391.152 880.058 394.372C879.003 395.262 877.426 395.128 876.536 394.073C875.646 393.018 875.779 391.441 876.834 390.55C880.644 387.335 884.47 384.093 888.314 380.828ZM911.215 361.318C912.265 360.422 913.843 360.548 914.739 361.599C915.635 362.65 915.509 364.228 914.459 365.124C910.631 368.387 906.818 371.639 903.027 374.87C901.976 375.765 900.398 375.64 899.503 374.589C898.607 373.539 898.733 371.961 899.784 371.065C903.576 367.832 907.383 364.584 911.215 361.318ZM934.149 341.833C935.204 340.941 936.781 341.074 937.673 342.128C938.564 343.183 938.431 344.76 937.377 345.651C933.53 348.902 929.706 352.146 925.902 355.379C924.85 356.273 923.273 356.145 922.379 355.093C921.485 354.041 921.612 352.464 922.664 351.57C926.47 348.334 930.298 345.087 934.149 341.833ZM957.23 322.497C958.293 321.616 959.87 321.763 960.751 322.826C961.632 323.889 961.484 325.465 960.421 326.346C956.555 329.551 952.713 332.755 948.894 335.956C947.836 336.842 946.26 336.703 945.373 335.645C944.486 334.587 944.625 333.01 945.683 332.124C949.508 328.918 953.356 325.708 957.23 322.497ZM980.555 303.427C981.631 302.561 983.205 302.732 984.071 303.807C984.937 304.883 984.767 306.457 983.691 307.323C979.773 310.476 975.882 313.635 972.016 316.796C970.948 317.671 969.373 317.513 968.499 316.444C967.625 315.375 967.783 313.8 968.851 312.926C972.726 309.757 976.627 306.59 980.555 303.427ZM1004.19 284.753C1005.28 283.908 1006.85 284.108 1007.7 285.2C1008.54 286.291 1008.34 287.861 1007.25 288.707C1003.28 291.778 999.346 294.862 995.435 297.953C994.352 298.809 992.78 298.625 991.924 297.542C991.068 296.458 991.252 294.887 992.335 294.031C996.258 290.93 1000.21 287.836 1004.19 284.753ZM1028.25 266.554C1029.36 265.734 1030.92 265.97 1031.74 267.081C1032.56 268.191 1032.33 269.757 1031.22 270.577C1027.17 273.561 1023.16 276.562 1019.18 279.577C1018.08 280.41 1016.51 280.192 1015.67 279.091C1014.84 277.99 1015.06 276.422 1016.16 275.589C1020.16 272.563 1024.19 269.551 1028.25 266.554ZM1052.72 248.983C1053.86 248.193 1055.41 248.471 1056.2 249.603C1056.99 250.736 1056.72 252.294 1055.58 253.083C1051.47 255.953 1047.39 258.843 1043.33 261.752C1042.21 262.558 1040.65 262.302 1039.85 261.18C1039.04 260.059 1039.3 258.497 1040.42 257.692C1044.49 254.77 1048.59 251.866 1052.72 248.983ZM1077.72 232.104C1078.88 231.349 1080.43 231.675 1081.18 232.831C1081.94 233.987 1081.61 235.536 1080.46 236.291C1076.26 239.03 1072.1 241.795 1067.97 244.583C1066.82 245.356 1065.27 245.055 1064.5 243.911C1063.73 242.766 1064.03 241.213 1065.17 240.44C1069.32 237.637 1073.5 234.858 1077.72 232.104ZM1103.27 216.034C1104.45 215.319 1105.99 215.697 1106.7 216.878C1107.42 218.06 1107.04 219.597 1105.86 220.312C1101.56 222.911 1097.3 225.541 1093.08 228.199C1091.91 228.934 1090.37 228.583 1089.63 227.415C1088.9 226.246 1089.25 224.702 1090.42 223.966C1094.66 221.294 1098.95 218.648 1103.27 216.034ZM1129.35 200.892C1130.56 200.222 1132.08 200.656 1132.75 201.863C1133.42 203.07 1132.98 204.591 1131.78 205.262C1127.4 207.697 1123.05 210.167 1118.75 212.667C1117.55 213.361 1116.02 212.955 1115.33 211.761C1114.64 210.567 1115.04 209.037 1116.24 208.343C1120.57 205.827 1124.94 203.342 1129.35 200.892ZM1156.02 186.75C1157.25 186.127 1158.75 186.621 1159.38 187.854C1160 189.087 1159.5 190.59 1158.27 191.212C1153.8 193.47 1149.37 195.767 1144.97 198.098C1143.75 198.745 1142.24 198.281 1141.59 197.061C1140.94 195.841 1141.41 194.328 1142.63 193.681C1147.05 191.334 1151.52 189.023 1156.02 186.75Z" fill="url(#paint15_linear_2001_1330)"/>
<path d="M1904.49 375.844C1904.7 374.48 1905.98 373.55 1907.35 373.767C1908.71 373.983 1909.64 375.264 1909.42 376.628C1908.64 381.544 1907.32 386.537 1905.57 391.539C1905.11 392.842 1903.69 393.528 1902.38 393.072C1901.08 392.616 1900.39 391.19 1900.85 389.887C1902.52 385.118 1903.76 380.418 1904.49 375.844ZM1902.1 344.848C1903.33 344.221 1904.83 344.71 1905.46 345.94C1907.9 350.721 1909.33 355.801 1909.91 361.067C1910.07 362.439 1909.08 363.676 1907.71 363.829C1906.33 363.982 1905.1 362.993 1904.95 361.621C1904.42 356.9 1903.14 352.41 1901 348.211C1900.38 346.981 1900.87 345.475 1902.1 344.848ZM1879.8 325.562C1880.45 324.345 1881.96 323.887 1883.18 324.539C1888.15 327.2 1892.37 330.181 1895.89 333.445C1896.91 334.384 1896.97 335.966 1896.03 336.979C1895.09 337.991 1893.51 338.051 1892.5 337.113C1889.32 334.171 1885.46 331.43 1880.82 328.946C1879.6 328.294 1879.14 326.779 1879.8 325.562ZM1852.17 313.233C1852.87 312.048 1854.41 311.66 1855.59 312.368C1857.85 313.716 1860 315.067 1862.04 316.417C1864.47 317.075 1866.8 317.775 1869.03 318.521C1870.34 318.96 1871.04 320.378 1870.6 321.687C1870.16 322.996 1868.75 323.702 1867.44 323.263C1865.2 322.511 1862.84 321.801 1860.35 321.138L1859.96 321.031L1859.61 320.803C1857.55 319.429 1855.35 318.048 1853.03 316.661C1851.85 315.953 1851.46 314.419 1852.17 313.233ZM1824.03 298.847C1824.62 297.598 1826.11 297.062 1827.35 297.65C1832.33 299.993 1837.1 302.327 1841.61 304.653C1842.84 305.286 1843.32 306.794 1842.69 308.021C1842.05 309.248 1840.55 309.73 1839.32 309.098C1834.87 306.804 1830.16 304.497 1825.22 302.174C1823.97 301.585 1823.44 300.096 1824.03 298.847ZM1795.08 285.995C1795.63 284.727 1797.1 284.142 1798.36 284.688C1803.31 286.818 1808.16 288.935 1812.89 291.041C1814.15 291.603 1814.72 293.08 1814.16 294.342C1813.6 295.603 1812.12 296.17 1810.86 295.608C1806.15 293.513 1801.32 291.404 1796.39 289.28C1795.12 288.734 1794.53 287.263 1795.08 285.995ZM1765.94 273.608C1766.48 272.338 1767.94 271.744 1769.22 272.284C1774.11 274.361 1778.96 276.414 1783.79 278.463C1785.06 279.002 1785.65 280.47 1785.11 281.741C1784.57 283.012 1783.1 283.605 1781.83 283.065C1777.02 281.024 1772.14 278.959 1767.26 276.887C1765.99 276.347 1765.4 274.879 1765.94 273.608ZM1030.25 266.277C1031.36 265.458 1032.92 265.693 1033.74 266.804C1034.56 267.915 1034.33 269.48 1033.22 270.3C1029.17 273.284 1025.16 276.285 1021.18 279.3C1020.08 280.133 1018.51 279.915 1017.67 278.814C1016.84 277.714 1017.06 276.146 1018.16 275.312C1022.16 272.287 1026.19 269.274 1030.25 266.277ZM1736.88 261.015C1737.44 259.753 1738.92 259.183 1740.18 259.742C1744.97 261.867 1749.81 263.976 1754.67 266.068C1755.94 266.615 1756.52 268.086 1755.97 269.354C1755.43 270.621 1753.96 271.206 1752.69 270.66C1747.82 268.563 1742.96 266.448 1738.15 264.313C1736.89 263.754 1736.32 262.277 1736.88 261.015ZM1054.72 248.706C1055.86 247.916 1057.41 248.194 1058.2 249.326C1058.99 250.459 1058.72 252.017 1057.58 252.807C1053.47 255.676 1049.39 258.567 1045.33 261.476C1044.21 262.281 1042.65 262.025 1041.85 260.903C1041.04 259.782 1041.3 258.22 1042.42 257.415C1046.49 254.493 1050.59 251.589 1054.72 248.706ZM1708.21 247.579C1708.82 246.341 1710.31 245.831 1711.55 246.441C1716.19 248.727 1720.96 250.992 1725.8 253.237C1727.06 253.818 1727.6 255.304 1727.02 256.557C1726.44 257.809 1724.96 258.355 1723.7 257.774C1718.83 255.515 1714.03 253.233 1709.34 250.927C1708.1 250.317 1707.6 248.818 1708.21 247.579ZM1079.72 231.827C1080.88 231.073 1082.43 231.398 1083.18 232.554C1083.94 233.71 1083.61 235.259 1082.46 236.014C1078.26 238.753 1074.1 241.518 1069.97 244.307C1068.82 245.079 1067.27 244.778 1066.5 243.634C1065.73 242.49 1066.03 240.936 1067.17 240.163C1071.32 237.361 1075.5 234.581 1079.72 231.827ZM1680.43 232.39C1681.14 231.206 1682.67 230.821 1683.86 231.531C1688.2 234.139 1692.79 236.719 1697.56 239.273C1698.78 239.925 1699.24 241.44 1698.59 242.657C1697.94 243.875 1696.42 244.333 1695.2 243.682C1690.37 241.095 1685.71 238.475 1681.29 235.819C1680.1 235.109 1679.72 233.574 1680.43 232.39ZM1105.27 215.757C1106.45 215.042 1107.99 215.42 1108.7 216.602C1109.42 217.783 1109.04 219.32 1107.86 220.035C1103.56 222.635 1099.3 225.264 1095.08 227.922C1093.91 228.657 1092.37 228.306 1091.63 227.138C1090.9 225.969 1091.25 224.425 1092.42 223.689C1096.67 221.017 1100.95 218.372 1105.27 215.757ZM1655 213.637C1655.92 212.608 1657.5 212.521 1658.53 213.442C1662.13 216.675 1666.22 219.873 1670.72 223.039C1671.85 223.834 1672.12 225.393 1671.33 226.522C1670.53 227.651 1668.98 227.923 1667.85 227.129C1663.22 223.874 1658.97 220.554 1655.19 217.167C1654.16 216.246 1654.07 214.665 1655 213.637ZM1131.35 200.615C1132.56 199.945 1134.08 200.379 1134.75 201.586C1135.42 202.793 1134.98 204.315 1133.78 204.985C1129.4 207.42 1125.05 209.89 1120.75 212.391C1119.55 213.084 1118.02 212.678 1117.33 211.484C1116.64 210.29 1117.04 208.76 1118.24 208.066C1122.57 205.55 1126.94 203.065 1131.35 200.615ZM1638.67 187.168C1640.01 186.845 1641.36 187.671 1641.68 189.013C1642.75 193.427 1644.93 197.827 1648.14 202.223C1648.95 203.338 1648.71 204.901 1647.59 205.716C1646.48 206.53 1644.92 206.287 1644.1 205.172C1640.59 200.373 1638.07 195.379 1636.82 190.185C1636.5 188.842 1637.32 187.492 1638.67 187.168ZM1158.02 186.473C1159.25 185.85 1160.75 186.345 1161.38 187.577C1162 188.81 1161.5 190.313 1160.27 190.936C1155.8 193.193 1151.37 195.49 1146.97 197.821C1145.75 198.468 1144.24 198.004 1143.59 196.784C1142.94 195.565 1143.41 194.051 1144.63 193.404C1149.05 191.057 1153.52 188.746 1158.02 186.473ZM1185.26 173.424C1186.52 172.854 1188 173.411 1188.57 174.669C1189.14 175.927 1188.58 177.409 1187.33 177.979C1182.75 180.052 1178.21 182.167 1173.72 184.321C1172.47 184.918 1170.98 184.392 1170.38 183.147C1169.78 181.902 1170.31 180.409 1171.55 179.812C1176.08 177.643 1180.65 175.512 1185.26 173.424ZM1644.6 158.944C1645.29 157.752 1646.83 157.35 1648.02 158.046C1649.21 158.742 1649.61 160.274 1648.92 161.466C1647.67 163.602 1646.42 165.766 1645.17 167.959C1643.86 170.267 1642.87 172.526 1642.18 174.737C1641.77 176.055 1640.37 176.791 1639.05 176.381C1637.74 175.97 1637 174.568 1637.41 173.25C1638.22 170.667 1639.35 168.08 1640.83 165.486C1642.08 163.277 1643.34 161.096 1644.6 158.944ZM1766.21 167.276C1771.25 167.571 1776.21 167.73 1781.11 167.734C1782.49 167.736 1783.6 168.856 1783.6 170.236C1783.6 171.617 1782.48 172.736 1781.1 172.734C1776.1 172.73 1771.04 172.567 1765.91 172.268C1764.54 172.187 1763.48 171.004 1763.56 169.626C1763.65 168.248 1764.83 167.196 1766.21 167.276ZM1810.73 165.609C1812.09 165.4 1813.37 166.337 1813.58 167.701C1813.79 169.066 1812.85 170.342 1811.49 170.552C1806.47 171.321 1801.42 171.872 1796.32 172.228C1794.94 172.324 1793.75 171.284 1793.65 169.907C1793.55 168.53 1794.59 167.335 1795.97 167.239C1800.94 166.892 1805.86 166.356 1810.73 165.609ZM1213.82 162.379C1215.15 162.037 1216.51 162.845 1216.86 164.183C1217.2 165.52 1216.39 166.882 1215.05 167.224C1212.64 167.838 1210.23 168.464 1207.8 169.099C1205.53 170.039 1203.27 170.99 1201.02 171.951C1199.75 172.494 1198.28 171.903 1197.74 170.634C1197.2 169.364 1197.79 167.895 1199.05 167.353C1201.37 166.362 1203.7 165.382 1206.04 164.413L1206.2 164.348L1206.37 164.304C1208.86 163.651 1211.34 163.01 1213.82 162.379ZM1736.45 164.243C1741.48 164.939 1746.43 165.548 1751.31 166.054C1752.68 166.196 1753.68 167.425 1753.54 168.799C1753.4 170.172 1752.17 171.17 1750.8 171.027C1745.86 170.515 1740.85 169.899 1735.76 169.196C1734.39 169.007 1733.44 167.745 1733.63 166.378C1733.82 165.01 1735.08 164.054 1736.45 164.243ZM1839.44 158.436C1840.74 157.974 1842.17 158.656 1842.63 159.957C1843.09 161.258 1842.41 162.687 1841.11 163.148C1836.25 164.869 1831.38 166.329 1826.47 167.551C1825.13 167.884 1823.78 167.069 1823.44 165.729C1823.11 164.39 1823.92 163.033 1825.26 162.699C1830.02 161.515 1834.74 160.101 1839.44 158.436ZM1703.9 161.475C1704.15 160.116 1705.45 159.212 1706.81 159.456C1711.83 160.357 1716.76 161.209 1721.61 162C1722.98 162.222 1723.9 163.506 1723.68 164.869C1723.46 166.232 1722.17 167.156 1720.81 166.935C1715.92 166.139 1710.96 165.282 1705.92 164.377C1704.56 164.133 1703.66 162.833 1703.9 161.475ZM1243.05 155.29C1244.39 154.981 1245.73 155.822 1246.04 157.168C1246.35 158.514 1245.51 159.855 1244.17 160.164C1239.39 161.261 1234.57 162.398 1229.71 163.576C1228.36 163.902 1227.01 163.078 1226.69 161.736C1226.36 160.395 1227.18 159.043 1228.53 158.718C1233.41 157.534 1238.25 156.392 1243.05 155.29ZM1674.29 155.867C1674.55 154.512 1675.86 153.625 1677.22 153.887C1682.23 154.856 1687.16 155.803 1692.01 156.721C1693.37 156.977 1694.26 158.286 1694 159.643C1693.75 160.999 1692.44 161.89 1691.08 161.634C1686.22 160.715 1681.29 159.765 1676.27 158.796C1674.91 158.534 1674.03 157.223 1674.29 155.867ZM1866.07 145.913C1867.24 145.174 1868.79 145.52 1869.52 146.686C1870.26 147.852 1869.92 149.396 1868.75 150.136C1866.66 151.463 1864.46 152.731 1862.16 153.938C1859.86 155.144 1857.55 156.283 1855.25 157.358C1853.99 157.941 1852.51 157.4 1851.92 156.148C1851.34 154.897 1851.88 153.41 1853.13 152.826C1855.37 151.784 1857.61 150.679 1859.84 149.509C1862.02 148.365 1864.1 147.164 1866.07 145.913ZM1272.61 148.902C1273.97 148.629 1275.28 149.504 1275.56 150.857C1275.83 152.211 1274.96 153.53 1273.6 153.804C1268.78 154.779 1263.92 155.796 1259.02 156.855C1257.67 157.147 1256.34 156.289 1256.04 154.939C1255.75 153.59 1256.61 152.259 1257.96 151.968C1262.89 150.904 1267.77 149.882 1272.61 148.902ZM1659.95 134.039C1660.71 132.882 1662.25 132.556 1663.41 133.31C1664.57 134.064 1664.89 135.613 1664.14 136.77C1661.56 140.725 1658.98 144.798 1656.4 148.991C1656.21 149.297 1655.96 149.547 1655.68 149.738C1657.94 150.168 1660.18 150.598 1662.4 151.025C1663.76 151.286 1664.65 152.597 1664.38 153.952C1664.12 155.308 1662.81 156.196 1661.46 155.936C1656.59 155 1651.65 154.056 1646.63 153.113C1645.27 152.859 1644.38 151.551 1644.63 150.194C1644.88 148.838 1646.19 147.944 1647.55 148.198C1649.11 148.491 1650.66 148.786 1652.2 149.078C1651.67 148.289 1651.61 147.232 1652.14 146.369C1654.75 142.14 1657.35 138.031 1659.95 134.039ZM1302.34 143.308C1303.7 143.071 1305 143.982 1305.23 145.343C1305.47 146.703 1304.56 147.997 1303.2 148.233C1298.33 149.079 1293.42 149.969 1288.46 150.902C1287.1 151.158 1285.8 150.264 1285.54 148.907C1285.28 147.55 1286.18 146.244 1287.54 145.988C1292.52 145.051 1297.45 144.158 1302.34 143.308ZM1615.04 144.932C1615.27 143.57 1616.57 142.654 1617.93 142.885C1622.95 143.736 1627.89 144.603 1632.76 145.478C1634.12 145.722 1635.02 147.022 1634.78 148.381C1634.53 149.74 1633.23 150.643 1631.87 150.398C1627.02 149.526 1622.1 148.663 1617.09 147.814C1615.73 147.584 1614.81 146.293 1615.04 144.932ZM1332.19 138.562C1333.56 138.365 1334.83 139.314 1335.02 140.681C1335.22 142.047 1334.27 143.314 1332.9 143.511C1328 144.216 1323.05 144.966 1318.05 145.762C1316.68 145.979 1315.4 145.049 1315.19 143.686C1314.97 142.322 1315.9 141.041 1317.26 140.824C1322.29 140.025 1327.27 139.271 1332.19 138.562ZM1588.05 138.2C1593.13 138.926 1598.12 139.678 1603.03 140.45C1604.4 140.665 1605.33 141.944 1605.11 143.308C1604.9 144.671 1603.62 145.603 1602.25 145.389C1597.36 144.62 1592.39 143.872 1587.35 143.15C1585.98 142.955 1585.03 141.688 1585.23 140.321C1585.42 138.954 1586.69 138.005 1588.05 138.2ZM1886.37 126.737C1887.16 125.599 1888.71 125.31 1889.85 126.092C1890.99 126.873 1891.28 128.429 1890.5 129.567C1887.73 133.596 1884.44 137.434 1880.6 141.019C1879.59 141.961 1878.01 141.908 1877.07 140.899C1876.13 139.891 1876.18 138.309 1877.19 137.366C1880.77 134.024 1883.82 130.461 1886.37 126.737ZM1362.15 134.715C1363.53 134.56 1364.76 135.547 1364.92 136.919C1365.07 138.291 1364.09 139.528 1362.71 139.683C1357.79 140.238 1352.81 140.838 1347.78 141.484C1346.41 141.66 1345.16 140.693 1344.98 139.323C1344.81 137.954 1345.77 136.702 1347.14 136.525C1352.2 135.876 1357.2 135.273 1362.15 134.715ZM1558.14 134.381C1563.2 134.946 1568.18 135.545 1573.08 136.172C1574.45 136.347 1575.42 137.599 1575.25 138.969C1575.07 140.338 1573.82 141.306 1572.45 141.131C1567.57 140.507 1562.61 139.911 1557.59 139.35C1556.21 139.196 1555.23 137.96 1555.38 136.588C1555.53 135.216 1556.77 134.228 1558.14 134.381ZM1392.21 131.814C1393.59 131.704 1394.79 132.73 1394.9 134.106C1395.01 135.483 1393.99 136.688 1392.61 136.798C1387.68 137.193 1382.69 137.634 1377.64 138.121C1376.27 138.254 1375.04 137.247 1374.91 135.873C1374.78 134.499 1375.79 133.276 1377.16 133.144C1382.23 132.654 1387.25 132.212 1392.21 131.814ZM1527.98 131.524C1533.09 131.92 1538.13 132.355 1543.1 132.826C1544.47 132.957 1545.48 134.176 1545.35 135.551C1545.22 136.925 1544 137.934 1542.62 137.804C1537.69 137.335 1532.68 136.902 1527.6 136.509C1526.22 136.402 1525.19 135.201 1525.3 133.824C1525.4 132.448 1526.6 131.418 1527.98 131.524ZM1422.33 129.907C1423.71 129.843 1424.88 130.91 1424.95 132.289C1425.01 133.668 1423.95 134.838 1422.57 134.902C1417.64 135.131 1412.65 135.403 1407.61 135.723C1406.23 135.81 1405.04 134.764 1404.95 133.386C1404.87 132.008 1405.91 130.82 1407.29 130.732C1412.36 130.411 1417.38 130.137 1422.33 129.907ZM1497.87 129.725C1502.98 129.939 1508.02 130.197 1512.99 130.495C1514.37 130.578 1515.42 131.762 1515.34 133.14C1515.26 134.518 1514.07 135.569 1512.7 135.486C1507.75 135.19 1502.74 134.933 1497.66 134.72C1496.28 134.662 1495.21 133.497 1495.27 132.117C1495.33 130.738 1496.49 129.667 1497.87 129.725ZM1452.48 129.034C1453.86 129.018 1454.99 130.125 1455.01 131.506C1455.02 132.886 1453.92 134.018 1452.54 134.034C1447.63 134.091 1442.66 134.191 1437.63 134.336C1436.25 134.376 1435.1 133.289 1435.06 131.909C1435.02 130.529 1436.11 129.378 1437.49 129.338C1442.55 129.192 1447.54 129.091 1452.48 129.034ZM1467.71 128.995C1472.78 129.027 1477.8 129.105 1482.75 129.225C1484.13 129.258 1485.22 130.404 1485.19 131.784C1485.16 133.164 1484.01 134.256 1482.63 134.223C1477.71 134.104 1472.72 134.027 1467.67 133.995C1466.29 133.986 1465.18 132.86 1465.19 131.479C1465.2 130.099 1466.32 128.986 1467.71 128.995ZM1676.66 109.932C1677.48 108.821 1679.05 108.586 1680.16 109.407C1681.27 110.228 1681.5 111.794 1680.68 112.904C1677.88 116.701 1675.06 120.632 1672.25 124.702C1671.46 125.837 1669.9 126.12 1668.77 125.334C1667.63 124.548 1667.35 122.991 1668.13 121.855C1670.98 117.744 1673.82 113.77 1676.66 109.932ZM1899.14 98.7217C1900.5 98.9041 1901.47 100.162 1901.28 101.53C1900.62 106.502 1899.39 111.422 1897.55 116.203C1897.05 117.491 1895.6 118.134 1894.31 117.638C1893.03 117.142 1892.38 115.695 1892.88 114.406C1894.58 110 1895.72 105.462 1896.33 100.869C1896.51 99.5006 1897.77 98.5394 1899.14 98.7217ZM1694.94 86.9395C1695.84 85.8918 1697.42 85.7708 1698.46 86.6699C1699.51 87.5691 1699.63 89.1476 1698.73 90.1953C1695.65 93.7914 1692.55 97.5466 1689.44 101.465C1688.58 102.546 1687.01 102.727 1685.93 101.869C1684.85 101.011 1684.67 99.4391 1685.52 98.3574C1688.67 94.3904 1691.81 90.5857 1694.94 86.9395ZM1895.54 69.9746C1896.86 69.5706 1898.26 70.3128 1898.67 71.6328C1900.15 76.4722 1901.13 81.43 1901.58 86.4219C1901.71 87.7968 1900.7 89.0123 1899.32 89.1367C1897.95 89.2611 1896.73 88.247 1896.61 86.8721C1896.19 82.2343 1895.27 77.616 1893.88 73.0967C1893.48 71.7766 1894.22 70.3788 1895.54 69.9746ZM1714.97 65.5615C1715.96 64.6001 1717.54 64.6238 1718.51 65.6143C1719.47 66.605 1719.44 68.1878 1718.45 69.1494C1715.08 72.425 1711.68 75.8863 1708.27 79.5391C1707.33 80.5477 1705.75 80.6015 1704.74 79.6592C1703.73 78.7165 1703.67 77.1338 1704.62 76.125C1708.08 72.4149 1711.54 68.8956 1714.97 65.5615ZM1881.04 44.835C1882.12 43.9681 1883.69 44.1365 1884.56 45.2109C1887.74 49.1535 1890.52 53.3546 1892.87 57.7393C1893.52 58.9564 1893.06 60.4722 1891.85 61.124C1890.63 61.7758 1889.11 61.3168 1888.46 60.0996C1886.26 55.991 1883.65 52.0509 1880.67 48.3506C1879.8 47.276 1879.97 45.7019 1881.04 44.835ZM1737.21 46.2891C1738.31 45.4511 1739.88 45.6614 1740.72 46.7588C1741.56 47.8562 1741.35 49.4248 1740.25 50.2627C1736.57 53.0691 1732.86 56.0921 1729.12 59.3398C1728.08 60.2451 1726.5 60.1342 1725.6 59.0918C1724.69 58.0493 1724.8 56.4698 1725.85 55.5645C1729.66 52.2505 1733.45 49.1614 1737.21 46.2891ZM1761.86 30.2305C1763.08 29.5746 1764.59 30.0283 1765.25 31.2432C1765.91 32.458 1765.45 33.974 1764.24 34.6299C1760.18 36.8185 1756.07 39.269 1751.91 41.9941C1750.76 42.7503 1749.21 42.4265 1748.45 41.2715C1747.69 40.1163 1748.02 38.5668 1749.17 37.8105C1753.45 35.0112 1757.68 32.4886 1761.86 30.2305ZM1858.41 26.6777C1859.1 25.4824 1860.63 25.0725 1861.82 25.7627C1866.23 28.3072 1870.33 31.2205 1874.09 34.4355C1875.14 35.3328 1875.26 36.9106 1874.36 37.96C1873.46 39.0093 1871.89 39.1327 1870.84 38.2354C1867.31 35.2171 1863.46 32.483 1859.32 30.0938C1858.13 29.4034 1857.72 27.8735 1858.41 26.6777ZM1789.25 18.8545C1790.57 18.4704 1791.96 19.2344 1792.34 20.5605C1792.73 21.8867 1791.96 23.2731 1790.64 23.6572C1786.25 24.9294 1781.76 26.5114 1777.18 28.4258C1775.91 28.9585 1774.45 28.3575 1773.91 27.084C1773.38 25.8104 1773.98 24.3465 1775.25 23.8135C1780 21.828 1784.67 20.1816 1789.25 18.8545ZM1830.8 17.7773C1831.03 16.4157 1832.32 15.4962 1833.68 15.7236C1838.73 16.5679 1843.57 17.8332 1848.17 19.4678C1849.47 19.9302 1850.15 21.3593 1849.69 22.6602C1849.23 23.9611 1847.8 24.6407 1846.5 24.1787C1842.18 22.6422 1837.62 21.4512 1832.85 20.6553C1831.49 20.4277 1830.57 19.1391 1830.8 17.7773ZM1818.74 14.5C1820.12 14.5005 1821.24 15.6204 1821.24 17.001C1821.24 18.3813 1820.12 19.5 1818.74 19.5C1814.15 19.4991 1809.42 19.8486 1804.54 20.5859C1803.17 20.7922 1801.9 19.8533 1801.69 18.4883C1801.48 17.1231 1802.42 15.8489 1803.79 15.6426C1808.91 14.8686 1813.9 14.4991 1818.74 14.5Z" fill="url(#paint16_linear_2001_1330)"/>
<path d="M1605.73 662.074C1604.89 660.983 1603.32 660.783 1602.23 661.628C1598.12 664.806 1594.12 667.899 1590.22 670.893C1589.13 671.735 1588.92 673.305 1589.77 674.399C1590.61 675.494 1592.18 675.698 1593.27 674.856C1597.17 671.859 1601.18 668.762 1605.29 665.581C1606.38 664.736 1606.58 663.166 1605.73 662.074Z" fill="url(#paint17_linear_2001_1330)"/>
<path d="M1629.61 643.475C1628.76 642.388 1627.19 642.196 1626.11 643.046C1622.07 646.199 1618.1 649.3 1614.19 652.342C1613.1 653.19 1612.9 654.761 1613.75 655.85C1614.6 656.94 1616.17 657.136 1617.26 656.288C1621.17 653.244 1625.15 650.139 1629.18 646.984C1630.27 646.134 1630.46 644.563 1629.61 643.475Z" fill="url(#paint18_linear_2001_1330)"/>
<path d="M1655.43 624.778C1654.58 623.693 1653.01 623.506 1651.92 624.36C1647.92 627.51 1643.95 630.631 1640.02 633.715C1638.93 634.567 1638.74 636.139 1639.59 637.225C1640.45 638.312 1642.02 638.501 1643.1 637.648C1647.04 634.562 1651.01 631.44 1655.01 628.289C1656.1 627.435 1656.29 625.863 1655.43 624.778Z" fill="url(#paint19_linear_2001_1330)"/>
<path d="M1679.2 606.006C1678.34 604.923 1676.77 604.741 1675.69 605.598C1671.72 608.741 1667.76 611.873 1663.81 614.986C1662.73 615.842 1662.54 617.414 1663.4 618.498C1664.25 619.581 1665.83 619.766 1666.91 618.911C1670.86 615.796 1674.82 612.662 1678.79 609.517C1679.87 608.661 1680.06 607.088 1679.2 606.006Z" fill="url(#paint20_linear_2001_1330)"/>
<path d="M1702.92 587.183C1702.06 586.103 1700.48 585.924 1699.4 586.783C1695.46 589.918 1691.51 593.058 1687.55 596.195C1686.47 597.053 1686.29 598.626 1687.15 599.708C1688.01 600.789 1689.58 600.97 1690.66 600.112C1694.62 596.974 1698.57 593.833 1702.52 590.697C1703.6 589.838 1703.78 588.264 1702.92 587.183Z" fill="url(#paint21_linear_2001_1330)"/>
<path d="M1726.6 568.306C1725.74 567.227 1724.17 567.051 1723.09 567.912C1719.17 571.04 1715.22 574.191 1711.25 577.354C1710.17 578.215 1709.99 579.788 1710.85 580.868C1711.71 581.948 1713.28 582.126 1714.36 581.266C1718.34 578.101 1722.29 574.949 1726.21 571.819C1727.29 570.958 1727.46 569.384 1726.6 568.306Z" fill="url(#paint22_linear_2001_1330)"/>
<path d="M1750.25 549.379C1749.39 548.301 1747.82 548.128 1746.74 548.991C1742.85 552.107 1738.91 555.266 1734.92 558.457C1733.84 559.319 1733.67 560.893 1734.53 561.971C1735.39 563.049 1736.96 563.224 1738.04 562.361C1742.03 559.169 1745.98 556.01 1749.87 552.892C1750.94 552.029 1751.12 550.456 1750.25 549.379Z" fill="url(#paint23_linear_2001_1330)"/>
<path d="M1773.83 530.434C1772.97 529.359 1771.39 529.189 1770.32 530.055C1766.48 533.144 1762.55 536.303 1758.54 539.52C1757.47 540.385 1757.29 541.959 1758.16 543.035C1759.02 544.112 1760.6 544.283 1761.67 543.419C1765.68 540.2 1769.61 537.041 1773.45 533.95C1774.53 533.084 1774.7 531.51 1773.83 530.434Z" fill="url(#paint24_linear_2001_1330)"/>
<path d="M1797.43 511.388C1796.56 510.314 1794.99 510.148 1793.92 511.016C1790.13 514.077 1786.19 517.258 1782.13 520.539C1781.05 521.406 1780.88 522.98 1781.75 524.055C1782.62 525.129 1784.19 525.297 1785.26 524.431C1789.33 521.148 1793.27 517.967 1797.06 514.903C1798.13 514.035 1798.3 512.461 1797.43 511.388Z" fill="url(#paint25_linear_2001_1330)"/>
<path d="M1820.93 492.31C1820.05 491.24 1818.48 491.079 1817.41 491.951C1813.76 494.921 1809.83 498.118 1805.64 501.516C1804.57 502.385 1804.41 503.96 1805.28 505.032C1806.15 506.104 1807.72 506.268 1808.79 505.398C1812.98 501.999 1816.92 498.799 1820.57 495.827C1821.64 494.955 1821.8 493.381 1820.93 492.31Z" fill="url(#paint26_linear_2001_1330)"/>
<path d="M1843.98 473.016C1843.05 471.99 1841.47 471.906 1840.45 472.829C1838.5 474.583 1836.64 476.183 1834.91 477.614C1833.16 479.056 1831.23 480.645 1829.13 482.371C1828.06 483.247 1827.91 484.822 1828.78 485.89C1829.66 486.957 1831.23 487.112 1832.3 486.236C1834.41 484.507 1836.34 482.915 1838.09 481.47C1839.88 479.989 1841.79 478.342 1843.79 476.547C1844.82 475.624 1844.9 474.043 1843.98 473.016Z" fill="url(#paint27_linear_2001_1330)"/>
<path d="M1864.83 451.541C1863.8 450.623 1862.22 450.714 1861.3 451.745C1857.88 455.591 1854.47 459.217 1851.17 462.564C1850.2 463.547 1850.21 465.13 1851.19 466.1C1852.17 467.069 1853.76 467.058 1854.72 466.075C1858.08 462.668 1861.55 458.981 1865.03 455.07C1865.95 454.039 1865.86 452.459 1864.83 451.541Z" fill="url(#paint28_linear_2001_1330)"/>
<path d="M1883.31 428.004C1882.19 427.204 1880.62 427.467 1879.82 428.593C1876.95 432.641 1873.94 436.596 1870.88 440.414C1870.02 441.491 1870.19 443.065 1871.27 443.929C1872.35 444.792 1873.92 444.619 1874.78 443.542C1877.9 439.655 1880.96 435.623 1883.9 431.49C1884.7 430.365 1884.44 428.804 1883.31 428.004Z" fill="url(#paint29_linear_2001_1330)"/>
<path d="M1898.47 402.241C1897.24 401.629 1895.74 402.137 1895.12 403.374C1892.99 407.688 1890.59 411.999 1887.98 416.26C1887.26 417.438 1887.64 418.976 1888.81 419.696C1889.99 420.416 1891.53 420.044 1892.25 418.866C1894.92 414.495 1897.4 410.055 1899.61 405.591C1900.22 404.353 1899.71 402.853 1898.47 402.241Z" fill="url(#paint30_linear_2001_1330)"/>
</g>
</g>
<defs>
<linearGradient id="paint0_linear_2001_1330" x1="247.5" y1="413.305" x2="309.5" y2="746.805" gradientUnits="userSpaceOnUse">
<stop stop-color="#162661"/>
</linearGradient>
<linearGradient id="paint1_linear_2001_1330" x1="247.5" y1="413.305" x2="309.5" y2="746.805" gradientUnits="userSpaceOnUse">
<stop stop-color="#162661"/>
</linearGradient>
<linearGradient id="paint2_linear_2001_1330" x1="247.5" y1="413.305" x2="309.5" y2="746.805" gradientUnits="userSpaceOnUse">
<stop stop-color="#162661"/>
</linearGradient>
<linearGradient id="paint3_linear_2001_1330" x1="247.5" y1="413.305" x2="309.5" y2="746.805" gradientUnits="userSpaceOnUse">
<stop stop-color="#162661"/>
</linearGradient>
<linearGradient id="paint4_linear_2001_1330" x1="247.5" y1="413.305" x2="309.5" y2="746.805" gradientUnits="userSpaceOnUse">
<stop stop-color="#162661"/>
</linearGradient>
<linearGradient id="paint5_linear_2001_1330" x1="247.5" y1="413.305" x2="309.5" y2="746.805" gradientUnits="userSpaceOnUse">
<stop stop-color="#162661"/>
</linearGradient>
<linearGradient id="paint6_linear_2001_1330" x1="247.5" y1="413.305" x2="309.5" y2="746.805" gradientUnits="userSpaceOnUse">
<stop stop-color="#162661"/>
</linearGradient>
<linearGradient id="paint7_linear_2001_1330" x1="247.5" y1="413.305" x2="309.5" y2="746.805" gradientUnits="userSpaceOnUse">
<stop stop-color="#162661"/>
</linearGradient>
<linearGradient id="paint8_linear_2001_1330" x1="247.5" y1="413.305" x2="309.5" y2="746.805" gradientUnits="userSpaceOnUse">
<stop stop-color="#162661"/>
</linearGradient>
<linearGradient id="paint9_linear_2001_1330" x1="247.5" y1="413.305" x2="309.5" y2="746.805" gradientUnits="userSpaceOnUse">
<stop stop-color="#162661"/>
</linearGradient>
<linearGradient id="paint10_linear_2001_1330" x1="247.5" y1="413.305" x2="309.5" y2="746.805" gradientUnits="userSpaceOnUse">
<stop stop-color="#162661"/>
</linearGradient>
<linearGradient id="paint11_linear_2001_1330" x1="247.5" y1="413.305" x2="309.5" y2="746.805" gradientUnits="userSpaceOnUse">
<stop stop-color="#162661"/>
</linearGradient>
<linearGradient id="paint12_linear_2001_1330" x1="247.5" y1="413.305" x2="309.5" y2="746.805" gradientUnits="userSpaceOnUse">
<stop stop-color="#162661"/>
</linearGradient>
<linearGradient id="paint13_linear_2001_1330" x1="247.5" y1="413.305" x2="309.5" y2="746.805" gradientUnits="userSpaceOnUse">
<stop stop-color="#162661"/>
</linearGradient>
<linearGradient id="paint14_linear_2001_1330" x1="247.5" y1="413.305" x2="309.5" y2="746.805" gradientUnits="userSpaceOnUse">
<stop stop-color="#162661"/>
</linearGradient>
<linearGradient id="paint15_linear_2001_1330" x1="211" y1="338.5" x2="632.5" y2="547.5" gradientUnits="userSpaceOnUse">
<stop stop-color="#162661"/>
<stop offset="1" stop-color="white"/>
</linearGradient>
<linearGradient id="paint16_linear_2001_1330" x1="1949" y1="54.5" x2="1033" y2="273.5" gradientUnits="userSpaceOnUse">
<stop stop-color="#162661"/>
<stop offset="1" stop-color="white"/>
</linearGradient>
<linearGradient id="paint17_linear_2001_1330" x1="1949" y1="54.5" x2="1033" y2="273.5" gradientUnits="userSpaceOnUse">
<stop stop-color="#162661"/>
</linearGradient>
<linearGradient id="paint18_linear_2001_1330" x1="1949" y1="54.5" x2="1033" y2="273.5" gradientUnits="userSpaceOnUse">
<stop stop-color="#162661"/>
</linearGradient>
<linearGradient id="paint19_linear_2001_1330" x1="1949" y1="54.5" x2="1033" y2="273.5" gradientUnits="userSpaceOnUse">
<stop stop-color="#162661"/>
</linearGradient>
<linearGradient id="paint20_linear_2001_1330" x1="1949" y1="54.5" x2="1033" y2="273.5" gradientUnits="userSpaceOnUse">
<stop stop-color="#162661"/>
</linearGradient>
<linearGradient id="paint21_linear_2001_1330" x1="1949" y1="54.5" x2="1033" y2="273.5" gradientUnits="userSpaceOnUse">
<stop stop-color="#162661"/>
</linearGradient>
<linearGradient id="paint22_linear_2001_1330" x1="1949" y1="54.5" x2="1033" y2="273.5" gradientUnits="userSpaceOnUse">
<stop stop-color="#162661"/>
</linearGradient>
<linearGradient id="paint23_linear_2001_1330" x1="1949" y1="54.5" x2="1033" y2="273.5" gradientUnits="userSpaceOnUse">
<stop stop-color="#162661"/>
</linearGradient>
<linearGradient id="paint24_linear_2001_1330" x1="1949" y1="54.5" x2="1033" y2="273.5" gradientUnits="userSpaceOnUse">
<stop stop-color="#162661"/>
</linearGradient>
<linearGradient id="paint25_linear_2001_1330" x1="1949" y1="54.5" x2="1033" y2="273.5" gradientUnits="userSpaceOnUse">
<stop stop-color="#162661"/>
</linearGradient>
<linearGradient id="paint26_linear_2001_1330" x1="1949" y1="54.5" x2="1033" y2="273.5" gradientUnits="userSpaceOnUse">
<stop stop-color="#162661"/>
</linearGradient>
<linearGradient id="paint27_linear_2001_1330" x1="1949" y1="54.5" x2="1033" y2="273.5" gradientUnits="userSpaceOnUse">
<stop stop-color="#162661"/>
</linearGradient>
<linearGradient id="paint28_linear_2001_1330" x1="1949" y1="54.5" x2="1033" y2="273.5" gradientUnits="userSpaceOnUse">
<stop stop-color="#162661"/>
</linearGradient>
<linearGradient id="paint29_linear_2001_1330" x1="1949" y1="54.5" x2="1033" y2="273.5" gradientUnits="userSpaceOnUse">
<stop stop-color="#162661"/>
</linearGradient>
<linearGradient id="paint30_linear_2001_1330" x1="1949" y1="54.5" x2="1033" y2="273.5" gradientUnits="userSpaceOnUse">
<stop stop-color="#162661"/>
</linearGradient>
<clipPath id="clip0_2001_1330">
<rect width="2070" height="1580" fill="white"/>
</clipPath>
<clipPath id="clip1_2001_1330">
<rect width="1920" height="650" fill="white" transform="translate(69)"/>
</clipPath>
</defs>
</svg>
