<svg width="21" height="22" viewBox="0 0 21 22" fill="none" xmlns="http://www.w3.org/2000/svg">
<path d="M10.5 1.93831C13.3035 1.93831 13.6355 1.94916 14.7428 2.00101C15.7665 2.04885 16.3225 2.22411 16.6925 2.37123C17.1826 2.56619 17.5322 2.79933 17.8998 3.17598C18.2671 3.55222 18.4947 3.91078 18.6854 4.41284C18.829 4.7919 19.0001 5.3615 19.0467 6.41024C19.0974 7.5446 19.108 7.88467 19.108 10.7568C19.108 13.6288 19.0974 13.9689 19.0467 15.1033C19.0001 16.152 18.829 16.7216 18.6854 17.1007C18.4951 17.6027 18.2675 17.9609 17.8998 18.3375C17.5326 18.7138 17.1826 18.9469 16.6925 19.1423C16.3225 19.2894 15.7665 19.4647 14.7428 19.5125C13.6359 19.5644 13.3039 19.5752 10.5 19.5752C7.69608 19.5752 7.36413 19.5644 6.25723 19.5125C5.23352 19.4647 4.67752 19.2894 4.30751 19.1423C3.81743 18.9473 3.46783 18.7142 3.10017 18.3375C2.7329 17.9613 2.50532 17.6027 2.31463 17.1007C2.17102 16.7216 1.99994 16.152 1.95325 15.1033C1.90263 13.9689 1.89204 13.6288 1.89204 10.7568C1.89204 7.88467 1.90263 7.5446 1.95325 6.41024C1.99994 5.3615 2.17102 4.7919 2.31463 4.41284C2.50493 3.91078 2.73251 3.55262 3.10017 3.17598C3.46783 2.79933 3.81743 2.56659 4.30751 2.37123C4.67752 2.22411 5.23352 2.04885 6.25723 2.00101C7.36452 1.94916 7.69647 1.93831 10.5 1.93831ZM10.5 0C7.6486 0 7.29075 0.0124611 6.17091 0.0647174C5.05342 0.116974 4.29025 0.298665 3.62203 0.56477C2.93145 0.839719 2.34602 1.20752 1.76216 1.80525C1.17831 2.40339 0.819282 3.00313 0.551289 3.7106C0.291928 4.39475 0.114182 5.17659 0.0631726 6.32181C0.0121637 7.46903 0 7.83523 0 10.7568C0 13.6783 0.0121637 14.0445 0.0631726 15.1917C0.114182 16.3365 0.291536 17.1184 0.551289 17.8029C0.819675 18.5104 1.1787 19.1101 1.76216 19.7083C2.34602 20.3064 2.93145 20.6742 3.62203 20.9487C4.28985 21.2145 5.05303 21.3965 6.17091 21.4488C7.29075 21.5011 7.64821 21.5135 10.5 21.5135C13.3518 21.5135 13.7092 21.5011 14.8291 21.4488C15.9466 21.3965 16.7098 21.2149 17.378 20.9487C18.0686 20.6738 18.654 20.306 19.2378 19.7083C19.8217 19.1101 20.1807 18.5104 20.4487 17.8029C20.7081 17.1188 20.8858 16.3369 20.9368 15.1917C20.9878 14.0445 21 13.6783 21 10.7568C21 7.83523 20.9878 7.46903 20.9368 6.32181C20.8858 5.17699 20.7085 4.39516 20.4487 3.7106C20.1803 3.00313 19.8213 2.40339 19.2378 1.80525C18.654 1.20712 18.0686 0.839317 17.378 0.56477C16.7101 0.299067 15.947 0.116974 14.8291 0.0647174C13.7092 0.0124611 13.3518 0 10.5 0Z" fill="#FFF3E8"/>
<path d="M10.5 5.23242C7.52224 5.23242 5.10834 7.70535 5.10834 10.7559C5.10834 13.8065 7.52224 16.2794 10.5 16.2794C13.4777 16.2794 15.8916 13.8065 15.8916 10.7559C15.8916 7.70535 13.4777 5.23242 10.5 5.23242ZM10.5 14.3415C8.56714 14.3415 6.99999 12.736 6.99999 10.7559C6.99999 8.7758 8.56714 7.17033 10.5 7.17033C12.4328 7.17033 14 8.7758 14 10.7559C14 12.736 12.4328 14.3415 10.5 14.3415Z" fill="#FFF3E8"/>
<path d="M16.9958 5.92711C17.4877 5.42317 17.4877 4.60613 16.9958 4.10219C16.5039 3.59825 15.7063 3.59825 15.2144 4.10219C14.7225 4.60613 14.7225 5.42317 15.2144 5.92711C15.7063 6.43105 16.5039 6.43105 16.9958 5.92711Z" fill="#FFF3E8"/>
</svg>
