<svg width="1841" height="636" viewBox="0 0 1841 636" fill="none" xmlns="http://www.w3.org/2000/svg">
<path d="M-35.2785 1083.42C-32.8511 1083.47 -30.4244 1083.5 -28.0002 1083.5C-25.5146 1083.5 -22.9919 1083.49 -20.4328 1083.47C-19.0522 1083.46 -17.9242 1084.57 -17.9133 1085.95C-17.9026 1087.33 -19.0132 1088.46 -20.3938 1088.47C-22.9698 1088.49 -25.5061 1088.5 -28.0002 1088.5C-30.4599 1088.5 -32.9204 1088.47 -35.3801 1088.42C-36.7605 1088.4 -37.8563 1087.25 -37.8283 1085.87C-37.8002 1084.49 -36.6589 1083.4 -35.2785 1083.42ZM9.72733 1082.31C11.1037 1082.2 12.3072 1083.23 12.4148 1084.61C12.5225 1085.98 11.4935 1087.19 10.117 1087.29C4.91565 1087.7 -0.174728 1087.97 -5.14279 1088.15C-6.52254 1088.2 -7.68227 1087.13 -7.73264 1085.75C-7.78294 1084.37 -6.70499 1083.21 -5.32541 1083.16C-0.415237 1082.98 4.60571 1082.71 9.72733 1082.31ZM-64.3938 1081.84C-59.5603 1082.25 -54.7049 1082.59 -49.8401 1082.86C-48.4615 1082.94 -47.4061 1084.12 -47.4826 1085.5C-47.5594 1086.88 -48.7389 1087.93 -50.1174 1087.86C-55.0345 1087.58 -59.9366 1087.23 -64.8108 1086.82C-66.1866 1086.71 -67.2093 1085.5 -67.094 1084.12C-66.9786 1082.75 -65.7696 1081.73 -64.3938 1081.84ZM39.5252 1078.39C40.8814 1078.13 42.1905 1079.02 42.449 1080.38C42.7073 1081.73 41.8177 1083.04 40.4617 1083.3C35.3393 1084.28 30.2932 1085.07 25.3328 1085.72C23.9639 1085.9 22.7094 1084.93 22.531 1083.56C22.3527 1082.19 23.3182 1080.94 24.6873 1080.76C29.5576 1080.13 34.5061 1079.35 39.5252 1078.39ZM-93.466 1078.81C-88.6664 1079.38 -83.8168 1079.94 -78.9309 1080.46C-77.558 1080.6 -76.5624 1081.83 -76.7072 1083.21C-76.8522 1084.58 -78.0832 1085.57 -79.4563 1085.43C-84.3721 1084.91 -89.2467 1084.35 -94.0647 1083.77C-95.4352 1083.6 -96.4124 1082.36 -96.2473 1080.99C-96.082 1079.62 -94.8367 1078.64 -93.466 1078.81ZM-122.531 1075.11C-120.149 1075.41 -117.744 1075.73 -115.321 1076.04C-112.897 1076.35 -110.453 1076.67 -107.992 1076.99C-106.623 1077.16 -105.655 1078.42 -105.831 1079.79C-106.007 1081.16 -107.261 1082.12 -108.63 1081.95C-111.094 1081.63 -113.54 1081.31 -115.963 1081C-118.387 1080.68 -120.79 1080.37 -123.169 1080.07C-124.538 1079.89 -125.505 1078.64 -125.329 1077.27C-125.153 1075.9 -123.901 1074.93 -122.531 1075.11ZM68.5926 1070.88C69.9032 1070.45 71.317 1071.16 71.7508 1072.47C72.1844 1073.78 71.4736 1075.19 70.1629 1075.63C65.2019 1077.27 60.2923 1078.7 55.4412 1079.95C54.1043 1080.3 52.7411 1079.49 52.3963 1078.15C52.0515 1076.82 52.8554 1075.45 54.1922 1075.11C58.939 1073.89 63.7415 1072.48 68.5926 1070.88ZM-151.74 1071.7C-146.996 1072.16 -142.11 1072.7 -137.105 1073.29C-135.734 1073.46 -134.754 1074.7 -134.917 1076.07C-135.08 1077.44 -136.323 1078.42 -137.694 1078.26C-142.674 1077.67 -147.521 1077.13 -152.217 1076.68C-153.591 1076.55 -154.599 1075.33 -154.467 1073.95C-154.335 1072.58 -153.115 1071.57 -151.74 1071.7ZM-196.224 1071.51C-194.86 1071.3 -193.58 1072.23 -193.364 1073.59C-193.149 1074.96 -194.079 1076.24 -195.443 1076.45C-197.874 1076.84 -200.176 1077.32 -202.342 1077.91C-203.674 1078.27 -205.049 1077.49 -205.412 1076.16C-205.775 1074.83 -204.99 1073.45 -203.658 1073.09C-201.294 1072.44 -198.812 1071.92 -196.224 1071.51ZM-181.305 1070.29C-176.596 1070.19 -171.635 1070.3 -166.461 1070.58C-165.082 1070.65 -164.024 1071.83 -164.098 1073.21C-164.172 1074.59 -165.349 1075.64 -166.728 1075.57C-171.808 1075.3 -176.641 1075.19 -181.198 1075.29C-182.579 1075.31 -183.722 1074.22 -183.751 1072.84C-183.78 1071.46 -182.685 1070.32 -181.305 1070.29ZM96.366 1059.54C97.606 1058.93 99.1035 1059.44 99.7107 1060.68C100.318 1061.92 99.805 1063.42 98.5652 1064.03C93.8604 1066.33 89.1878 1068.42 84.5535 1070.31C83.2754 1070.84 81.8158 1070.22 81.2937 1068.94C80.7718 1067.67 81.3856 1066.21 82.6638 1065.69C87.195 1063.83 91.7639 1061.79 96.366 1059.54ZM122.391 1044.62C123.544 1043.86 125.094 1044.17 125.855 1045.33C126.616 1046.48 126.299 1048.03 125.147 1048.79C120.782 1051.67 116.435 1054.35 112.111 1056.83C110.914 1057.52 109.385 1057.1 108.698 1055.91C108.011 1054.71 108.424 1053.18 109.622 1052.49C113.855 1050.06 118.113 1047.44 122.391 1044.62ZM146.506 1026.59C147.564 1025.7 149.14 1025.84 150.027 1026.9C150.914 1027.95 150.775 1029.53 149.718 1030.42C145.699 1033.79 141.691 1036.96 137.696 1039.95C136.591 1040.78 135.024 1040.56 134.196 1039.45C133.368 1038.35 133.594 1036.78 134.699 1035.95C138.62 1033.01 142.557 1029.9 146.506 1026.59ZM168.542 1006.15C169.509 1005.16 171.091 1005.15 172.077 1006.11C173.062 1007.08 173.078 1008.66 172.111 1009.65C168.458 1013.37 164.808 1016.92 161.165 1020.31C160.153 1021.25 158.571 1021.19 157.632 1020.18C156.692 1019.16 156.751 1017.58 157.762 1016.64C161.348 1013.31 164.942 1009.82 168.542 1006.15ZM188.716 983.757C189.598 982.696 191.175 982.55 192.237 983.433C193.299 984.316 193.443 985.892 192.56 986.954C189.229 990.96 185.899 994.811 182.57 998.509C181.646 999.535 180.065 999.618 179.039 998.695C178.013 997.771 177.93 996.19 178.853 995.164C182.137 991.515 185.425 987.715 188.716 983.757ZM207.19 959.862C207.998 958.742 209.56 958.488 210.68 959.295C211.8 960.103 212.053 961.666 211.246 962.786C208.202 967.007 205.156 971.088 202.11 975.033C201.266 976.125 199.696 976.327 198.603 975.483C197.511 974.639 197.309 973.069 198.153 971.976C201.165 968.076 204.178 964.04 207.19 959.862ZM224.141 934.809C224.883 933.644 226.428 933.3 227.593 934.042C228.757 934.783 229.101 936.328 228.36 937.493C225.576 941.868 222.788 946.118 219.999 950.245C219.226 951.388 217.672 951.688 216.528 950.916C215.384 950.142 215.084 948.588 215.857 947.444C218.62 943.357 221.382 939.146 224.141 934.809ZM239.683 908.968C240.367 907.769 241.893 907.35 243.093 908.033C244.292 908.716 244.711 910.243 244.028 911.443C241.471 915.933 238.911 920.31 236.346 924.576C235.635 925.759 234.099 926.141 232.916 925.43C231.732 924.719 231.349 923.183 232.06 922C234.604 917.768 237.146 913.425 239.683 908.968ZM254.132 882.265C254.764 881.038 256.271 880.555 257.499 881.187C258.726 881.819 259.21 883.327 258.578 884.554C256.201 889.171 253.819 893.683 251.434 898.093C250.777 899.307 249.261 899.76 248.047 899.103C246.832 898.446 246.38 896.929 247.037 895.714C249.406 891.334 251.77 886.852 254.132 882.265ZM267.321 855.238C267.878 853.975 269.355 853.402 270.618 853.959C271.881 854.517 272.454 855.993 271.896 857.256C270.887 859.545 269.84 861.821 268.754 864.083C267.628 866.426 266.501 868.745 265.374 871.04C264.765 872.279 263.267 872.79 262.028 872.181C260.789 871.572 260.278 870.074 260.887 868.834C262.007 866.553 263.127 864.247 264.246 861.917C265.308 859.705 266.333 857.478 267.321 855.238ZM277.536 827.66C277.94 826.34 279.338 825.597 280.658 826C281.978 826.404 282.721 827.802 282.317 829.123C280.858 833.895 279.264 838.638 277.525 843.341C277.046 844.636 275.608 845.297 274.313 844.819C273.019 844.34 272.357 842.903 272.836 841.608C274.54 836.998 276.103 832.344 277.536 827.66ZM284.66 799.08C284.927 797.725 286.242 796.842 287.596 797.109C288.951 797.376 289.833 798.691 289.566 800.045C288.604 804.932 287.523 809.813 286.314 814.676C285.981 816.016 284.625 816.833 283.285 816.5C281.945 816.166 281.129 814.81 281.462 813.47C282.65 808.69 283.713 803.889 284.66 799.08ZM291.797 767.691C293.169 767.838 294.164 769.069 294.017 770.442C293.491 775.378 292.86 780.332 292.117 785.292C291.912 786.658 290.64 787.6 289.274 787.395C287.909 787.19 286.968 785.918 287.173 784.552C287.905 779.664 288.525 774.78 289.045 769.912C289.191 768.539 290.424 767.544 291.797 767.691ZM293.605 738.026C294.985 738.067 296.071 739.22 296.029 740.6C295.88 745.539 295.643 750.524 295.306 755.542C295.214 756.919 294.023 757.961 292.645 757.869C291.268 757.776 290.226 756.585 290.318 755.208C290.65 750.254 290.884 745.33 291.031 740.45C291.073 739.07 292.225 737.984 293.605 738.026ZM293.318 708.302C294.698 708.251 295.858 709.329 295.909 710.708C296.09 715.617 296.197 720.606 296.219 725.66C296.225 727.04 295.111 728.164 293.73 728.17C292.35 728.176 291.225 727.063 291.219 725.682C291.197 720.684 291.091 715.749 290.912 710.892C290.861 709.513 291.939 708.353 293.318 708.302ZM291.167 678.662C292.541 678.528 293.763 679.533 293.897 680.907C294.369 685.75 294.784 690.724 295.129 695.809C295.222 697.186 294.181 698.379 292.803 698.472C291.426 698.565 290.234 697.524 290.14 696.147C289.8 691.113 289.388 686.188 288.921 681.392C288.787 680.018 289.793 678.796 291.167 678.662ZM287.301 649.178C288.665 648.967 289.942 649.901 290.154 651.265C290.886 655.986 291.587 660.925 292.235 666.055C292.408 667.425 291.438 668.676 290.068 668.849C288.698 669.022 287.447 668.052 287.274 666.682C286.632 661.601 285.939 656.708 285.214 652.032C285.002 650.667 285.936 649.39 287.301 649.178ZM281.767 620.007C283.117 619.716 284.448 620.575 284.739 621.924C285.697 626.369 286.684 631.258 287.657 636.538C287.907 637.895 287.009 639.199 285.651 639.45C284.293 639.7 282.989 638.802 282.739 637.444C281.775 632.215 280.8 627.375 279.851 622.978C279.56 621.629 280.418 620.299 281.767 620.007ZM274.191 591.268C275.514 590.872 276.907 591.622 277.303 592.945C277.682 594.207 278.046 595.439 278.396 596.638L279.405 600.135L279.406 600.139C279.973 602.144 280.625 604.565 281.336 607.366C281.675 608.704 280.866 610.064 279.528 610.404C278.19 610.744 276.829 609.934 276.489 608.596C275.788 605.836 275.149 603.46 274.595 601.501L274.595 601.502C273.958 599.263 273.264 596.884 272.514 594.38C272.118 593.058 272.869 591.664 274.191 591.268ZM252.119 582.228C253.499 582.209 254.634 583.312 254.653 584.693C254.672 586.073 253.569 587.209 252.188 587.228C247.3 587.297 242.405 587.3 237.506 587.238C236.125 587.22 235.02 586.087 235.038 584.707C235.056 583.326 236.189 582.221 237.569 582.239C242.423 582.301 247.274 582.296 252.119 582.228ZM208.508 581.044C213.348 581.385 218.189 581.652 223.028 581.85C224.408 581.906 225.48 583.07 225.424 584.45C225.367 585.829 224.204 586.903 222.824 586.846C217.937 586.646 213.047 586.376 208.157 586.033C206.78 585.936 205.742 584.74 205.839 583.363C205.936 581.986 207.13 580.948 208.508 581.044ZM264.86 562.754C266.165 562.304 267.588 562.997 268.039 564.302C269.752 569.265 271.347 574.042 272.817 578.579C273.214 579.802 272.616 581.107 271.47 581.625C274.718 581.469 277.962 581.291 281.202 581.083C282.58 580.995 283.768 582.041 283.856 583.418C283.944 584.796 282.899 585.984 281.521 586.073C276.645 586.385 271.758 586.64 266.863 586.833C265.484 586.888 264.321 585.814 264.266 584.434C264.212 583.054 265.286 581.892 266.666 581.837C267.653 581.798 268.641 581.754 269.628 581.71C268.91 581.463 268.313 580.897 268.061 580.12C266.601 575.613 265.015 570.866 263.312 565.933C262.862 564.628 263.555 563.205 264.86 562.754ZM310.21 578.56C311.582 578.41 312.817 579.4 312.967 580.773C313.117 582.145 312.126 583.379 310.754 583.53C305.901 584.06 301.033 584.541 296.153 584.966C294.778 585.086 293.565 584.068 293.445 582.693C293.325 581.317 294.343 580.105 295.719 579.985C300.561 579.563 305.393 579.087 310.21 578.56ZM186.79 579.016C189.199 579.298 191.61 579.561 194.021 579.805C195.395 579.944 196.395 581.17 196.257 582.543C196.118 583.917 194.892 584.919 193.518 584.78C191.147 584.54 188.776 584.28 186.405 584.003C183.903 584.103 181.207 584.139 178.345 584.107C176.964 584.091 175.857 582.96 175.873 581.58C175.888 580.199 177.021 579.092 178.401 579.108C181.263 579.14 183.937 579.103 186.396 579.001L186.594 578.994L186.79 579.016ZM146.238 576.58C151.816 577.335 157.202 577.914 162.295 578.328C163.671 578.439 164.696 579.646 164.585 581.022C164.473 582.398 163.266 583.423 161.89 583.311C156.707 582.891 151.232 582.302 145.567 581.535C144.199 581.349 143.24 580.089 143.426 578.721C143.611 577.353 144.87 576.394 146.238 576.58ZM339.096 574.796C340.461 574.591 341.734 575.531 341.939 576.896C342.145 578.261 341.205 579.535 339.84 579.741C335.017 580.467 330.175 581.149 325.316 581.783C323.947 581.961 322.692 580.996 322.513 579.626C322.335 578.258 323.301 577.003 324.67 576.825C329.495 576.195 334.305 575.518 339.096 574.796ZM111.451 572.488C111.774 571.145 113.124 570.318 114.467 570.641C119.766 571.916 125.059 573.037 130.276 574.01C131.633 574.264 132.528 575.569 132.275 576.926C132.022 578.284 130.716 579.178 129.359 578.925C124.062 577.937 118.684 576.798 113.297 575.502C111.954 575.179 111.128 573.83 111.451 572.488ZM367.83 569.925C369.187 569.671 370.493 570.564 370.748 571.921C371.003 573.278 370.11 574.584 368.753 574.839C363.965 575.739 359.154 576.6 354.32 577.42C352.959 577.651 351.667 576.736 351.436 575.375C351.205 574.013 352.122 572.723 353.483 572.492C358.287 571.677 363.07 570.819 367.83 569.925ZM396.391 564.075C397.739 563.777 399.073 564.627 399.372 565.975C399.67 567.323 398.82 568.658 397.471 568.957C392.722 570.008 387.943 571.028 383.138 572.013C381.785 572.291 380.464 571.419 380.186 570.066C379.909 568.713 380.78 567.392 382.133 567.115C386.912 566.135 391.666 565.12 396.391 564.075ZM80.3885 562.711C80.877 561.42 82.3198 560.77 83.6111 561.258C88.589 563.141 93.7009 564.861 98.8787 566.426C100.2 566.826 100.948 568.221 100.549 569.542C100.149 570.864 98.7539 571.612 97.4324 571.212C92.1562 569.618 86.936 567.861 81.8426 565.935C80.5511 565.447 79.9001 564.003 80.3885 562.711ZM424.771 557.363C426.11 557.027 427.469 557.84 427.805 559.179C428.142 560.518 427.328 561.876 425.989 562.212C421.279 563.395 416.534 564.553 411.756 565.684C410.412 566.002 409.065 565.171 408.747 563.828C408.429 562.484 409.261 561.137 410.604 560.819C415.359 559.694 420.083 558.54 424.771 557.363ZM51.3377 548.076C52.0711 546.906 53.6142 546.552 54.784 547.286C59.1704 550.036 63.8753 552.593 68.8191 554.962C70.0642 555.559 70.5905 557.052 69.9939 558.297C69.3973 559.542 67.9041 560.068 66.659 559.471C61.5676 557.031 56.6942 554.385 52.1277 551.522C50.9581 550.788 50.6042 549.245 51.3377 548.076ZM452.972 549.909C454.303 549.54 455.68 550.32 456.049 551.65C456.417 552.98 455.638 554.358 454.307 554.727C449.638 556.021 444.925 557.298 440.173 558.555C438.838 558.908 437.47 558.112 437.117 556.778C436.764 555.443 437.56 554.074 438.894 553.721C443.627 552.469 448.32 551.197 452.972 549.909ZM254.488 534.633C255.776 534.136 257.224 534.778 257.721 536.066C259.563 540.837 261.327 545.54 263.007 550.137C263.48 551.434 262.813 552.869 261.516 553.343C260.22 553.817 258.784 553.15 258.31 551.853C256.641 547.283 254.887 542.608 253.056 537.866C252.559 536.578 253.2 535.131 254.488 534.633ZM481.014 541.826C482.337 541.431 483.73 542.183 484.125 543.505C484.52 544.828 483.768 546.221 482.445 546.617C477.811 548.001 473.126 549.378 468.393 550.744C467.067 551.126 465.682 550.361 465.299 549.035C464.916 547.708 465.681 546.322 467.008 545.939C471.725 544.578 476.395 543.206 481.014 541.826ZM508.937 533.232C510.254 532.816 511.658 533.546 512.074 534.863C512.49 536.179 511.759 537.583 510.443 538C505.844 539.452 501.182 540.909 496.462 542.363C495.142 542.769 493.743 542.029 493.337 540.709C492.93 539.39 493.671 537.99 494.99 537.583C499.698 536.134 504.348 534.681 508.937 533.232ZM28.0633 526.217C29.1641 525.384 30.7319 525.601 31.5652 526.702C33.0625 528.68 34.6523 530.579 36.3328 532.39C38.0819 534.276 39.9714 536.101 41.989 537.867C43.0278 538.776 43.1333 540.355 42.2244 541.394C41.3152 542.433 39.7352 542.539 38.6961 541.629C36.558 539.759 34.5425 537.813 32.6668 535.792C30.8703 533.855 29.1741 531.827 27.5789 529.72C26.7455 528.619 26.9624 527.051 28.0633 526.217ZM536.752 524.277C538.064 523.848 539.476 524.563 539.905 525.875C540.334 527.188 539.618 528.6 538.305 529.029C533.743 530.521 529.103 532.03 524.39 533.548C523.076 533.972 521.667 533.249 521.244 531.935C520.821 530.621 521.542 529.212 522.856 528.789C527.561 527.272 532.194 525.767 536.752 524.277ZM243.06 506.915C244.328 506.367 245.799 506.949 246.347 508.216C248.352 512.851 250.295 517.485 252.174 522.087C252.695 523.366 252.081 524.824 250.803 525.346C249.525 525.868 248.065 525.254 247.544 523.976C245.678 519.404 243.747 514.803 241.758 510.202C241.21 508.934 241.793 507.463 243.06 506.915ZM564.481 515.149C565.792 514.717 567.206 515.43 567.638 516.741C568.071 518.052 567.358 519.466 566.047 519.898C561.526 521.388 556.898 522.917 552.187 524.469C550.876 524.901 549.463 524.189 549.031 522.877C548.599 521.566 549.312 520.153 550.623 519.721C555.338 518.167 559.953 516.642 564.481 515.149ZM15.1092 498.535C16.4296 498.132 17.827 498.875 18.2303 500.196C19.6946 504.993 21.5356 509.638 23.743 514.056C24.3597 515.291 23.8587 516.793 22.6238 517.41C21.3887 518.027 19.8875 517.526 19.2703 516.291C16.9338 511.614 14.9907 506.709 13.448 501.656C13.045 500.335 13.7887 498.938 15.1092 498.535ZM592.332 506.076C593.647 505.656 595.054 506.382 595.473 507.697C595.893 509.012 595.167 510.419 593.851 510.838C589.352 512.274 584.722 513.774 579.966 515.327C578.653 515.755 577.242 515.039 576.813 513.726C576.385 512.414 577.101 511.002 578.414 510.574C583.177 509.018 587.819 507.516 592.332 506.076ZM620.388 497.392C621.701 496.963 623.112 497.679 623.542 498.991C623.971 500.303 623.255 501.715 621.943 502.144C619.539 502.931 617.127 503.682 614.709 504.397C612.441 505.067 610.128 505.763 607.771 506.483C606.451 506.886 605.054 506.143 604.65 504.823C604.247 503.502 604.99 502.105 606.31 501.702C608.68 500.978 611.007 500.277 613.291 499.602C615.663 498.901 618.029 498.164 620.388 497.392ZM230.398 479.737C231.637 479.127 233.136 479.636 233.746 480.875C235.956 485.359 238.115 489.901 240.218 494.471C240.795 495.725 240.245 497.21 238.991 497.788C237.737 498.365 236.252 497.815 235.675 496.561C233.589 492.029 231.449 487.527 229.261 483.084C228.65 481.846 229.16 480.347 230.398 479.737ZM648.185 486.632C649.447 486.07 650.924 486.638 651.486 487.899C652.048 489.16 651.482 490.638 650.221 491.2C645.576 493.269 640.913 495.217 636.227 497.035C634.94 497.534 633.492 496.896 632.993 495.609C632.494 494.322 633.132 492.873 634.419 492.374C639.025 490.587 643.613 488.67 648.185 486.632ZM11.5623 468.147C12.9429 468.162 14.0501 469.294 14.0349 470.674C13.98 475.674 14.3048 480.674 15.0017 485.602C15.1951 486.969 14.2437 488.234 12.8767 488.427C11.5096 488.621 10.2439 487.669 10.0506 486.302C9.31825 481.124 8.97723 475.872 9.03494 470.62C9.05013 469.239 10.1818 468.132 11.5623 468.147ZM674.915 473.301C676.125 472.636 677.645 473.077 678.31 474.287C678.976 475.496 678.534 477.017 677.324 477.682C672.868 480.133 668.4 482.482 663.918 484.722C662.683 485.339 661.181 484.838 660.563 483.603C659.946 482.368 660.448 480.867 661.682 480.25C666.103 478.04 670.513 475.722 674.915 473.301ZM216.135 453.371C217.328 452.677 218.858 453.081 219.553 454.274C222.043 458.554 224.487 462.96 226.881 467.458C227.529 468.677 227.067 470.192 225.848 470.84C224.63 471.489 223.115 471.026 222.467 469.807C220.1 465.36 217.686 461.009 215.23 456.789C214.536 455.595 214.941 454.065 216.135 453.371ZM700.638 457.987C701.802 457.244 703.348 457.585 704.091 458.749C704.834 459.912 704.493 461.458 703.329 462.201C699.043 464.937 694.753 467.59 690.455 470.153C689.269 470.86 687.735 470.471 687.028 469.286C686.321 468.1 686.708 466.565 687.894 465.858C692.146 463.323 696.393 460.698 700.638 457.987ZM14.2312 439.689C14.6754 438.382 16.0958 437.681 17.4031 438.125C18.7104 438.57 19.4097 439.99 18.9656 441.297C17.3673 446.002 16.1615 450.853 15.3416 455.779C15.1149 457.141 13.8266 458.061 12.4646 457.834C11.1027 457.608 10.1823 456.319 10.409 454.958C11.2719 449.773 12.5428 444.659 14.2312 439.689ZM725.445 441.224C726.571 440.424 728.132 440.689 728.931 441.814C729.731 442.939 729.467 444.501 728.342 445.3C724.211 448.236 720.08 451.104 715.949 453.899C714.805 454.672 713.252 454.372 712.478 453.229C711.705 452.085 712.004 450.531 713.147 449.757C717.245 446.985 721.343 444.139 725.445 441.224ZM199.549 428.415C200.658 427.593 202.224 427.825 203.046 428.934C205.964 432.871 208.838 437.041 211.661 441.399C212.411 442.558 212.08 444.106 210.922 444.857C209.763 445.608 208.214 445.277 207.464 444.118C204.691 439.837 201.878 435.754 199.029 431.912C198.207 430.802 198.439 429.237 199.549 428.415ZM749.545 423.393C750.64 422.553 752.21 422.76 753.051 423.856C753.891 424.952 753.683 426.521 752.588 427.361C748.569 430.443 744.555 433.471 740.546 436.441C739.436 437.263 737.87 437.029 737.049 435.919C736.227 434.81 736.461 433.245 737.57 432.423C741.556 429.472 745.546 426.459 749.545 423.393ZM29.4597 412.185C30.3417 411.123 31.9179 410.976 32.9803 411.858C34.0426 412.74 34.1884 414.316 33.3064 415.378C30.1236 419.212 27.3427 423.33 24.9578 427.663C24.292 428.872 22.7719 429.313 21.5623 428.647C20.3529 427.981 19.9122 426.461 20.5779 425.251C23.1094 420.652 26.0671 416.271 29.4597 412.185ZM179.147 406.67C180.042 405.619 181.619 405.492 182.671 406.387C184.585 408.016 186.453 409.736 188.267 411.551C190.021 413.305 191.761 415.157 193.487 417.1C194.404 418.132 194.31 419.713 193.278 420.629C192.246 421.546 190.666 421.453 189.749 420.42C188.083 418.545 186.41 416.765 184.732 415.086C183.013 413.367 181.244 411.738 179.43 410.195C178.379 409.3 178.252 407.722 179.147 406.67ZM773.138 404.79C774.212 403.922 775.786 404.089 776.654 405.163C777.522 406.236 777.355 407.81 776.281 408.678C772.342 411.861 768.412 415.002 764.491 418.096C763.407 418.951 761.836 418.767 760.98 417.683C760.125 416.599 760.311 415.027 761.394 414.171C765.299 411.09 769.213 407.961 773.138 404.79ZM53.825 392.624C55.0637 392.014 56.5619 392.524 57.1717 393.762C57.7814 395.001 57.2716 396.499 56.033 397.109C53.7585 398.229 51.6958 399.396 49.868 400.591C47.7693 401.964 45.767 403.425 43.8592 404.964C42.7847 405.831 41.2106 405.663 40.3435 404.588C39.4765 403.514 39.6442 401.94 40.7185 401.073C42.7552 399.429 44.8931 397.872 47.1316 396.408C49.1507 395.087 51.3927 393.821 53.825 392.624ZM153.577 391.92C154.114 390.648 155.579 390.052 156.851 390.588C161.47 392.537 165.991 394.827 170.36 397.491C171.539 398.209 171.913 399.747 171.194 400.926C170.475 402.105 168.937 402.479 167.758 401.76C163.61 399.232 159.31 397.053 154.908 395.196C153.636 394.659 153.04 393.193 153.577 391.92ZM796.328 385.712C797.388 384.827 798.964 384.969 799.849 386.029C800.734 387.089 800.593 388.665 799.533 389.55C795.661 392.784 791.803 395.985 787.957 399.152C786.891 400.029 785.315 399.877 784.437 398.811C783.56 397.745 783.713 396.169 784.779 395.292C788.615 392.133 792.464 388.939 796.328 385.712ZM82.6736 383.551C84.0321 383.305 85.3334 384.206 85.5799 385.565C85.8261 386.923 84.9246 388.225 83.5662 388.471C78.5706 389.378 73.8353 390.532 69.4539 391.876C68.134 392.282 66.736 391.54 66.3308 390.22C65.9258 388.9 66.6672 387.502 67.9871 387.097C72.5648 385.692 77.4922 384.491 82.6736 383.551ZM127.727 382.634C132.671 383.344 137.625 384.345 142.53 385.672C143.863 386.033 144.65 387.406 144.29 388.739C143.929 390.072 142.556 390.859 141.223 390.499C136.525 389.227 131.771 388.266 127.016 387.583C125.65 387.387 124.701 386.12 124.897 384.753C125.094 383.387 126.361 382.438 127.727 382.634ZM97.6316 381.654C102.541 381.292 107.585 381.171 112.698 381.333C114.078 381.376 115.161 382.531 115.118 383.911C115.074 385.29 113.921 386.374 112.541 386.331C107.608 386.175 102.739 386.291 97.9988 386.641C96.6221 386.742 95.4237 385.708 95.3221 384.332C95.2205 382.955 96.2547 381.755 97.6316 381.654ZM819.314 366.328C820.366 365.434 821.944 365.563 822.838 366.615C823.731 367.667 823.603 369.244 822.552 370.138C818.705 373.406 814.874 376.652 811.058 379.872C810.003 380.762 808.426 380.628 807.536 379.573C806.646 378.518 806.779 376.941 807.834 376.05C811.644 372.835 815.47 369.593 819.314 366.328ZM842.215 346.818C843.265 345.922 844.843 346.048 845.739 347.099C846.635 348.15 846.509 349.728 845.459 350.624C841.631 353.887 837.818 357.139 834.027 360.37C832.976 361.265 831.398 361.14 830.503 360.089C829.607 359.039 829.733 357.461 830.784 356.565C834.576 353.332 838.383 350.084 842.215 346.818ZM865.149 327.333C866.204 326.441 867.781 326.574 868.673 327.628C869.564 328.683 869.431 330.26 868.377 331.151C864.53 334.402 860.706 337.646 856.902 340.879C855.85 341.773 854.273 341.645 853.379 340.593C852.485 339.541 852.612 337.964 853.664 337.07C857.47 333.834 861.298 330.587 865.149 327.333ZM888.23 307.997C889.293 307.116 890.87 307.263 891.751 308.326C892.632 309.389 892.484 310.965 891.421 311.846C887.555 315.051 883.713 318.255 879.894 321.456C878.836 322.342 877.26 322.203 876.373 321.145C875.486 320.087 875.625 318.51 876.683 317.624C880.508 314.418 884.356 311.208 888.23 307.997ZM911.555 288.927C912.631 288.061 914.205 288.232 915.071 289.307C915.937 290.383 915.767 291.957 914.691 292.823C910.773 295.976 906.882 299.135 903.016 302.296C901.948 303.171 900.373 303.013 899.499 301.944C898.625 300.875 898.783 299.3 899.851 298.426C903.726 295.257 907.627 292.09 911.555 288.927ZM935.191 270.253C936.283 269.408 937.853 269.608 938.698 270.7C939.543 271.791 939.343 273.361 938.252 274.207C934.285 277.278 930.346 280.362 926.435 283.453C925.352 284.309 923.78 284.125 922.924 283.042C922.068 281.958 922.252 280.387 923.335 279.531C927.258 276.43 931.21 273.336 935.191 270.253ZM959.248 252.054C960.359 251.234 961.924 251.47 962.744 252.581C963.564 253.691 963.327 255.257 962.217 256.077C958.173 259.061 954.16 262.062 950.177 265.077C949.077 265.91 947.508 265.692 946.675 264.591C945.842 263.49 946.059 261.922 947.16 261.089C951.158 258.063 955.187 255.051 959.248 252.054ZM983.723 234.483C984.856 233.693 986.414 233.971 987.204 235.103C987.994 236.236 987.715 237.794 986.583 238.583C982.468 241.453 978.385 244.343 974.335 247.252C973.213 248.058 971.651 247.802 970.845 246.68C970.041 245.559 970.297 243.997 971.418 243.192C975.487 240.27 979.589 237.366 983.723 234.483ZM1008.72 217.604C1009.88 216.849 1011.43 217.175 1012.18 218.331C1012.94 219.487 1012.61 221.036 1011.46 221.791C1007.26 224.53 1003.1 227.295 998.969 230.083C997.824 230.856 996.27 230.555 995.498 229.411C994.725 228.266 995.026 226.713 996.171 225.94C1000.32 223.137 1004.5 220.358 1008.72 217.604ZM1034.27 201.534C1035.45 200.819 1036.99 201.197 1037.7 202.378C1038.42 203.56 1038.04 205.097 1036.86 205.812C1032.56 208.411 1028.3 211.041 1024.08 213.699C1022.91 214.434 1021.37 214.083 1020.63 212.915C1019.9 211.746 1020.25 210.202 1021.42 209.466C1025.66 206.794 1029.95 204.148 1034.27 201.534ZM1060.35 186.392C1061.56 185.722 1063.08 186.156 1063.75 187.363C1064.42 188.57 1063.98 190.091 1062.78 190.762C1058.4 193.197 1054.05 195.667 1049.75 198.167C1048.55 198.861 1047.02 198.455 1046.33 197.261C1045.64 196.067 1046.04 194.537 1047.24 193.843C1051.57 191.327 1055.94 188.842 1060.35 186.392ZM1087.02 172.25C1088.25 171.627 1089.75 172.121 1090.38 173.354C1091 174.587 1090.5 176.09 1089.27 176.712C1084.8 178.97 1080.37 181.267 1075.97 183.598C1074.75 184.245 1073.24 183.781 1072.59 182.561C1071.94 181.341 1072.41 179.828 1073.63 179.181C1078.05 176.834 1082.52 174.523 1087.02 172.25Z" fill="url(#paint0_linear_37_992)"/>
<path d="M1835.49 361.344C1835.7 359.98 1836.98 359.05 1838.35 359.267C1839.71 359.483 1840.64 360.764 1840.42 362.128C1839.64 367.044 1838.32 372.037 1836.57 377.039C1836.11 378.342 1834.69 379.028 1833.38 378.572C1832.08 378.116 1831.39 376.69 1831.85 375.387C1833.52 370.618 1834.76 365.918 1835.49 361.344ZM1833.1 330.348C1834.33 329.721 1835.83 330.21 1836.46 331.44C1838.9 336.221 1840.33 341.301 1840.91 346.567C1841.07 347.939 1840.08 349.176 1838.71 349.329C1837.33 349.482 1836.1 348.493 1835.95 347.121C1835.42 342.4 1834.14 337.91 1832 333.711C1831.38 332.481 1831.87 330.975 1833.1 330.348ZM1810.8 311.062C1811.45 309.845 1812.96 309.387 1814.18 310.039C1819.15 312.7 1823.37 315.681 1826.89 318.945C1827.91 319.884 1827.97 321.466 1827.03 322.479C1826.09 323.491 1824.51 323.551 1823.5 322.613C1820.32 319.671 1816.46 316.93 1811.82 314.446C1810.6 313.794 1810.14 312.279 1810.8 311.062ZM1783.17 298.733C1783.87 297.548 1785.41 297.16 1786.59 297.868C1788.85 299.216 1791 300.567 1793.04 301.917C1795.47 302.575 1797.8 303.275 1800.03 304.021C1801.34 304.46 1802.04 305.878 1801.6 307.187C1801.16 308.496 1799.75 309.202 1798.44 308.763C1796.2 308.011 1793.84 307.301 1791.35 306.638L1790.96 306.531L1790.61 306.303C1788.55 304.929 1786.35 303.548 1784.03 302.161C1782.85 301.453 1782.46 299.919 1783.17 298.733ZM1755.03 284.347C1755.62 283.098 1757.11 282.562 1758.35 283.15C1763.33 285.493 1768.1 287.827 1772.61 290.153C1773.84 290.786 1774.32 292.294 1773.69 293.521C1773.05 294.748 1771.55 295.23 1770.32 294.598C1765.87 292.304 1761.16 289.997 1756.22 287.674C1754.97 287.085 1754.44 285.596 1755.03 284.347ZM1726.08 271.495C1726.63 270.227 1728.1 269.642 1729.36 270.188C1734.31 272.318 1739.16 274.435 1743.89 276.541C1745.15 277.103 1745.72 278.58 1745.16 279.842C1744.6 281.103 1743.12 281.67 1741.86 281.108C1737.15 279.013 1732.32 276.904 1727.39 274.78C1726.12 274.234 1725.53 272.763 1726.08 271.495ZM1696.94 259.108C1697.48 257.838 1698.94 257.244 1700.22 257.784C1705.11 259.861 1709.96 261.914 1714.79 263.963C1716.06 264.502 1716.65 265.97 1716.11 267.241C1715.57 268.512 1714.1 269.105 1712.83 268.565C1708.02 266.524 1703.14 264.459 1698.26 262.387C1696.99 261.847 1696.4 260.379 1696.94 259.108ZM961.248 251.777C962.359 250.958 963.924 251.193 964.744 252.304C965.564 253.415 965.328 254.98 964.217 255.8C960.173 258.784 956.161 261.785 952.178 264.8C951.077 265.633 949.508 265.415 948.675 264.314C947.842 263.214 948.059 261.646 949.16 260.812C953.158 257.787 957.187 254.774 961.248 251.777ZM1667.88 246.515C1668.44 245.253 1669.92 244.683 1671.18 245.242C1675.97 247.367 1680.81 249.476 1685.67 251.568C1686.94 252.115 1687.52 253.586 1686.97 254.854C1686.43 256.121 1684.96 256.706 1683.69 256.16C1678.82 254.063 1673.96 251.948 1669.15 249.813C1667.89 249.254 1667.32 247.777 1667.88 246.515ZM985.724 234.206C986.856 233.416 988.414 233.694 989.204 234.826C989.994 235.959 989.716 237.517 988.583 238.307C984.468 241.176 980.386 244.067 976.335 246.976C975.214 247.781 973.651 247.525 972.846 246.403C972.041 245.282 972.297 243.72 973.418 242.915C977.487 239.993 981.589 237.089 985.724 234.206ZM1639.21 233.079C1639.82 231.841 1641.31 231.331 1642.55 231.941C1647.19 234.227 1651.96 236.492 1656.8 238.737C1658.06 239.318 1658.6 240.804 1658.02 242.057C1657.44 243.309 1655.96 243.855 1654.7 243.274C1649.83 241.015 1645.03 238.733 1640.34 236.427C1639.1 235.817 1638.6 234.318 1639.21 233.079ZM1010.72 217.327C1011.88 216.573 1013.43 216.898 1014.18 218.054C1014.94 219.21 1014.61 220.759 1013.46 221.514C1009.26 224.253 1005.1 227.018 1000.97 229.807C999.825 230.579 998.271 230.278 997.498 229.134C996.725 227.99 997.027 226.436 998.171 225.663C1002.32 222.861 1006.5 220.081 1010.72 217.327ZM1611.43 217.89C1612.14 216.706 1613.67 216.321 1614.86 217.031C1619.2 219.639 1623.79 222.219 1628.56 224.773C1629.78 225.425 1630.24 226.94 1629.59 228.157C1628.94 229.375 1627.42 229.833 1626.2 229.182C1621.37 226.595 1616.71 223.975 1612.29 221.319C1611.1 220.609 1610.72 219.074 1611.43 217.89ZM1036.27 201.257C1037.45 200.542 1038.99 200.92 1039.7 202.102C1040.42 203.283 1040.04 204.82 1038.86 205.535C1034.56 208.135 1030.3 210.764 1026.08 213.422C1024.91 214.157 1023.37 213.806 1022.63 212.638C1021.9 211.469 1022.25 209.925 1023.42 209.189C1027.67 206.517 1031.95 203.872 1036.27 201.257ZM1586 199.137C1586.92 198.108 1588.5 198.021 1589.53 198.942C1593.13 202.175 1597.22 205.373 1601.72 208.539C1602.85 209.334 1603.12 210.893 1602.33 212.022C1601.53 213.151 1599.98 213.423 1598.85 212.629C1594.22 209.374 1589.97 206.054 1586.19 202.667C1585.16 201.746 1585.07 200.165 1586 199.137ZM1062.35 186.115C1063.56 185.445 1065.08 185.879 1065.75 187.086C1066.42 188.293 1065.98 189.815 1064.78 190.485C1060.4 192.92 1056.05 195.39 1051.75 197.891C1050.55 198.584 1049.02 198.178 1048.33 196.984C1047.64 195.79 1048.04 194.26 1049.24 193.566C1053.57 191.05 1057.94 188.565 1062.35 186.115ZM1569.67 172.668C1571.01 172.345 1572.36 173.171 1572.68 174.513C1573.75 178.927 1575.93 183.327 1579.14 187.723C1579.95 188.838 1579.71 190.401 1578.59 191.216C1577.48 192.03 1575.92 191.787 1575.1 190.672C1571.59 185.873 1569.07 180.879 1567.82 175.685C1567.5 174.342 1568.32 172.992 1569.67 172.668ZM1089.02 171.973C1090.25 171.35 1091.75 171.845 1092.38 173.077C1093 174.31 1092.5 175.813 1091.27 176.436C1086.8 178.693 1082.37 180.99 1077.97 183.321C1076.75 183.968 1075.24 183.504 1074.59 182.284C1073.94 181.065 1074.41 179.551 1075.63 178.904C1080.05 176.557 1084.52 174.246 1089.02 171.973ZM1116.26 158.924C1117.52 158.354 1119 158.911 1119.57 160.169C1120.14 161.427 1119.58 162.909 1118.33 163.479C1113.75 165.552 1109.21 167.667 1104.72 169.821C1103.47 170.418 1101.98 169.892 1101.38 168.647C1100.78 167.402 1101.31 165.909 1102.55 165.312C1107.08 163.143 1111.65 161.012 1116.26 158.924ZM1575.6 144.444C1576.29 143.252 1577.83 142.85 1579.02 143.546C1580.21 144.242 1580.61 145.774 1579.92 146.966C1578.67 149.102 1577.42 151.266 1576.17 153.459C1574.86 155.767 1573.87 158.026 1573.18 160.237C1572.77 161.555 1571.37 162.291 1570.05 161.881C1568.74 161.47 1568 160.068 1568.41 158.75C1569.22 156.167 1570.35 153.58 1571.83 150.986C1573.08 148.777 1574.34 146.596 1575.6 144.444ZM1697.21 152.776C1702.25 153.071 1707.21 153.23 1712.11 153.234C1713.49 153.236 1714.6 154.356 1714.6 155.736C1714.6 157.117 1713.48 158.236 1712.1 158.234C1707.1 158.23 1702.04 158.067 1696.91 157.768C1695.54 157.687 1694.48 156.504 1694.56 155.126C1694.65 153.748 1695.83 152.696 1697.21 152.776ZM1741.73 151.109C1743.09 150.9 1744.37 151.837 1744.58 153.201C1744.79 154.566 1743.85 155.842 1742.49 156.052C1737.47 156.821 1732.42 157.372 1727.32 157.728C1725.94 157.824 1724.75 156.784 1724.65 155.407C1724.55 154.03 1725.59 152.835 1726.97 152.739C1731.94 152.392 1736.86 151.856 1741.73 151.109ZM1144.82 147.879C1146.15 147.537 1147.51 148.345 1147.86 149.683C1148.2 151.02 1147.39 152.382 1146.05 152.724C1143.64 153.338 1141.23 153.964 1138.8 154.599C1136.53 155.539 1134.27 156.49 1132.02 157.451C1130.75 157.994 1129.28 157.403 1128.74 156.134C1128.2 154.864 1128.79 153.395 1130.05 152.853C1132.37 151.862 1134.7 150.882 1137.04 149.913L1137.2 149.848L1137.37 149.804C1139.86 149.151 1142.34 148.51 1144.82 147.879ZM1667.45 149.743C1672.48 150.439 1677.43 151.048 1682.31 151.554C1683.68 151.696 1684.68 152.925 1684.54 154.299C1684.4 155.672 1683.17 156.67 1681.8 156.527C1676.86 156.015 1671.85 155.399 1666.76 154.696C1665.39 154.507 1664.44 153.245 1664.63 151.878C1664.82 150.51 1666.08 149.554 1667.45 149.743ZM1770.44 143.936C1771.74 143.474 1773.17 144.156 1773.63 145.457C1774.09 146.758 1773.41 148.187 1772.11 148.648C1767.25 150.369 1762.38 151.829 1757.47 153.051C1756.13 153.384 1754.78 152.569 1754.44 151.229C1754.11 149.89 1754.92 148.533 1756.26 148.199C1761.02 147.015 1765.74 145.601 1770.44 143.936ZM1634.9 146.975C1635.15 145.616 1636.45 144.712 1637.81 144.956C1642.83 145.857 1647.76 146.709 1652.61 147.5C1653.98 147.722 1654.9 149.006 1654.68 150.369C1654.46 151.732 1653.17 152.656 1651.81 152.435C1646.92 151.639 1641.96 150.782 1636.92 149.877C1635.56 149.633 1634.66 148.333 1634.9 146.975ZM1174.05 140.79C1175.39 140.481 1176.73 141.322 1177.04 142.668C1177.35 144.014 1176.51 145.355 1175.17 145.664C1170.39 146.761 1165.57 147.898 1160.71 149.076C1159.36 149.402 1158.01 148.578 1157.69 147.236C1157.36 145.895 1158.18 144.543 1159.53 144.218C1164.41 143.034 1169.25 141.892 1174.05 140.79ZM1605.29 141.367C1605.55 140.012 1606.86 139.125 1608.22 139.387C1613.23 140.356 1618.16 141.303 1623.01 142.221C1624.37 142.477 1625.26 143.786 1625 145.143C1624.75 146.499 1623.44 147.39 1622.08 147.134C1617.22 146.215 1612.29 145.265 1607.27 144.296C1605.91 144.034 1605.03 142.723 1605.29 141.367ZM1797.07 131.413C1798.24 130.674 1799.79 131.02 1800.52 132.186C1801.26 133.352 1800.92 134.896 1799.75 135.636C1797.66 136.963 1795.46 138.231 1793.16 139.438C1790.86 140.644 1788.55 141.783 1786.25 142.858C1784.99 143.441 1783.51 142.9 1782.92 141.648C1782.34 140.397 1782.88 138.91 1784.13 138.326C1786.37 137.284 1788.61 136.179 1790.84 135.009C1793.02 133.865 1795.1 132.664 1797.07 131.413ZM1203.61 134.402C1204.97 134.129 1206.28 135.004 1206.56 136.357C1206.83 137.711 1205.96 139.03 1204.6 139.304C1199.78 140.279 1194.92 141.296 1190.02 142.355C1188.67 142.647 1187.34 141.789 1187.04 140.439C1186.75 139.09 1187.61 137.759 1188.96 137.468C1193.89 136.404 1198.77 135.382 1203.61 134.402ZM1590.95 119.539C1591.71 118.382 1593.25 118.056 1594.41 118.81C1595.57 119.564 1595.89 121.113 1595.14 122.27C1592.56 126.225 1589.98 130.298 1587.4 134.491C1587.21 134.797 1586.96 135.047 1586.68 135.238C1588.94 135.668 1591.18 136.098 1593.4 136.525C1594.76 136.786 1595.65 138.097 1595.38 139.452C1595.12 140.808 1593.81 141.696 1592.46 141.436C1587.59 140.5 1582.65 139.556 1577.63 138.613C1576.27 138.359 1575.38 137.051 1575.63 135.694C1575.88 134.338 1577.19 133.444 1578.55 133.698C1580.11 133.991 1581.66 134.286 1583.2 134.578C1582.67 133.789 1582.61 132.732 1583.14 131.869C1585.75 127.64 1588.35 123.531 1590.95 119.539ZM1233.34 128.808C1234.7 128.571 1236 129.482 1236.23 130.843C1236.47 132.203 1235.56 133.497 1234.2 133.733C1229.33 134.579 1224.42 135.469 1219.46 136.402C1218.1 136.658 1216.8 135.764 1216.54 134.407C1216.28 133.05 1217.18 131.744 1218.54 131.488C1223.52 130.551 1228.45 129.658 1233.34 128.808ZM1546.04 130.432C1546.27 129.07 1547.57 128.154 1548.93 128.385C1553.95 129.236 1558.89 130.103 1563.76 130.978C1565.12 131.222 1566.02 132.522 1565.78 133.881C1565.53 135.24 1564.23 136.143 1562.87 135.898C1558.02 135.026 1553.1 134.163 1548.09 133.314C1546.73 133.084 1545.81 131.793 1546.04 130.432ZM1263.19 124.062C1264.56 123.865 1265.83 124.814 1266.02 126.181C1266.22 127.547 1265.27 128.814 1263.9 129.011C1259 129.716 1254.05 130.466 1249.05 131.262C1247.68 131.479 1246.4 130.549 1246.19 129.186C1245.97 127.822 1246.9 126.541 1248.26 126.324C1253.29 125.525 1258.27 124.771 1263.19 124.062ZM1519.05 123.7C1524.13 124.426 1529.12 125.178 1534.03 125.95C1535.4 126.165 1536.33 127.444 1536.11 128.808C1535.9 130.171 1534.62 131.103 1533.25 130.889C1528.36 130.12 1523.39 129.372 1518.35 128.65C1516.98 128.455 1516.03 127.188 1516.23 125.821C1516.42 124.454 1517.69 123.505 1519.05 123.7ZM1817.37 112.237C1818.16 111.099 1819.71 110.81 1820.85 111.592C1821.99 112.373 1822.28 113.929 1821.5 115.067C1818.73 119.096 1815.44 122.934 1811.6 126.519C1810.59 127.461 1809.01 127.408 1808.07 126.399C1807.13 125.391 1807.18 123.809 1808.19 122.866C1811.77 119.524 1814.82 115.961 1817.37 112.237ZM1293.15 120.215C1294.53 120.06 1295.76 121.047 1295.92 122.419C1296.07 123.791 1295.09 125.028 1293.71 125.183C1288.79 125.738 1283.81 126.338 1278.78 126.984C1277.41 127.16 1276.16 126.193 1275.98 124.823C1275.81 123.454 1276.77 122.202 1278.14 122.025C1283.2 121.376 1288.2 120.773 1293.15 120.215ZM1489.14 119.881C1494.2 120.446 1499.18 121.045 1504.08 121.672C1505.45 121.847 1506.42 123.099 1506.25 124.469C1506.07 125.838 1504.82 126.806 1503.45 126.631C1498.57 126.007 1493.61 125.411 1488.59 124.85C1487.21 124.696 1486.23 123.46 1486.38 122.088C1486.53 120.716 1487.77 119.728 1489.14 119.881ZM1323.21 117.314C1324.59 117.204 1325.79 118.23 1325.9 119.606C1326.01 120.983 1324.99 122.188 1323.61 122.298C1318.68 122.693 1313.69 123.134 1308.64 123.621C1307.27 123.754 1306.04 122.747 1305.91 121.373C1305.78 119.999 1306.79 118.776 1308.16 118.644C1313.23 118.154 1318.25 117.712 1323.21 117.314ZM1458.98 117.024C1464.09 117.42 1469.13 117.855 1474.1 118.326C1475.47 118.457 1476.48 119.676 1476.35 121.051C1476.22 122.425 1475 123.434 1473.62 123.304C1468.69 122.835 1463.68 122.402 1458.6 122.009C1457.22 121.902 1456.19 120.701 1456.3 119.324C1456.4 117.948 1457.6 116.918 1458.98 117.024ZM1353.33 115.407C1354.71 115.343 1355.88 116.41 1355.95 117.789C1356.01 119.168 1354.95 120.338 1353.57 120.402C1348.64 120.631 1343.65 120.903 1338.61 121.223C1337.23 121.31 1336.04 120.264 1335.95 118.886C1335.87 117.508 1336.91 116.32 1338.29 116.232C1343.36 115.911 1348.38 115.637 1353.33 115.407ZM1428.87 115.225C1433.98 115.439 1439.02 115.697 1443.99 115.995C1445.37 116.078 1446.42 117.262 1446.34 118.64C1446.26 120.018 1445.07 121.069 1443.7 120.986C1438.75 120.69 1433.74 120.433 1428.66 120.22C1427.28 120.162 1426.21 118.997 1426.27 117.617C1426.33 116.238 1427.49 115.167 1428.87 115.225ZM1383.48 114.534C1384.86 114.518 1385.99 115.625 1386.01 117.006C1386.02 118.386 1384.92 119.518 1383.54 119.534C1378.63 119.591 1373.66 119.691 1368.63 119.836C1367.25 119.876 1366.1 118.789 1366.06 117.409C1366.02 116.029 1367.11 114.878 1368.49 114.838C1373.55 114.692 1378.54 114.591 1383.48 114.534ZM1398.71 114.495C1403.78 114.527 1408.8 114.605 1413.75 114.725C1415.13 114.758 1416.22 115.904 1416.19 117.284C1416.16 118.664 1415.01 119.756 1413.63 119.723C1408.71 119.604 1403.72 119.527 1398.67 119.495C1397.29 119.486 1396.18 118.36 1396.19 116.979C1396.2 115.599 1397.32 114.486 1398.71 114.495ZM1607.66 95.4316C1608.48 94.3214 1610.05 94.0864 1611.16 94.9072C1612.27 95.7281 1612.5 97.2941 1611.68 98.4043C1608.88 102.201 1606.06 106.132 1603.25 110.202C1602.46 111.337 1600.9 111.62 1599.77 110.834C1598.63 110.048 1598.35 108.491 1599.13 107.355C1601.98 103.244 1604.82 99.2705 1607.66 95.4316ZM1830.14 84.2217C1831.5 84.4041 1832.47 85.6617 1832.28 87.0303C1831.62 92.0019 1830.39 96.9215 1828.55 101.703C1828.05 102.991 1826.6 103.634 1825.31 103.138C1824.03 102.642 1823.38 101.195 1823.88 99.9062C1825.58 95.5001 1826.72 90.9624 1827.33 86.3691C1827.51 85.0006 1828.77 84.0394 1830.14 84.2217ZM1625.94 72.4395C1626.84 71.3918 1628.42 71.2708 1629.46 72.1699C1630.51 73.0691 1630.63 74.6476 1629.73 75.6953C1626.65 79.2914 1623.55 83.0466 1620.44 86.9648C1619.58 88.0463 1618.01 88.2271 1616.93 87.3691C1615.85 86.5111 1615.67 84.9391 1616.52 83.8574C1619.67 79.8904 1622.81 76.0857 1625.94 72.4395ZM1826.54 55.4746C1827.86 55.0706 1829.26 55.8128 1829.67 57.1328C1831.15 61.9722 1832.13 66.93 1832.58 71.9219C1832.71 73.2968 1831.7 74.5123 1830.32 74.6367C1828.95 74.7611 1827.73 73.747 1827.61 72.3721C1827.19 67.7343 1826.27 63.116 1824.88 58.5967C1824.48 57.2766 1825.22 55.8788 1826.54 55.4746ZM1645.97 51.0615C1646.96 50.1001 1648.54 50.1238 1649.51 51.1143C1650.47 52.105 1650.44 53.6878 1649.45 54.6494C1646.08 57.925 1642.68 61.3863 1639.27 65.0391C1638.33 66.0477 1636.75 66.1015 1635.74 65.1592C1634.73 64.2165 1634.67 62.6338 1635.62 61.625C1639.08 57.9149 1642.54 54.3956 1645.97 51.0615ZM1812.04 30.335C1813.12 29.4681 1814.69 29.6365 1815.56 30.7109C1818.74 34.6535 1821.52 38.8546 1823.87 43.2393C1824.52 44.4564 1824.06 45.9722 1822.85 46.624C1821.63 47.2758 1820.11 46.8168 1819.46 45.5996C1817.26 41.491 1814.65 37.5509 1811.67 33.8506C1810.8 32.776 1810.97 31.2019 1812.04 30.335ZM1668.21 31.7891C1669.31 30.9511 1670.88 31.1614 1671.72 32.2588C1672.56 33.3562 1672.35 34.9248 1671.25 35.7627C1667.57 38.5691 1663.86 41.5921 1660.12 44.8398C1659.08 45.7451 1657.5 45.6342 1656.6 44.5918C1655.69 43.5493 1655.8 41.9698 1656.85 41.0645C1660.66 37.7505 1664.45 34.6614 1668.21 31.7891ZM1692.86 15.7305C1694.08 15.0746 1695.59 15.5283 1696.25 16.7432C1696.91 17.958 1696.45 19.474 1695.24 20.1299C1691.18 22.3185 1687.07 24.769 1682.91 27.4941C1681.76 28.2503 1680.21 27.9265 1679.45 26.7715C1678.69 25.6163 1679.02 24.0668 1680.17 23.3105C1684.45 20.5112 1688.68 17.9886 1692.86 15.7305ZM1789.41 12.1777C1790.1 10.9824 1791.63 10.5725 1792.82 11.2627C1797.23 13.8072 1801.33 16.7205 1805.09 19.9355C1806.14 20.8328 1806.26 22.4106 1805.36 23.46C1804.46 24.5093 1802.89 24.6327 1801.84 23.7354C1798.31 20.7171 1794.46 17.983 1790.32 15.5938C1789.13 14.9034 1788.72 13.3735 1789.41 12.1777ZM1720.25 4.35449C1721.57 3.9704 1722.96 4.73436 1723.34 6.06055C1723.73 7.38673 1722.96 8.77312 1721.64 9.15723C1717.25 10.4294 1712.76 12.0114 1708.18 13.9258C1706.91 14.4585 1705.45 13.8575 1704.91 12.584C1704.38 11.3104 1704.98 9.84648 1706.25 9.31348C1711 7.32795 1715.67 5.68158 1720.25 4.35449ZM1761.8 3.27735C1762.03 1.91572 1763.32 0.996226 1764.68 1.22363C1769.73 2.0679 1774.57 3.33324 1779.17 4.96778C1780.47 5.43015 1781.15 6.85926 1780.69 8.16016C1780.23 9.46107 1778.8 10.1407 1777.5 9.67871C1773.18 8.14223 1768.62 6.95117 1763.85 6.15528C1762.49 5.92772 1761.57 4.63911 1761.8 3.27735ZM1749.74 1.77083e-06C1751.12 0.000532361 1752.24 1.12043 1752.24 2.50098C1752.24 3.8813 1751.12 5.00001 1749.74 5C1745.15 4.99912 1740.42 5.34861 1735.54 6.08594C1734.17 6.2922 1732.9 5.3533 1732.69 3.98828C1732.48 2.62307 1733.42 1.34886 1734.79 1.14258C1739.91 0.368624 1744.9 -0.000933539 1749.74 1.77083e-06Z" fill="url(#paint1_linear_37_992)"/>
<path d="M1536.73 647.574C1535.89 646.483 1534.32 646.283 1533.23 647.128C1529.12 650.306 1525.12 653.399 1521.22 656.393C1520.13 657.235 1519.92 658.805 1520.77 659.899C1521.61 660.994 1523.18 661.198 1524.27 660.356C1528.17 657.359 1532.18 654.262 1536.29 651.081C1537.38 650.236 1537.58 648.666 1536.73 647.574Z" fill="url(#paint2_linear_37_992)"/>
<path d="M1560.61 628.975C1559.76 627.888 1558.19 627.696 1557.11 628.546C1553.07 631.699 1549.1 634.8 1545.19 637.842C1544.1 638.69 1543.9 640.261 1544.75 641.35C1545.6 642.44 1547.17 642.636 1548.26 641.788C1552.17 638.744 1556.15 635.639 1560.18 632.484C1561.27 631.634 1561.46 630.063 1560.61 628.975Z" fill="url(#paint3_linear_37_992)"/>
<path d="M1586.43 610.278C1585.58 609.193 1584.01 609.006 1582.92 609.86C1578.92 613.01 1574.95 616.131 1571.02 619.215C1569.93 620.067 1569.74 621.639 1570.59 622.725C1571.45 623.812 1573.02 624.001 1574.1 623.148C1578.04 620.062 1582.01 616.94 1586.01 613.789C1587.1 612.935 1587.29 611.363 1586.43 610.278Z" fill="url(#paint4_linear_37_992)"/>
<path d="M1610.2 591.506C1609.34 590.423 1607.77 590.241 1606.69 591.098C1602.72 594.241 1598.76 597.373 1594.81 600.486C1593.73 601.342 1593.54 602.914 1594.4 603.998C1595.25 605.081 1596.83 605.266 1597.91 604.411C1601.86 601.296 1605.82 598.162 1609.79 595.017C1610.87 594.161 1611.06 592.588 1610.2 591.506Z" fill="url(#paint5_linear_37_992)"/>
<path d="M1633.92 572.683C1633.06 571.603 1631.48 571.424 1630.4 572.283C1626.46 575.418 1622.51 578.558 1618.55 581.695C1617.47 582.553 1617.29 584.126 1618.15 585.208C1619.01 586.289 1620.58 586.47 1621.66 585.612C1625.62 582.474 1629.57 579.333 1633.52 576.197C1634.6 575.338 1634.78 573.764 1633.92 572.683Z" fill="url(#paint6_linear_37_992)"/>
<path d="M1657.6 553.806C1656.74 552.727 1655.17 552.551 1654.09 553.412C1650.17 556.54 1646.22 559.691 1642.25 562.854C1641.17 563.715 1640.99 565.288 1641.85 566.368C1642.71 567.448 1644.28 567.626 1645.36 566.766C1649.34 563.601 1653.29 560.449 1657.21 557.319C1658.29 556.458 1658.46 554.884 1657.6 553.806Z" fill="url(#paint7_linear_37_992)"/>
<path d="M1681.25 534.879C1680.39 533.801 1678.82 533.628 1677.74 534.491C1673.85 537.607 1669.91 540.766 1665.92 543.957C1664.84 544.819 1664.67 546.393 1665.53 547.471C1666.39 548.549 1667.96 548.724 1669.04 547.861C1673.03 544.669 1676.98 541.51 1680.87 538.392C1681.94 537.529 1682.12 535.956 1681.25 534.879Z" fill="url(#paint8_linear_37_992)"/>
<path d="M1704.83 515.934C1703.97 514.859 1702.39 514.689 1701.32 515.555C1697.48 518.644 1693.55 521.803 1689.54 525.02C1688.47 525.885 1688.29 527.459 1689.16 528.535C1690.02 529.612 1691.6 529.783 1692.67 528.919C1696.68 525.7 1700.61 522.541 1704.45 519.45C1705.53 518.584 1705.7 517.01 1704.83 515.934Z" fill="url(#paint9_linear_37_992)"/>
<path d="M1728.43 496.888C1727.56 495.814 1725.99 495.648 1724.92 496.516C1721.13 499.577 1717.19 502.758 1713.13 506.039C1712.05 506.906 1711.88 508.48 1712.75 509.555C1713.62 510.629 1715.19 510.797 1716.26 509.931C1720.33 506.648 1724.27 503.467 1728.06 500.403C1729.13 499.535 1729.3 497.961 1728.43 496.888Z" fill="url(#paint10_linear_37_992)"/>
<path d="M1751.93 477.81C1751.05 476.74 1749.48 476.579 1748.41 477.451C1744.76 480.421 1740.83 483.618 1736.64 487.016C1735.57 487.885 1735.41 489.46 1736.28 490.532C1737.15 491.604 1738.72 491.768 1739.79 490.898C1743.98 487.499 1747.92 484.299 1751.57 481.327C1752.64 480.455 1752.8 478.881 1751.93 477.81Z" fill="url(#paint11_linear_37_992)"/>
<path d="M1774.98 458.516C1774.05 457.49 1772.47 457.406 1771.45 458.329C1769.5 460.083 1767.64 461.683 1765.91 463.114C1764.16 464.556 1762.23 466.145 1760.13 467.871C1759.06 468.747 1758.91 470.322 1759.78 471.39C1760.66 472.457 1762.23 472.612 1763.3 471.736C1765.41 470.007 1767.34 468.415 1769.09 466.97C1770.88 465.489 1772.79 463.842 1774.79 462.047C1775.82 461.124 1775.9 459.543 1774.98 458.516Z" fill="url(#paint12_linear_37_992)"/>
<path d="M1795.83 437.041C1794.8 436.123 1793.22 436.214 1792.3 437.245C1788.88 441.091 1785.47 444.717 1782.17 448.064C1781.2 449.047 1781.21 450.63 1782.19 451.6C1783.17 452.569 1784.76 452.558 1785.72 451.575C1789.08 448.168 1792.55 444.481 1796.03 440.57C1796.95 439.539 1796.86 437.959 1795.83 437.041Z" fill="url(#paint13_linear_37_992)"/>
<path d="M1814.31 413.504C1813.19 412.704 1811.62 412.967 1810.82 414.093C1807.95 418.141 1804.94 422.096 1801.88 425.914C1801.02 426.991 1801.19 428.565 1802.27 429.429C1803.35 430.292 1804.92 430.119 1805.78 429.042C1808.9 425.155 1811.96 421.123 1814.9 416.99C1815.7 415.865 1815.44 414.304 1814.31 413.504Z" fill="url(#paint14_linear_37_992)"/>
<path d="M1829.47 387.741C1828.24 387.129 1826.74 387.637 1826.12 388.874C1823.99 393.188 1821.59 397.499 1818.98 401.76C1818.26 402.938 1818.64 404.476 1819.81 405.196C1820.99 405.916 1822.53 405.544 1823.25 404.366C1825.92 399.995 1828.4 395.555 1830.61 391.091C1831.22 389.853 1830.71 388.353 1829.47 387.741Z" fill="url(#paint15_linear_37_992)"/>
<defs>
<linearGradient id="paint0_linear_37_992" x1="142" y1="324" x2="563.5" y2="533" gradientUnits="userSpaceOnUse">
<stop stop-color="#162661"/>
<stop offset="1" stop-color="white"/>
</linearGradient>
<linearGradient id="paint1_linear_37_992" x1="1880" y1="40" x2="964" y2="259" gradientUnits="userSpaceOnUse">
<stop stop-color="#162661"/>
<stop offset="1" stop-color="white"/>
</linearGradient>
<linearGradient id="paint2_linear_37_992" x1="1880" y1="40" x2="964" y2="259" gradientUnits="userSpaceOnUse">
<stop stop-color="#162661"/>
</linearGradient>
<linearGradient id="paint3_linear_37_992" x1="1880" y1="40" x2="964" y2="259" gradientUnits="userSpaceOnUse">
<stop stop-color="#162661"/>
</linearGradient>
<linearGradient id="paint4_linear_37_992" x1="1880" y1="40" x2="964" y2="259" gradientUnits="userSpaceOnUse">
<stop stop-color="#162661"/>
</linearGradient>
<linearGradient id="paint5_linear_37_992" x1="1880" y1="40" x2="964" y2="259" gradientUnits="userSpaceOnUse">
<stop stop-color="#162661"/>
</linearGradient>
<linearGradient id="paint6_linear_37_992" x1="1880" y1="40" x2="964" y2="259" gradientUnits="userSpaceOnUse">
<stop stop-color="#162661"/>
</linearGradient>
<linearGradient id="paint7_linear_37_992" x1="1880" y1="40" x2="964" y2="259" gradientUnits="userSpaceOnUse">
<stop stop-color="#162661"/>
</linearGradient>
<linearGradient id="paint8_linear_37_992" x1="1880" y1="40" x2="964" y2="259" gradientUnits="userSpaceOnUse">
<stop stop-color="#162661"/>
</linearGradient>
<linearGradient id="paint9_linear_37_992" x1="1880" y1="40" x2="964" y2="259" gradientUnits="userSpaceOnUse">
<stop stop-color="#162661"/>
</linearGradient>
<linearGradient id="paint10_linear_37_992" x1="1880" y1="40" x2="964" y2="259" gradientUnits="userSpaceOnUse">
<stop stop-color="#162661"/>
</linearGradient>
<linearGradient id="paint11_linear_37_992" x1="1880" y1="40" x2="964" y2="259" gradientUnits="userSpaceOnUse">
<stop stop-color="#162661"/>
</linearGradient>
<linearGradient id="paint12_linear_37_992" x1="1880" y1="40" x2="964" y2="259" gradientUnits="userSpaceOnUse">
<stop stop-color="#162661"/>
</linearGradient>
<linearGradient id="paint13_linear_37_992" x1="1880" y1="40" x2="964" y2="259" gradientUnits="userSpaceOnUse">
<stop stop-color="#162661"/>
</linearGradient>
<linearGradient id="paint14_linear_37_992" x1="1880" y1="40" x2="964" y2="259" gradientUnits="userSpaceOnUse">
<stop stop-color="#162661"/>
</linearGradient>
<linearGradient id="paint15_linear_37_992" x1="1880" y1="40" x2="964" y2="259" gradientUnits="userSpaceOnUse">
<stop stop-color="#162661"/>
</linearGradient>
</defs>
</svg>
