<svg width="149" height="53" viewBox="0 0 149 53" fill="none" xmlns="http://www.w3.org/2000/svg">
<path d="M33.4172 7.39728C32.6119 6.57169 32.2107 5.54496 32.2107 4.31708C32.2107 3.08921 32.6119 2.06247 33.4172 1.23688C34.2226 0.411294 35.2241 0 36.4219 0C37.6196 0 38.6212 0.414296 39.4265 1.23688C40.2319 2.06247 40.6331 3.08921 40.6331 4.31708C40.6331 5.54496 40.2289 6.57169 39.4265 7.39728C38.6212 8.22287 37.6196 8.63417 36.4219 8.63417C35.2241 8.63417 34.2226 8.22287 33.4172 7.39728ZM33.1654 12.0896H39.6813V40.8802H33.1654V12.0926V12.0896Z" fill="#FFF3E8"/>
<path d="M47.7698 39.1542C46.1591 37.6201 45.3538 35.4886 45.3538 32.7626C45.3538 31.3036 45.5793 29.9977 46.0273 28.8478C46.4754 27.698 47.2075 26.7163 48.2178 25.9117C49.2282 25.1042 50.5401 24.4917 52.1508 24.0684C53.7615 23.6451 55.709 23.435 57.9932 23.435H63.5544V21.8799C63.5544 20.3818 63.1239 19.223 62.263 18.3974C61.402 17.5718 60.0724 17.1605 58.2743 17.1605C56.4762 17.1605 55.1848 17.4967 54.3999 18.1692C53.6151 18.8417 53.1465 19.6943 52.9972 20.733H46.4812C46.5574 19.4271 46.8561 18.2082 47.3803 17.0764C47.9045 15.9446 48.6542 14.9659 49.6264 14.1403C50.5987 13.3147 51.8082 12.6723 53.249 12.213C54.6898 11.7506 56.3649 11.5225 58.2773 11.5225C62.2835 11.5225 65.25 12.4621 67.1799 14.3445C69.1069 16.2268 70.0733 18.9318 70.0733 22.4623V40.8864H65.0187L64.4008 37.1428H64.2895C63.203 38.5237 61.8735 39.5895 60.3009 40.337C58.7282 41.0846 57.0239 41.4598 55.1906 41.4598C51.858 41.4598 49.3863 40.6913 47.7756 39.1572L47.7698 39.1542ZM59.1997 35.2964C60.0783 34.9512 60.8456 34.4708 61.5015 33.8584C62.1575 33.246 62.6612 32.5345 63.0185 31.7269C63.3729 30.9223 63.5515 30.0397 63.5515 29.079V28.3885H58.2714C56.0252 28.3885 54.4526 28.7638 53.5536 29.5113C52.6545 30.2588 52.2065 31.2676 52.2065 32.5345C52.2065 33.4952 52.5345 34.2817 53.1904 34.8942C53.8464 35.5096 54.8831 35.8158 56.3064 35.8158C57.3548 35.8158 58.3183 35.6417 59.1997 35.2964Z" fill="#FFF3E8"/>
<path d="M80.9907 39.6436C79.7344 38.818 78.8178 37.8693 78.2379 36.7945C77.6581 35.7198 77.3213 34.654 77.2276 33.5972C77.1339 32.5435 77.087 31.805 77.087 31.3817V0.57666H83.603V30.6912C83.603 32.0722 83.9222 33.1019 84.5577 33.7714C85.1931 34.4439 86.1683 34.7801 87.4774 34.7801H88.8801V40.8834H86.2972C84.013 40.8834 82.2441 40.4722 80.9907 39.6466V39.6436Z" fill="#FFF3E8"/>
<path d="M129.464 39.412C128.023 38.8176 126.796 37.944 125.785 36.7912C124.775 35.6383 123.987 34.2093 123.425 32.5011C122.863 30.7929 122.582 28.8055 122.582 26.5418V25.2749C122.582 23.0504 122.863 21.0809 123.425 19.3727C123.987 17.6645 124.781 16.2265 125.812 15.0556C126.84 13.8848 128.075 13.0022 129.519 12.4078C130.96 11.8133 132.541 11.5161 134.266 11.5161C136.176 11.5161 137.862 11.8524 139.321 12.5248C140.782 13.1973 142.091 14.206 143.254 15.548H143.365L143.872 12.0925H148.982V41.1713C148.982 45.0471 147.972 47.9832 145.948 49.9796C143.924 51.976 140.779 52.9727 136.512 52.9727C132.544 52.9727 129.633 52.1381 127.78 50.4689C125.926 48.7997 124.848 46.4671 124.549 43.4739H131.402C131.701 44.7799 132.234 45.7676 133.004 46.4401C133.771 47.1095 134.943 47.4488 136.515 47.4488C138.539 47.4488 140.035 46.9294 141.008 45.8937C141.98 44.8579 142.469 43.1887 142.469 40.8831V36.8512H142.358C141.459 37.926 140.287 38.7696 138.846 39.385C137.406 40.0005 135.88 40.3067 134.269 40.3067C132.509 40.3067 130.907 40.0095 129.466 39.415L129.464 39.412ZM140.724 32.3C141.883 31.0331 142.466 29.1147 142.466 26.5418V25.2749C142.466 22.7411 141.877 20.8318 140.697 19.5468C139.517 18.2619 137.936 17.6165 135.95 17.6165C133.965 17.6165 132.336 18.2499 131.177 19.5168C130.017 20.7837 129.437 22.7051 129.437 25.2749V26.5418C129.437 29.0757 130.026 30.985 131.206 32.2699C132.386 33.5579 133.968 34.2003 135.953 34.2003C137.939 34.2003 139.567 33.5669 140.727 32.3H140.724Z" fill="#FFF3E8"/>
<path d="M6.77949 40.5917C5.35917 40.0183 4.14384 39.1356 3.13643 37.9468C2.1261 36.7609 1.35004 35.2839 0.811196 33.5216C0.269423 31.7594 0 29.7089 0 27.3732V26.1093C0 23.7736 0.281137 21.7232 0.840481 19.9609C1.39983 18.1987 2.18467 16.7246 3.195 15.5358C4.20241 14.3499 5.41774 13.4583 6.83806 12.8639C8.25839 12.2694 9.8105 11.9722 11.4915 11.9722C13.1724 11.9722 14.6103 12.2784 16.0306 12.8909C17.451 13.5033 18.5902 14.3289 19.4511 15.3616H19.5624V1.22754H26.0081V40.8799H21.0179L20.4585 37.4904H20.3473C19.2256 38.8324 17.9371 39.8291 16.4787 40.4776C15.0203 41.129 13.3569 41.4533 11.4885 41.4533C9.7695 41.4533 8.19982 41.1651 6.77949 40.5917ZM17.8785 33.4946C19.0002 32.2127 19.5595 30.1532 19.5595 27.3162V26.0523C19.5595 23.2933 18.9797 21.2639 17.8229 19.9609C16.6632 18.658 15.114 18.0065 13.1695 18.0065C11.225 18.0065 9.58207 18.649 8.46045 19.9309C7.33884 21.2158 6.77949 23.2753 6.77949 26.1093V27.3732C6.77949 30.1322 7.35934 32.1616 8.5161 33.4646C9.67286 34.7675 11.225 35.419 13.1695 35.419C15.114 35.419 16.7569 34.7765 17.8785 33.4946Z" fill="#FFF3E8"/>
<path d="M103.329 36.308C98.3803 33.6782 95.3053 28.4424 95.3053 22.6483C95.3053 16.8541 98.3656 11.6424 103.294 9.00654C104.161 8.54121 104.507 7.42741 104.062 6.52077C103.845 6.07645 103.476 5.75222 103.022 5.60211C102.58 5.45501 102.094 5.50004 101.681 5.71919C95.566 8.99153 91.7677 15.4792 91.7677 22.6513C91.7677 26.2268 92.7224 29.7123 94.5322 32.7295C96.2893 35.6626 98.7756 38.0403 101.725 39.6074C101.976 39.7425 102.246 39.8085 102.524 39.8085C103.195 39.8085 103.798 39.4213 104.103 38.7968C104.545 37.8872 104.196 36.7734 103.329 36.311V36.308Z" fill="#FA2D1A"/>
<path d="M111.491 4.1582H109.567C108.7 4.1582 107.995 4.89373 107.995 5.80038C107.995 6.70702 108.7 7.44255 109.567 7.44255H111.491C112.358 7.44255 113.064 6.70702 113.064 5.80038C113.064 4.89373 112.358 4.1582 111.491 4.1582Z" fill="#FA2D1A"/>
<path d="M123.109 9.45083L121.732 8.04883C121.436 7.74861 121.047 7.5835 120.614 7.5835C120.195 7.5895 119.799 7.76663 119.507 8.07885C118.9 8.72731 118.915 9.76906 119.536 10.4025L120.915 11.8045C121.211 12.1047 121.6 12.2698 122.01 12.2698C122.42 12.2698 122.839 12.0927 123.138 11.7745C123.741 11.126 123.729 10.0843 123.109 9.45083Z" fill="#FA2D1A"/>
<path d="M113.808 39.6134C113.732 39.1751 113.494 38.7998 113.143 38.5507C112.8 38.3075 112.387 38.2174 111.98 38.2955C111.966 38.2955 110.332 38.5927 108.809 38.2955C108.396 38.2174 107.983 38.3075 107.643 38.5477C107.292 38.7968 107.055 39.1721 106.976 39.6104C106.817 40.5021 107.383 41.3607 108.235 41.5258C108.876 41.6489 109.576 41.7119 110.32 41.7119C111.526 41.7119 112.449 41.5438 112.551 41.5258C113.404 41.3607 113.969 40.5021 113.814 39.6134H113.808Z" fill="#FA2D1A"/>
<path d="M122.567 34.6269C122.28 34.3056 121.893 34.1195 121.475 34.1045H121.416C121.018 34.1045 120.637 34.2606 120.347 34.5428C120.335 34.5548 119.07 35.7677 117.615 36.5362C116.842 36.9445 116.531 37.9352 116.924 38.7428C117.193 39.2982 117.732 39.6435 118.326 39.6435C118.575 39.6435 118.813 39.5834 119.035 39.4663C120.848 38.5056 122.327 37.1036 122.488 36.9475C123.123 36.3321 123.158 35.2903 122.57 34.6269H122.567Z" fill="#FA2D1A"/>
</svg>
