<svg width="50" height="50" viewBox="0 0 50 50" fill="none" xmlns="http://www.w3.org/2000/svg">
<circle cx="24.7283" cy="24.7283" r="24.7283" fill="#C8D4FB"/>
<path d="M14.4161 33.484C13.8218 34.0783 13.8218 35.0418 14.4161 35.6361C15.0104 36.2304 15.9739 36.2304 16.5682 35.6361L15.4921 34.5601L14.4161 33.484ZM36.0814 15.4925C36.0814 14.6521 35.4001 13.9707 34.5597 13.9707L20.864 13.9707C20.0236 13.9707 19.3423 14.6521 19.3423 15.4925C19.3423 16.3329 20.0236 17.0142 20.864 17.0142L33.038 17.0142L33.038 29.1881C33.038 30.0286 33.7193 30.7099 34.5597 30.7099C35.4001 30.7099 36.0814 30.0286 36.0814 29.1881L36.0814 15.4925ZM15.4921 34.5601L16.5682 35.6361L35.6357 16.5685L34.5597 15.4925L33.4837 14.4165L14.4161 33.484L15.4921 34.5601Z" fill="#FFF3E8"/>
</svg>
