<svg width="1423" height="341" viewBox="0 0 1423 341" fill="none" xmlns="http://www.w3.org/2000/svg">
<mask id="mask0_37_770" style="mask-type:alpha" maskUnits="userSpaceOnUse" x="0" y="0" width="1423" height="341">
<rect width="1423" height="340.07" fill="#D9D9D9"/>
</mask>
<g mask="url(#mask0_37_770)">
<path d="M71.3427 224.846C58.0506 219.478 46.7055 211.234 37.2325 200.114C27.797 189.032 20.5331 175.228 15.4409 158.739C10.3862 142.251 7.84009 123.117 7.84009 101.26V89.4498C7.84009 67.5931 10.4611 48.4206 15.703 31.9706C20.945 15.4822 28.2837 1.71631 37.7567 -9.40375C47.1922 -20.4855 58.5748 -28.8447 71.8669 -34.4047C85.159 -39.9648 99.6867 -42.7256 115.413 -42.7256C131.139 -42.7256 144.618 -39.8497 157.91 -34.1363C171.202 -28.3846 181.873 -20.7156 189.923 -11.0143H190.972V-143.228H251.292V227.492H204.601L199.359 195.781H198.311C187.827 208.319 175.733 217.637 162.104 223.734C148.474 229.831 132.898 232.86 115.413 232.86C99.3123 232.86 84.6348 230.176 71.3427 224.808V224.846ZM175.208 158.471C185.692 146.469 190.934 127.22 190.934 100.723V88.913C190.934 63.1068 185.505 44.126 174.684 31.9706C163.826 19.8152 149.336 13.7183 131.138 13.7183C112.941 13.7183 97.5525 19.7385 87.0686 31.7021C76.5847 43.7041 71.3427 62.9534 71.3427 89.4498V101.26C71.3427 127.066 76.7719 146.047 87.5928 158.203C98.4137 170.396 112.941 176.455 131.138 176.455C149.336 176.455 164.724 170.473 175.208 158.471Z" fill="white"/>
<path d="M323.968 -84.9405C316.442 -92.6479 312.698 -102.234 312.698 -113.699C312.698 -125.165 316.442 -134.751 323.968 -142.458C331.494 -150.165 340.854 -154 352.05 -154C363.245 -154 372.606 -150.165 380.132 -142.458C387.658 -134.751 391.402 -125.165 391.402 -113.699C391.402 -102.234 387.658 -92.6479 380.132 -84.9405C372.606 -77.2332 363.245 -73.3987 352.05 -73.3987C340.854 -73.3987 331.494 -77.2332 323.968 -84.9405ZM321.609 -41.1505H382.453V227.495H321.609V-41.1505Z" fill="white"/>
<path d="M458.012 211.385C442.96 197.082 435.472 177.181 435.472 151.758C435.472 138.146 437.569 125.952 441.762 115.215C445.956 104.479 452.77 95.3525 462.206 87.7985C471.641 80.2446 483.885 74.5312 498.937 70.62C513.989 66.6704 532.149 64.7148 553.491 64.7148H605.424V50.2204C605.424 36.2628 601.38 25.4111 593.367 17.7038C585.317 9.99643 572.924 6.16191 556.112 6.16191C539.3 6.16191 527.244 9.30621 519.905 15.5565C512.566 21.8067 508.185 29.7825 506.8 39.4838H445.956C446.667 27.3284 449.438 15.9399 454.343 5.35667C459.248 -5.18822 466.212 -14.3527 475.311 -22.06C484.409 -29.7674 495.68 -35.7492 509.159 -40.0439C522.601 -44.3385 538.289 -46.4858 556.112 -46.4858C593.517 -46.4858 621.262 -37.7048 639.272 -20.1428C657.282 -2.58075 666.305 22.6503 666.305 55.627V227.566H619.09L613.324 192.634H612.276C602.129 205.518 589.698 215.488 575.02 222.466C560.343 229.445 544.43 232.935 527.281 232.935C496.129 232.935 473.064 225.764 458.012 211.423V211.385ZM564.761 175.379C572.961 172.158 580.15 167.671 586.291 161.958C592.394 156.244 597.112 149.611 600.444 142.095C603.776 134.58 605.424 126.335 605.424 117.363V110.921H556.112C535.107 110.921 520.429 114.41 512.042 121.389C503.655 128.368 499.461 137.762 499.461 149.611C499.461 158.584 502.532 165.907 508.635 171.659C514.738 177.411 524.473 180.249 537.765 180.249C547.538 180.249 556.561 178.638 564.799 175.417L564.761 175.379Z" fill="white"/>
<path d="M768.336 215.952C756.617 208.245 748.042 199.387 742.613 189.341C737.184 179.333 734.039 169.363 733.178 159.508C732.317 149.654 731.867 142.752 731.867 138.84V-148.594H792.711V132.398C792.711 145.282 795.669 154.869 801.623 161.157C807.576 167.407 816.637 170.552 828.918 170.552H842.023V227.494H817.873C796.531 227.494 780.018 223.66 768.299 215.952H768.336Z" fill="white"/>
<path d="M901.857 197.964C879.467 174.688 868.271 141.75 868.271 99.1104V87.3001C868.271 66.1719 871.154 47.3445 876.92 30.8945C882.687 14.4061 891.074 0.448505 902.119 -11.0167C913.127 -22.4818 926.42 -31.2629 941.996 -37.3597C957.572 -43.4566 974.945 -46.4858 994.191 -46.4858C1033.69 -46.4858 1064.58 -34.8289 1086.79 -11.5535C1108.99 11.722 1120.11 44.6987 1120.11 87.3001V99.1104C1120.11 120.238 1117.23 139.066 1111.46 155.516C1105.69 172.004 1097.31 185.962 1086.26 197.427C1075.25 208.892 1062.04 217.673 1046.65 223.77C1031.26 229.867 1013.77 232.896 994.191 232.896C955.026 232.896 924.248 221.278 901.857 197.964ZM1039.57 157.395C1050.58 145.048 1056.08 125.607 1056.08 99.1104V87.3001C1056.08 61.4939 1050.47 42.2446 1039.31 29.5524C1028.11 16.8602 1013.06 10.4949 994.191 10.4949C975.32 10.4949 959.818 16.6685 948.81 29.0156C937.802 41.3627 932.298 60.8036 932.298 87.3001V99.1104C932.298 124.917 937.877 144.166 949.072 156.858C960.268 169.589 975.32 175.916 994.191 175.916C1013.06 175.916 1028.56 169.742 1039.57 157.395Z" fill="white"/>
<path d="M1221.09 213.804C1207.61 208.244 1196.16 200.114 1186.72 189.339C1177.28 178.603 1169.95 165.259 1164.67 149.307C1159.42 133.356 1156.8 114.835 1156.8 93.7069V81.8966C1156.8 61.1136 1159.42 42.7463 1164.67 26.8331C1169.91 10.8816 1177.32 -2.53922 1186.98 -13.4676C1196.6 -24.3959 1208.14 -32.6401 1221.62 -38.2001C1235.06 -43.7602 1249.85 -46.521 1265.95 -46.521C1283.77 -46.521 1299.53 -43.3767 1313.16 -37.1265C1326.79 -30.8379 1339.04 -21.4433 1349.89 -8.90449H1350.94L1355.66 -41.1527H1403.4V230.177C1403.4 266.336 1393.96 293.753 1375.06 312.389C1356.18 331.025 1326.79 340.342 1286.92 340.342C1249.85 340.342 1222.63 332.558 1205.33 316.952C1188.03 301.345 1177.96 279.604 1175.15 251.689H1239.14C1241.95 263.844 1246.93 273.085 1254.08 279.374C1261.23 285.624 1272.16 288.768 1286.88 288.768C1305.75 288.768 1319.75 283.937 1328.85 274.274C1337.95 264.611 1342.48 249.004 1342.48 227.531V189.915H1341.43C1333.05 199.961 1322.11 207.822 1308.63 213.574C1295.15 219.325 1280.93 222.163 1265.87 222.163C1249.44 222.163 1234.46 219.402 1221.02 213.842L1221.09 213.804ZM1326.27 147.467C1337.09 135.656 1342.52 117.749 1342.52 93.7452V81.935C1342.52 58.2761 1337.01 40.4839 1326.01 28.4819C1315 16.4799 1300.21 10.4981 1281.67 10.4981C1263.14 10.4981 1247.9 16.4032 1237.08 28.2135C1226.22 40.0238 1220.83 57.9309 1220.83 81.935V93.7452C1220.83 117.404 1226.33 135.196 1237.34 147.198C1248.35 159.2 1263.14 165.182 1281.67 165.182C1300.21 165.182 1315.41 159.277 1326.27 147.467Z" fill="white"/>
</g>
</svg>
