<svg width="1920" height="860" viewBox="0 0 1920 860" fill="none" xmlns="http://www.w3.org/2000/svg">
<g clip-path="url(#clip0_2017_1330)">
<rect width="1920" height="860" fill="white"/>
<g clip-path="url(#clip1_2017_1330)">
<rect width="1920" height="900" transform="translate(0 -20)" fill="url(#paint0_linear_2017_1330)"/>
<g filter="url(#filter0_f_2017_1330)" style="mix-blend-mode:color-dodge">
<path d="M428.939 1142.66C400.191 509.9 810.501 -140.082 915.039 -114.255C1019.58 -88.4277 1011.74 501.291 1121.5 707.908C1198.93 853.657 1322.69 1110.52 1402.83 1142.66H1432.5C1423.54 1147.25 1413.58 1146.98 1402.83 1142.66H428.939Z" fill="url(#paint1_radial_2017_1330)" fill-opacity="0.5"/>
</g>
</g>
<path d="M87.3664 856.772C69.0792 849.562 53.4707 838.491 40.4378 823.557C27.4565 808.675 17.463 790.137 10.4572 767.993C3.5029 745.85 0 720.154 0 690.802V674.941C0 645.588 3.60592 619.841 10.8178 597.749C18.0296 575.606 28.1262 557.119 41.159 542.185C54.1403 527.303 69.8004 516.077 88.0875 508.61C106.375 501.143 126.362 497.436 147.997 497.436C169.633 497.436 188.178 501.298 206.465 508.971C224.752 516.695 239.433 526.994 250.509 540.023H251.951V362.466H334.939V860.325H270.702L263.49 817.738H262.048C247.624 834.577 230.985 847.091 212.234 855.278C193.483 863.466 172.054 867.534 147.997 867.534C125.847 867.534 105.654 863.93 87.3664 856.72V856.772ZM230.264 767.633C244.688 751.515 251.899 725.664 251.899 690.081V674.22C251.899 639.563 244.43 614.073 229.543 597.749C214.604 581.425 194.668 573.237 169.633 573.237C144.597 573.237 123.426 581.322 109.002 597.389C94.5782 613.507 87.3664 639.358 87.3664 674.941V690.802C87.3664 725.458 94.8358 750.948 109.723 767.273C124.61 783.648 144.597 791.784 169.633 791.784C194.668 791.784 215.84 783.751 230.264 767.633Z" fill="#C8D4FB" fill-opacity="0.4"/>
<path d="M434.925 440.744C424.571 430.393 419.42 417.519 419.42 402.122C419.42 386.725 424.571 373.851 434.925 363.5C445.28 353.15 458.158 348 473.56 348C488.963 348 501.841 353.15 512.195 363.5C522.549 373.851 527.701 386.725 527.701 402.122C527.701 417.519 522.549 430.393 512.195 440.744C501.841 451.094 488.963 456.244 473.56 456.244C458.158 456.244 445.28 451.094 434.925 440.744ZM431.68 499.551H515.389V860.329H431.68V499.551Z" fill="#C8D4FB" fill-opacity="0.4"/>
<path d="M619.343 838.697C598.635 819.49 588.332 792.763 588.332 758.622C588.332 740.341 591.217 723.965 596.986 709.546C602.756 695.128 612.131 682.872 625.113 672.727C638.094 662.582 654.939 654.91 675.647 649.657C696.355 644.353 721.339 641.727 750.702 641.727H822.15V622.261C822.15 603.517 816.587 588.944 805.563 578.593C794.488 568.243 777.437 563.093 754.308 563.093C731.178 563.093 714.591 567.316 704.494 575.709C694.398 584.103 688.371 594.814 686.465 607.843H602.756C603.735 591.519 607.547 576.224 614.295 562.012C621.043 547.85 630.624 535.543 643.142 525.192C655.66 514.842 671.165 506.808 689.71 501.041C708.203 495.273 729.787 492.39 754.308 492.39C805.769 492.39 843.941 504.182 868.718 527.767C893.496 551.352 905.911 585.236 905.911 629.522V860.429H840.953L833.02 813.516H831.577C817.617 830.819 800.515 844.207 780.322 853.58C760.129 862.952 738.236 867.638 714.642 867.638C671.784 867.638 640.051 858.008 619.343 838.749V838.697ZM766.207 790.343C777.489 786.017 787.379 779.992 795.827 772.32C804.224 764.647 810.715 755.738 815.299 745.645C819.884 735.552 822.15 724.48 822.15 712.43V703.779H754.308C725.409 703.779 705.216 708.465 693.677 717.837C682.138 727.209 676.368 739.826 676.368 755.738C676.368 767.788 680.592 777.624 688.989 785.348C697.386 793.072 710.779 796.883 729.066 796.883C742.511 796.883 754.926 794.72 766.259 790.395L766.207 790.343Z" fill="#C8D4FB" fill-opacity="0.4"/>
<path d="M1046.29 844.829C1030.16 834.478 1018.37 822.583 1010.9 809.091C1003.43 795.65 999.1 782.262 997.915 769.027C996.73 755.793 996.112 746.524 996.112 741.271V355.26H1079.82V732.62C1079.82 749.922 1083.89 762.796 1092.08 771.242C1100.27 779.635 1112.74 783.858 1129.63 783.858H1147.66V860.329H1114.44C1085.08 860.329 1062.36 855.179 1046.23 844.829H1046.29Z" fill="#C8D4FB" fill-opacity="0.4"/>
<path d="M1229.98 820.674C1199.17 789.416 1183.77 745.181 1183.77 687.918V672.058C1183.77 643.684 1187.74 618.399 1195.67 596.308C1203.6 574.165 1215.14 555.42 1230.34 540.023C1245.48 524.626 1263.77 512.833 1285.2 504.646C1306.63 496.458 1330.53 492.39 1357.01 492.39C1411.36 492.39 1453.85 508.044 1484.4 539.302C1514.95 570.56 1530.25 614.846 1530.25 672.058V687.918C1530.25 716.292 1526.28 741.577 1518.35 763.668C1510.42 785.811 1498.88 804.556 1483.68 819.953C1468.54 835.35 1450.35 847.143 1429.18 855.33C1408.01 863.518 1383.95 867.586 1357.01 867.586C1303.13 867.586 1260.78 851.983 1229.98 820.674ZM1419.44 766.192C1434.59 749.61 1442.16 723.502 1442.16 687.918V672.058C1442.16 637.401 1434.43 611.55 1419.08 594.505C1403.68 577.46 1382.97 568.912 1357.01 568.912C1331.05 568.912 1309.72 577.203 1294.58 593.784C1279.43 610.366 1271.86 636.474 1271.86 672.058V687.918C1271.86 722.575 1279.53 748.426 1294.94 765.471C1310.34 782.567 1331.05 791.064 1357.01 791.064C1382.97 791.064 1404.3 782.773 1419.44 766.192Z" fill="#C8D4FB" fill-opacity="0.4"/>
<path d="M1669.18 841.943C1650.64 834.476 1634.87 823.559 1621.89 809.089C1608.91 794.67 1598.82 776.75 1591.55 755.328C1584.34 733.906 1580.73 709.033 1580.73 680.659V664.799C1580.73 636.888 1584.34 612.222 1591.55 590.851C1598.76 569.429 1608.96 551.405 1622.25 536.729C1635.49 522.053 1651.36 510.981 1669.9 503.514C1688.4 496.048 1708.74 492.34 1730.9 492.34C1755.42 492.34 1777.1 496.562 1795.85 504.956C1814.6 513.402 1831.45 526.018 1846.39 542.857H1847.83L1854.32 499.549H1920V863.932C1920 912.492 1907.02 949.312 1881 974.338C1855.04 999.365 1814.6 1011.88 1759.74 1011.88C1708.74 1011.88 1671.29 1001.43 1647.5 980.466C1623.7 959.508 1609.84 930.31 1605.98 892.821H1694.01C1697.88 909.145 1704.73 921.555 1714.57 930.001C1724.4 938.395 1739.45 942.617 1759.69 942.617C1785.65 942.617 1804.92 936.129 1817.44 923.152C1829.96 910.175 1836.19 889.216 1836.19 860.379V809.862H1834.75C1823.21 823.353 1808.16 833.91 1789.62 841.634C1771.08 849.359 1751.5 853.169 1730.79 853.169C1708.18 853.169 1687.57 849.462 1669.08 841.995L1669.18 841.943ZM1813.88 752.856C1828.77 736.995 1836.24 712.947 1836.24 680.711V664.85C1836.24 633.077 1828.67 609.183 1813.52 593.065C1798.38 576.947 1778.03 568.914 1752.53 568.914C1727.03 568.914 1706.07 576.844 1691.18 592.705C1676.24 608.565 1668.82 632.614 1668.82 664.85V680.711C1668.82 712.483 1676.39 736.377 1691.54 752.495C1706.68 768.614 1727.03 776.647 1752.53 776.647C1778.03 776.647 1798.94 768.717 1813.88 752.856Z" fill="#C8D4FB" fill-opacity="0.4"/>
<mask id="mask0_2017_1330" style="mask-type:alpha" maskUnits="userSpaceOnUse" x="603" y="41" width="1291" height="900">
<rect x="603" y="41" width="1291" height="900" fill="#D9D9D9"/>
</mask>
<g mask="url(#mask0_2017_1330)">
<path d="M254.221 1337.18C215.078 1358.03 175.229 1362.82 140.638 1367C90.2192 1373.08 50.3862 1377.88 13.8717 1424.43L-52.0972 1372.69C5.86172 1298.79 75.0233 1290.45 130.603 1283.76C181.022 1277.68 220.855 1272.88 257.369 1226.33C293.884 1179.78 289.058 1139.95 282.951 1089.53C276.215 1033.96 267.837 964.796 325.786 890.905C383.745 817.009 452.907 808.672 508.486 801.982C558.905 795.9 598.738 791.1 635.253 744.55C671.767 697.999 666.942 658.167 660.834 607.748C654.098 552.18 645.721 483.015 703.669 409.124C761.628 335.227 830.79 326.891 886.37 320.2C936.789 314.119 976.622 309.319 1013.14 262.768C1049.65 216.218 1044.82 176.386 1038.72 125.967C1032 70.5317 1023.64 1.57542 1081.12 -72.1036L1081.6 -72.7201C1139.56 -146.616 1208.72 -154.952 1264.3 -161.643C1314.72 -167.725 1354.55 -172.525 1391.06 -219.075C1427.58 -265.626 1422.75 -305.458 1416.65 -355.876C1409.91 -411.445 1401.53 -480.61 1459.48 -554.501C1517.44 -628.397 1586.6 -636.734 1642.18 -643.424C1692.6 -649.506 1732.43 -654.306 1768.95 -700.856C1805.46 -747.407 1800.64 -787.239 1794.53 -837.657C1787.79 -893.226 1779.42 -962.391 1837.36 -1036.28C1895.32 -1110.18 1964.48 -1118.51 2020.06 -1125.21C2070.48 -1131.29 2110.32 -1136.09 2146.83 -1182.64C2183.34 -1229.19 2178.52 -1269.02 2172.41 -1319.44C2165.68 -1375.01 2157.3 -1444.17 2215.25 -1518.06L2281.22 -1466.32C2244.7 -1419.77 2249.53 -1379.94 2255.63 -1329.52C2262.37 -1273.95 2270.75 -1204.79 2212.8 -1130.89C2154.84 -1057 2085.68 -1048.66 2030.1 -1041.97C1979.68 -1035.89 1939.85 -1031.09 1903.33 -984.54C1866.82 -937.989 1871.64 -898.157 1877.75 -847.739C1884.49 -792.17 1892.86 -723.005 1834.92 -649.114C1776.97 -575.223 1707.8 -566.881 1652.22 -560.191C1601.8 -554.109 1561.96 -549.309 1525.45 -502.758C1488.94 -456.208 1493.76 -416.376 1499.87 -365.957C1506.6 -310.389 1514.98 -241.223 1457.03 -167.333C1399.07 -93.4364 1329.91 -85.1001 1274.33 -78.4094C1224.05 -72.3466 1184.3 -67.5539 1147.87 -21.3589L1147.53 -20.9202C1111.02 25.6302 1115.84 65.4626 1121.95 115.881C1128.69 171.449 1137.06 240.615 1079.12 314.506C1021.16 388.402 951.995 396.738 896.415 403.429C845.996 409.51 806.163 414.311 769.649 460.861C733.134 507.411 737.96 547.244 744.067 597.662C750.803 653.23 759.181 722.396 701.232 796.287C643.273 870.183 574.111 878.519 518.532 885.21C468.113 891.292 428.28 896.092 391.765 942.642C355.251 989.193 360.076 1029.02 366.184 1079.44C372.92 1135.01 381.297 1204.18 323.349 1278.07C301.463 1305.97 277.979 1324.52 254.231 1337.17L254.221 1337.18Z" fill="#C8D4FB"/>
<path d="M576.557 809.039L589.414 804.888C594.207 803.347 598.06 803.252 600.973 804.631C603.886 806.01 605.977 808.645 607.223 812.519C608.453 816.338 608.274 819.701 606.685 822.609C605.096 825.517 601.958 827.733 597.266 829.247L590.705 831.367L594.706 843.746L588.409 845.777L576.547 809.045L576.557 809.039ZM584.722 812.782L588.856 825.583L595.153 823.552C597.844 822.689 599.606 821.517 600.424 820.057C601.241 818.597 601.307 816.798 600.622 814.66C599.977 812.67 598.862 811.306 597.281 810.579C595.691 809.857 593.609 809.916 591.019 810.751L584.722 812.782Z" fill="white" fill-opacity="0.5"/>
<path d="M604.918 799.379L626.324 786.811L629.397 792.046L613.701 801.262L618.591 809.59L631.432 802.05L634.506 807.285L621.664 814.825L627.111 824.1L642.807 814.884L645.88 820.12L624.475 832.688L604.929 799.4L604.918 799.379Z" fill="white" fill-opacity="0.5"/>
<path d="M653.625 810.289C650.311 810.226 647.113 808.752 644.013 805.852L649.108 801.128C650.972 802.703 652.744 803.523 654.42 803.577C656.095 803.631 657.82 802.828 659.601 801.18C661.381 799.532 662.343 797.93 662.472 796.37C662.606 794.82 662.078 793.39 660.882 792.095C659.729 790.855 658.382 790.249 656.832 790.284C655.281 790.319 653.613 791.156 651.838 792.814L648.403 796.006L644.432 791.715L647.867 788.524C649.482 787.028 650.347 785.608 650.466 784.274C650.585 782.939 650.103 781.692 649.028 780.527C647.901 779.312 646.662 778.714 645.31 778.708C643.964 778.712 642.467 779.457 640.857 780.963C639.242 782.458 638.4 783.945 638.345 785.4C638.291 786.856 638.959 788.548 640.345 790.469L635.249 795.193C632.694 792.002 631.496 788.828 631.681 785.669C631.866 782.51 633.548 779.462 636.724 776.512C638.314 775.043 639.898 773.927 641.472 773.206C643.05 772.469 644.571 772.086 646.045 772.053C647.518 772.021 648.902 772.282 650.208 772.857C651.513 773.433 652.692 774.283 653.745 775.408C655.019 776.778 655.85 778.242 656.233 779.788C656.616 781.335 656.536 782.986 656.002 784.735L656.071 784.815C658.074 784.267 659.927 784.24 661.639 784.728C663.352 785.216 664.919 786.236 666.346 787.771C667.447 788.961 668.254 790.256 668.756 791.661C669.263 793.077 669.414 794.553 669.234 796.114C669.049 797.665 668.506 799.251 667.61 800.856C666.715 802.461 665.425 804.056 663.719 805.626C660.299 808.796 656.929 810.357 653.615 810.294L653.625 810.289Z" fill="white" fill-opacity="0.5"/>
<path d="M667.316 750.493L660.943 760.487L655.821 757.225L672.124 731.645L677.247 734.907L670.874 744.902L698.317 762.391L694.754 767.972L667.311 750.483L667.316 750.493Z" fill="white" fill-opacity="0.5"/>
<path d="M672.686 729.997L681.374 706.748L687.056 708.87L680.691 725.915L689.738 729.291L694.949 715.338L700.63 717.46L695.419 731.413L705.49 735.178L711.855 718.133L717.537 720.255L708.848 743.504L672.686 729.997Z" fill="white" fill-opacity="0.5"/>
<path d="M681.933 703.972L683.667 690.575C684.311 685.576 685.884 682.054 688.371 680.003C690.858 677.953 694.13 677.182 698.173 677.713C702.144 678.23 705.109 679.828 707.068 682.507C709.016 685.19 709.682 688.972 709.055 693.858L708.171 700.695L721.081 702.364L720.231 708.925L681.939 703.983L681.933 703.972ZM688.799 698.189L702.14 699.914L702.99 693.353C703.348 690.544 703.053 688.457 702.076 687.085C701.104 685.722 699.505 684.888 697.281 684.607C695.205 684.338 693.501 684.766 692.168 685.891C690.835 687.016 689.999 688.927 689.649 691.629L688.799 698.189Z" fill="white" fill-opacity="0.5"/>
<path d="M685.311 673.723L684.956 667.117L700.648 666.267L699.667 648.091L683.976 648.941L683.621 642.335L722.178 640.251L722.532 646.857L705.731 647.766L706.712 665.942L723.513 665.033L723.867 671.639L685.316 673.733L685.311 673.723Z" fill="white" fill-opacity="0.5"/>
<path d="M682.629 635.823L681.83 629.259L711.944 625.615L711.926 625.508L679.918 613.497L678.84 604.632L717.161 599.988L717.95 606.557L687.836 610.201L687.854 610.308L719.862 622.319L720.94 631.185L682.619 635.828L682.629 635.823Z" fill="white" fill-opacity="0.5"/>
<path d="M677.61 595.432L677.163 588.823L707.431 586.758L707.423 586.645L676.084 572.969L675.475 564.06L713.992 561.439L714.439 568.048L684.172 570.113L684.18 570.226L715.519 583.902L716.127 592.811L677.61 595.432Z" fill="white" fill-opacity="0.5"/>
<path d="M676.227 536.183L677.215 529.639L692.763 531.978L693.336 528.159L679.454 514.805L680.581 507.28L696.781 523.38L718.912 511.93L717.719 519.891L699.329 529.064L698.757 532.883L715.39 535.383L714.401 541.926L676.227 536.183Z" fill="white" fill-opacity="0.5"/>
<path d="M726.783 488.753C725.163 490.265 723.317 491.351 721.24 492.004C719.162 492.657 716.889 492.843 714.399 492.575C711.909 492.306 709.282 491.513 706.52 490.223L704.426 489.237C701.798 488.005 699.62 486.545 697.897 484.844C696.174 483.142 694.918 481.295 694.109 479.289C693.299 477.282 692.963 475.166 693.1 472.94C693.232 470.705 693.824 468.457 694.887 466.192C695.853 464.135 697.022 462.41 698.374 461.028C699.731 459.657 701.21 458.61 702.799 457.893C704.388 457.177 706.067 456.775 707.816 456.674C709.564 456.572 711.306 456.799 713.055 457.332L710.017 463.826C709.045 463.656 708.082 463.625 707.137 463.726C706.198 463.837 705.303 464.08 704.478 464.455C703.649 464.845 702.884 465.382 702.186 466.091C701.487 466.8 700.896 467.686 700.386 468.749C699.759 470.081 699.425 471.4 699.377 472.722C699.329 474.044 699.571 475.303 700.125 476.512C700.678 477.722 701.547 478.867 702.738 479.957C703.928 481.048 705.479 482.037 707.376 482.92L709.47 483.905C711.47 484.837 713.303 485.43 714.983 485.663C716.654 485.901 718.158 485.852 719.501 485.526C720.829 485.195 721.986 484.591 722.966 483.706C723.947 482.821 724.743 481.735 725.35 480.439C725.835 479.403 726.122 478.407 726.209 477.427C726.302 476.457 726.206 475.523 725.938 474.628C725.669 473.734 725.237 472.875 724.652 472.045C724.058 471.221 723.326 470.456 722.438 469.762L725.524 463.165C727.18 464.228 728.569 465.473 729.681 466.903C730.793 468.334 731.607 469.91 732.106 471.602C732.611 473.304 732.77 475.113 732.574 477.033C732.377 478.953 731.804 480.944 730.843 483.012C729.771 485.307 728.412 487.211 726.798 488.732L726.783 488.753Z" fill="#162661" fill-opacity="0.5"/>
<path d="M698.019 460.677C699.415 459.267 700.943 458.182 702.593 457.437C704.24 456.694 705.98 456.279 707.787 456.175C709.599 456.069 711.4 456.304 713.201 456.854L713.752 457.023L713.508 457.544L710.47 464.037L710.308 464.384L709.932 464.319C709.005 464.157 708.088 464.127 707.19 464.223L707.19 464.222C706.301 464.328 705.458 464.559 704.685 464.91L704.684 464.909C703.912 465.274 703.198 465.776 702.542 466.442C701.891 467.103 701.329 467.94 700.837 468.965L700.835 468.965C700.236 470.241 699.922 471.494 699.877 472.74C699.832 473.986 700.06 475.167 700.58 476.304C701.1 477.441 701.924 478.534 703.075 479.589C704.218 480.636 705.723 481.599 707.587 482.467L707.589 482.467L709.681 483.452L710.412 483.78C712.095 484.507 713.637 484.971 715.052 485.168L715.054 485.168C716.673 485.399 718.11 485.349 719.38 485.041L719.841 484.911C720.9 484.582 721.829 484.059 722.631 483.335C723.559 482.497 724.317 481.467 724.897 480.228C725.362 479.235 725.629 478.295 725.711 477.383L725.712 477.38C725.798 476.474 725.709 475.605 725.459 474.773C725.208 473.937 724.802 473.127 724.246 472.337C723.68 471.553 722.982 470.822 722.13 470.156L721.817 469.911L721.985 469.551L725.071 462.953L725.313 462.436L725.794 462.744C727.492 463.835 728.925 465.117 730.076 466.597C731.153 467.983 731.961 469.504 732.484 471.134L732.585 471.46C733.11 473.229 733.273 475.104 733.071 477.084C732.868 479.067 732.277 481.112 731.297 483.222L731.297 483.223C730.209 485.553 728.826 487.497 727.177 489.06L727.161 489.084L727.123 489.119C725.451 490.679 723.54 491.806 721.39 492.481C719.237 493.158 716.892 493.346 714.345 493.071C711.788 492.796 709.108 491.984 706.308 490.676L706.307 490.675L704.213 489.689C701.545 488.438 699.317 486.948 697.546 485.199C695.78 483.455 694.482 481.553 693.645 479.476C692.807 477.399 692.46 475.207 692.601 472.91C692.737 470.605 693.348 468.296 694.434 465.98C695.42 463.879 696.619 462.106 698.016 460.678L698.019 460.677Z" stroke="#162661" stroke-opacity="0.5"/>
<path d="M733.721 463.364L731.069 446.285C730.8 444.612 730.543 443.18 730.308 441.983C730.072 440.786 729.79 439.769 729.477 438.938C729.163 438.106 728.813 437.424 728.42 436.881C728.033 436.348 727.575 435.879 727.028 435.509C726.303 435 725.572 434.65 724.825 434.465C724.078 434.279 723.35 434.252 722.657 434.388C721.954 434.529 721.276 434.812 720.632 435.259C719.988 435.706 719.379 436.315 718.836 437.097C718.302 437.848 717.943 438.61 717.738 439.394C717.527 440.167 717.501 440.921 717.642 441.649C717.784 442.378 718.094 443.081 718.588 443.765C719.082 444.449 719.743 445.082 720.588 445.669L716.602 451.358C715.069 450.281 713.835 449.059 712.914 447.695C711.987 446.321 711.412 444.877 711.178 443.342C710.95 441.817 711.047 440.222 711.491 438.572C711.924 436.927 712.727 435.268 713.882 433.615C715.038 431.963 716.319 430.644 717.702 429.662C719.085 428.679 720.527 428.027 722.029 427.707C723.531 427.387 725.048 427.409 726.572 427.764C728.097 428.119 729.589 428.802 731.033 429.81C731.94 430.442 732.708 431.2 733.355 432.074C734.002 432.948 734.566 433.983 735.048 435.179C735.539 436.37 735.954 437.757 736.291 439.315C736.633 440.883 736.94 442.652 737.206 444.637L738.699 456.252L748.61 442.116L753.392 445.469L738.517 466.696L733.736 463.343L733.721 463.364Z" fill="#162661" fill-opacity="0.5"/>
<path d="M717.412 429.254C718.845 428.236 720.35 427.554 721.925 427.218C723.502 426.882 725.092 426.906 726.686 427.277C728.279 427.648 729.828 428.361 731.318 429.399C732.272 430.064 733.079 430.86 733.757 431.776C734.432 432.689 735.015 433.762 735.508 434.988L735.51 434.988C736.015 436.212 736.438 437.629 736.78 439.209C737.126 440.792 737.434 442.575 737.701 444.57L737.702 444.573L739.029 454.907L748.201 441.829L748.488 441.419L748.897 441.706L753.679 445.06L754.088 445.347L753.801 445.756L738.926 466.983L738.64 467.392L738.231 467.105L733.854 464.037L733.416 464.657L733.227 463.441L730.575 446.361C730.307 444.695 730.051 443.27 729.817 442.08C729.585 440.903 729.31 439.914 729.008 439.114C728.706 438.312 728.375 437.672 728.016 437.175L727.878 436.993C727.55 436.576 727.177 436.214 726.748 435.923L726.741 435.918C726.057 435.438 725.382 435.118 724.705 434.95C724.021 434.78 723.367 434.758 722.754 434.878L722.753 434.877C722.119 435.005 721.505 435.262 720.917 435.67C720.327 436.079 719.759 436.644 719.247 437.382L719.243 437.387C718.742 438.093 718.41 438.801 718.221 439.521L718.22 439.525C718.029 440.227 718.007 440.903 718.134 441.554C718.26 442.204 718.538 442.842 718.993 443.473C719.448 444.102 720.066 444.697 720.873 445.259L721.285 445.545L720.997 445.956L717.011 451.645L716.724 452.055L716.315 451.767C714.74 450.66 713.459 449.396 712.5 447.975C711.535 446.543 710.93 445.03 710.684 443.417L710.684 443.416C710.445 441.818 710.547 440.153 711.008 438.442C711.459 436.731 712.29 435.02 713.472 433.329C714.655 431.637 715.977 430.275 717.412 429.254Z" stroke="#162661" stroke-opacity="0.5"/>
<path d="M791.75 391.401C789.571 391.498 787.739 391.125 786.243 390.288C784.747 389.451 783.536 388.346 782.599 386.952C781.662 385.558 780.86 384.273 780.2 383.082L774.712 373.193L780.497 369.982L785.845 379.634C786.237 380.345 786.723 381.111 787.288 381.952C787.852 382.792 788.561 383.465 789.388 383.971C790.215 384.477 791.235 384.738 792.434 384.748C793.632 384.758 795.069 384.291 796.745 383.372C797.866 382.749 798.934 382.076 799.944 381.344C800.944 380.617 801.993 379.786 803.075 378.847L794.006 362.502L799.79 359.291L818.514 393.056L812.729 396.267L806.071 384.253C804.797 385.294 803.672 386.153 802.701 386.813C801.72 387.478 800.727 388.097 799.698 388.672C796.573 390.401 793.934 391.314 791.75 391.401Z" fill="white" fill-opacity="0.5"/>
<path d="M811.837 354.249L835.37 346.357L837.305 352.108L820.056 357.898L823.128 367.05L837.245 362.319L839.18 368.07L825.064 372.801L828.486 382.999L845.744 377.204L847.679 382.955L824.146 390.847L811.862 354.248L811.837 354.249Z" fill="white" fill-opacity="0.5"/>
<path d="M845.051 344.001L858.322 341.432C863.269 340.47 867.104 340.852 869.836 342.574C872.569 344.295 874.311 347.153 875.096 351.158C875.858 355.096 875.272 358.403 873.34 361.105C871.407 363.807 868.029 365.619 863.184 366.553L856.413 367.864L858.888 380.642L852.387 381.9L845.051 344.001ZM852.704 348.704L855.266 361.914L861.767 360.656C864.544 360.123 866.434 359.168 867.428 357.822C868.418 356.465 868.705 354.691 868.284 352.49C867.888 350.432 866.944 348.951 865.461 348.042C863.979 347.133 861.89 346.936 859.22 347.45L852.719 348.708L852.704 348.704Z" fill="white" fill-opacity="0.5"/>
<path d="M879.535 337.874L904.154 334.772L904.908 340.789L886.852 343.067L888.061 352.641L902.836 350.775L903.59 356.792L888.816 358.658L890.156 369.33L908.212 367.052L908.966 373.069L884.347 376.171L879.519 337.87L879.535 337.874Z" fill="white" fill-opacity="0.5"/>
<path d="M915.744 369.459C913.067 367.5 911.309 364.443 910.449 360.297L917.337 359.377C917.952 361.747 918.927 363.432 920.269 364.442C921.61 365.452 923.478 365.793 925.886 365.47C928.294 365.147 930.006 364.391 931.004 363.198C932.002 362.005 932.4 360.535 932.165 358.78C931.948 357.106 931.188 355.825 929.901 354.968C928.619 354.095 926.769 353.835 924.371 354.153L919.723 354.774L918.943 348.978L923.592 348.357C925.78 348.06 927.3 347.406 928.164 346.375C929.028 345.344 929.354 344.056 929.139 342.484C928.918 340.852 928.257 339.635 927.151 338.849C926.051 338.074 924.401 337.824 922.212 338.121C920.023 338.418 918.49 339.144 917.604 340.303C916.717 341.463 916.291 343.22 916.311 345.595L909.423 346.515C909.17 342.436 910.027 339.152 912.006 336.685C913.97 334.212 917.11 332.682 921.412 332.116C923.565 331.825 925.49 331.836 927.198 332.146C928.906 332.455 930.375 333.021 931.599 333.835C932.823 334.648 933.797 335.672 934.535 336.887C935.272 338.102 935.748 339.483 935.951 341.008C936.204 342.871 936.032 344.544 935.461 346.028C934.89 347.512 933.874 348.819 932.424 349.941L932.442 350.049C934.385 350.751 935.927 351.797 937.034 353.192C938.15 354.581 938.839 356.314 939.118 358.396C939.339 360.003 939.24 361.521 938.842 362.965C938.444 364.409 937.715 365.718 936.669 366.871C935.614 368.03 934.267 369.007 932.608 369.813C930.954 370.603 928.982 371.161 926.681 371.466C922.058 372.087 918.395 371.418 915.728 369.454L915.744 369.459Z" fill="white" fill-opacity="0.5"/>
<path d="M962.791 330.849L951.452 334.321L949.674 328.525L978.676 319.652L980.454 325.448L969.115 328.92L978.637 360.04L972.302 361.975L962.78 330.855L962.791 330.849Z" fill="white" fill-opacity="0.5"/>
<path d="M980.169 318.779L1001.86 306.73L1004.81 312.036L988.896 320.874L993.583 329.308L1006.6 322.076L1009.54 327.381L996.526 334.614L1001.75 344.018L1017.67 335.18L1020.61 340.485L998.913 352.534L980.158 318.784L980.169 318.779Z" fill="white" fill-opacity="0.5"/>
<path d="M1004.1 304.968L1014.12 295.908C1017.86 292.53 1021.35 290.868 1024.57 290.928C1027.79 290.989 1030.78 292.535 1033.5 295.557C1036.19 298.534 1037.41 301.672 1037.15 304.976C1036.88 308.28 1034.94 311.587 1031.27 314.886L1026.16 319.503L1034.88 329.16L1029.97 333.593L1004.09 304.948L1004.1 304.968ZM1013.08 305.033L1022.11 315.02L1027.03 310.588C1029.13 308.69 1030.25 306.91 1030.4 305.237C1030.55 303.564 1029.88 301.897 1028.37 300.236C1026.97 298.675 1025.39 297.896 1023.65 297.89C1021.91 297.884 1020.02 298.782 1018 300.611L1013.09 305.043L1013.08 305.033Z" fill="white" fill-opacity="0.5"/>
<path d="M1026.27 284.459L1030.19 279.131L1042.85 288.44L1053.64 273.785L1040.98 264.475L1044.9 259.147L1075.99 282.031L1072.07 287.359L1058.53 277.392L1047.74 292.047L1061.28 302.014L1057.37 307.343L1026.27 284.459Z" fill="white" fill-opacity="0.5"/>
<path d="M1047.27 255.471L1049.78 249.349L1077.85 260.852L1077.88 260.754L1055.8 234.653L1059.19 226.389L1094.92 241.023L1092.41 247.144L1064.34 235.641L1064.3 235.739L1086.39 261.84L1082.99 270.105L1047.27 255.471Z" fill="white" fill-opacity="0.5"/>
<path d="M1060.04 222.63L1060.77 216.057L1090.92 219.397L1090.93 219.289L1062.51 200.284L1063.49 191.396L1101.86 195.634L1101.14 202.206L1070.98 198.867L1070.98 198.975L1099.39 217.985L1098.41 226.858L1060.04 222.619L1060.04 222.63Z" fill="white" fill-opacity="0.5"/>
<path d="M1062.37 172.905L1061.7 166.322L1077.35 164.747L1076.96 160.907L1060.21 151.39L1059.44 143.822L1079.12 155.423L1097.74 138.867L1098.55 146.879L1082.99 160.3L1083.38 164.141L1100.12 162.46L1100.78 169.043L1062.37 172.905Z" fill="white" fill-opacity="0.5"/>
<path d="M1093.7 112.127C1093.07 114.252 1092.04 116.128 1090.57 117.737C1089.11 119.357 1087.25 120.675 1084.97 121.696C1082.68 122.717 1080.02 123.385 1076.98 123.668L1074.67 123.887C1071.78 124.156 1069.15 123.998 1066.81 123.403C1064.46 122.813 1062.44 121.857 1060.72 120.539C1059.01 119.221 1057.65 117.572 1056.63 115.576C1055.61 113.59 1054.98 111.343 1054.75 108.861C1054.54 106.588 1054.67 104.521 1055.14 102.65C1055.61 100.78 1056.35 99.1272 1057.35 97.7086C1058.36 96.29 1059.6 95.0855 1061.06 94.1162C1062.51 93.1469 1064.14 92.4497 1065.9 92.0305L1066.57 99.1658C1065.64 99.5174 1064.8 99.9693 1064.04 100.542C1063.28 101.114 1062.65 101.776 1062.12 102.521C1061.6 103.277 1061.22 104.132 1060.97 105.091C1060.73 106.049 1060.67 107.121 1060.78 108.296C1060.91 109.767 1061.29 111.068 1061.93 112.234C1062.55 113.396 1063.41 114.362 1064.5 115.117C1065.58 115.888 1066.92 116.432 1068.5 116.76C1070.08 117.098 1071.91 117.158 1074 116.966L1076.31 116.748C1078.51 116.538 1080.39 116.121 1081.96 115.466C1083.52 114.816 1084.79 114.02 1085.77 113.058C1086.75 112.096 1087.44 110.988 1087.84 109.738C1088.24 108.489 1088.37 107.134 1088.24 105.714C1088.13 104.58 1087.88 103.573 1087.45 102.683C1087.04 101.803 1086.49 101.033 1085.8 100.401C1085.11 99.7682 1084.3 99.2413 1083.38 98.8248C1082.46 98.4082 1081.42 98.1276 1080.31 97.9822L1079.63 90.7346C1081.58 90.807 1083.42 91.1796 1085.11 91.8477C1086.8 92.5158 1088.29 93.4604 1089.58 94.6662C1090.87 95.872 1091.93 97.3551 1092.73 99.1059C1093.55 100.851 1094.06 102.871 1094.27 105.134C1094.52 107.662 1094.31 109.986 1093.68 112.112L1093.7 112.127Z" fill="#162661" fill-opacity="0.5"/>
<path d="M1062.37 111.999C1062.88 112.953 1063.56 113.766 1064.41 114.431L1064.78 114.706L1064.79 114.709C1065.68 115.341 1066.76 115.82 1068.04 116.142L1068.6 116.27L1068.6 116.271C1070.12 116.595 1071.9 116.657 1073.96 116.469L1073.96 116.468L1076.27 116.25L1076.26 116.25C1078.16 116.069 1079.79 115.733 1081.18 115.23L1081.77 115.004L1082.32 114.761C1083.58 114.179 1084.61 113.495 1085.42 112.702C1086.35 111.793 1086.99 110.754 1087.36 109.587C1087.69 108.554 1087.83 107.44 1087.78 106.267L1087.74 105.761C1087.63 104.672 1087.4 103.724 1087 102.897L1086.85 102.591C1086.48 101.893 1086.02 101.28 1085.46 100.768C1084.82 100.176 1084.05 99.6775 1083.17 99.2808C1082.3 98.8871 1081.32 98.6184 1080.24 98.4785L1079.85 98.4263L1079.81 98.0288L1079.13 90.7816L1079.07 90.2137L1079.64 90.2344C1081.65 90.3088 1083.54 90.6921 1085.29 91.3825C1087.04 92.0735 1088.58 93.0524 1089.92 94.3012C1091.26 95.5541 1092.36 97.0914 1093.19 98.8977C1094.03 100.702 1094.56 102.777 1094.77 105.085L1094.77 105.085C1095.01 107.534 1094.83 109.809 1094.26 111.909L1094.29 111.926L1094.18 112.269C1093.53 114.464 1092.46 116.406 1090.94 118.073L1090.94 118.073C1089.43 119.75 1087.51 121.107 1085.17 122.153C1082.83 123.2 1080.11 123.879 1077.02 124.166L1077.02 124.166L1074.72 124.385C1071.78 124.658 1069.1 124.5 1066.69 123.888C1064.28 123.284 1062.19 122.299 1060.42 120.936C1058.64 119.571 1057.24 117.863 1056.18 115.804C1055.13 113.755 1054.49 111.445 1054.25 108.907C1054.03 106.587 1054.17 104.463 1054.65 102.529C1055.13 100.605 1055.9 98.8939 1056.95 97.4193C1057.99 95.9511 1059.27 94.703 1060.78 93.6997C1062.28 92.696 1063.97 91.9763 1065.78 91.5441L1066.34 91.4113L1066.39 91.9831L1067.07 99.1187L1067.11 99.4987L1066.75 99.6333C1065.86 99.9702 1065.05 100.4 1064.34 100.941C1063.62 101.481 1063.02 102.106 1062.53 102.809C1062.05 103.514 1061.69 104.312 1061.46 105.213C1061.26 105.994 1061.19 106.868 1061.24 107.832L1061.27 108.25C1061.4 109.661 1061.77 110.895 1062.37 111.995L1062.37 111.999Z" stroke="#162661" stroke-opacity="0.5"/>
<path d="M1086.27 86.5338L1074.44 73.9413C1073.28 72.7168 1072.26 71.678 1071.39 70.8198C1070.52 69.9616 1069.72 69.286 1068.98 68.7827C1068.25 68.2794 1067.57 67.9128 1066.96 67.6829C1066.33 67.4584 1065.69 67.3315 1065.03 67.3332C1064.15 67.3253 1063.35 67.4535 1062.63 67.7176C1061.92 67.9818 1061.3 68.3766 1060.8 68.886C1060.3 69.4007 1059.91 70.0098 1059.63 70.7441C1059.35 71.4785 1059.2 72.322 1059.19 73.2746C1059.17 74.2017 1059.3 75.0278 1059.57 75.7941C1059.84 76.5449 1060.24 77.19 1060.76 77.714C1061.29 78.2381 1061.94 78.641 1062.73 78.9229C1063.51 79.2047 1064.42 79.3554 1065.45 79.3647L1065.38 86.3144C1063.5 86.2911 1061.8 85.9765 1060.26 85.3711C1058.72 84.7657 1057.43 83.898 1056.37 82.763C1055.31 81.6281 1054.5 80.2562 1053.93 78.6529C1053.37 77.0496 1053.09 75.2391 1053.11 73.2161C1053.14 71.193 1053.44 69.3829 1054.02 67.791C1054.61 66.1938 1055.44 64.8464 1056.49 63.7388C1057.55 62.6312 1058.81 61.7897 1060.27 61.2196C1061.73 60.6495 1063.35 60.3723 1065.11 60.3935C1066.22 60.4008 1067.28 60.5885 1068.3 60.9513C1069.32 61.314 1070.37 61.8451 1071.45 62.5546C1072.53 63.2641 1073.65 64.1722 1074.81 65.2635C1075.98 66.3649 1077.23 67.6588 1078.57 69.1346L1086.35 77.8787L1086.55 60.6192L1092.39 60.6836L1092.1 86.6036L1086.26 86.5392L1086.27 86.5338Z" fill="#162661" fill-opacity="0.5"/>
<path d="M1056.13 63.3938C1057.24 62.2322 1058.57 61.3499 1060.09 60.7539C1061.62 60.1583 1063.3 59.8722 1065.11 59.8936L1065.11 59.8931C1066.28 59.9008 1067.39 60.0981 1068.47 60.4795C1069.53 60.8577 1070.62 61.4088 1071.72 62.1369C1072.69 62.7749 1073.69 63.5644 1074.71 64.492L1075.15 64.8992L1075.15 64.8996C1076.34 66.0126 1077.59 67.3166 1078.94 68.7977L1078.95 68.8019L1085.87 76.5808L1086.05 60.6135L1086.06 60.1136L1086.56 60.1195L1092.4 60.1838L1092.9 60.1893L1092.89 60.6892L1092.6 86.6092L1092.6 87.1091L1092.1 87.1032L1086.25 87.0393L1086.16 86.6399L1085.91 86.8761L1074.08 74.2836L1074.08 74.2827C1072.92 73.0629 1071.91 72.0291 1071.04 71.1761C1070.18 70.3323 1069.4 69.6778 1068.7 69.1957C1067.99 68.7096 1067.35 68.3656 1066.79 68.1537L1066.57 68.0802C1066.06 67.9191 1065.56 67.8319 1065.04 67.8332L1065.03 67.8329C1064.19 67.8255 1063.46 67.9464 1062.81 68.1865C1062.16 68.4269 1061.6 68.7828 1061.16 69.234L1061.16 69.2358C1060.71 69.699 1060.36 70.249 1060.09 70.9239C1059.84 71.5924 1059.7 72.3757 1059.69 73.2809C1059.68 74.156 1059.8 74.9243 1060.04 75.6304C1060.29 76.3172 1060.65 76.8945 1061.11 77.3595C1061.58 77.8255 1062.17 78.1924 1062.9 78.4525C1063.62 78.7119 1064.47 78.856 1065.46 78.8649L1065.96 78.869L1065.95 79.3698L1065.88 86.3197L1065.88 86.8205L1065.37 86.8142C1063.44 86.7903 1061.68 86.4663 1060.08 85.8362C1058.47 85.2052 1057.12 84.297 1056 83.1042C1054.89 81.9136 1054.05 80.4804 1053.46 78.8201C1052.87 77.1527 1052.59 75.2816 1052.61 73.2094C1052.64 71.1401 1052.95 69.2732 1053.55 67.6202L1053.55 67.618C1054.16 65.9627 1055.02 64.5554 1056.13 63.3938Z" stroke="#162661" stroke-opacity="0.5"/>
</g>
<rect y="503" width="1920" height="366" fill="url(#paint2_linear_2017_1330)"/>
</g>
<defs>
<filter id="filter0_f_2017_1330" x="127.5" y="-415" width="1605" height="1861" filterUnits="userSpaceOnUse" color-interpolation-filters="sRGB">
<feFlood flood-opacity="0" result="BackgroundImageFix"/>
<feBlend mode="normal" in="SourceGraphic" in2="BackgroundImageFix" result="shape"/>
<feGaussianBlur stdDeviation="150" result="effect1_foregroundBlur_2017_1330"/>
</filter>
<linearGradient id="paint0_linear_2017_1330" x1="2156.5" y1="-46.5" x2="1730.27" y2="1343.66" gradientUnits="userSpaceOnUse">
<stop stop-color="#98A4FF"/>
<stop offset="0.336538" stop-color="#C8D4FB"/>
<stop offset="0.613936" stop-color="#E5EBFF"/>
<stop offset="1" stop-color="white"/>
</linearGradient>
<radialGradient id="paint1_radial_2017_1330" cx="0" cy="0" r="1" gradientTransform="matrix(1261 -1112 540.69 1386.52 369.5 978)" gradientUnits="userSpaceOnUse">
<stop offset="0.112961" stop-color="#162661"/>
<stop offset="0.250637" stop-color="#23339F"/>
<stop offset="0.369792" stop-color="#69ABFF"/>
<stop offset="0.531583" stop-color="#162661"/>
<stop offset="0.662322" stop-color="#162661"/>
<stop offset="0.901939" stop-color="#94C5FB"/>
</radialGradient>
<linearGradient id="paint2_linear_2017_1330" x1="960" y1="503" x2="960" y2="869" gradientUnits="userSpaceOnUse">
<stop stop-color="white" stop-opacity="0"/>
<stop offset="0.802885" stop-color="white"/>
</linearGradient>
<clipPath id="clip0_2017_1330">
<rect width="1920" height="860" fill="white"/>
</clipPath>
<clipPath id="clip1_2017_1330">
<rect width="1920" height="900" fill="white" transform="translate(0 -20)"/>
</clipPath>
</defs>
</svg>
