<svg width="1920" height="888" viewBox="0 0 1920 888" fill="none" xmlns="http://www.w3.org/2000/svg">
<g clip-path="url(#clip0_2002_1449)">
<g clip-path="url(#clip1_2002_1449)">
<rect width="1920" height="900" fill="url(#paint0_linear_2002_1449)"/>
<g filter="url(#filter0_f_2002_1449)" style="mix-blend-mode:color-dodge">
<path d="M428.939 1162.66C400.191 529.9 810.501 -120.082 915.039 -94.2548C1019.58 -68.4277 1011.74 521.291 1121.5 727.908C1198.93 873.657 1322.69 1130.52 1402.83 1162.66H1432.5C1423.54 1167.25 1413.58 1166.98 1402.83 1162.66H428.939Z" fill="url(#paint1_radial_2002_1449)" fill-opacity="0.5"/>
</g>
</g>
<path d="M87.3664 876.772C69.0792 869.562 53.4707 858.491 40.4378 843.557C27.4565 828.675 17.463 810.137 10.4572 787.993C3.5029 765.85 0 740.154 0 710.802V694.941C0 665.588 3.60592 639.841 10.8178 617.749C18.0296 595.606 28.1262 577.119 41.159 562.185C54.1403 547.303 69.8004 536.077 88.0875 528.61C106.375 521.143 126.362 517.436 147.997 517.436C169.633 517.436 188.178 521.298 206.465 528.971C224.752 536.695 239.433 546.994 250.509 560.023H251.951V382.466H334.939V880.325H270.702L263.49 837.738H262.048C247.624 854.577 230.985 867.091 212.234 875.278C193.483 883.466 172.054 887.534 147.997 887.534C125.847 887.534 105.654 883.93 87.3664 876.72V876.772ZM230.264 787.633C244.688 771.515 251.899 745.664 251.899 710.081V694.22C251.899 659.563 244.43 634.073 229.543 617.749C214.604 601.425 194.668 593.237 169.633 593.237C144.597 593.237 123.426 601.322 109.002 617.389C94.5782 633.507 87.3664 659.358 87.3664 694.941V710.802C87.3664 745.458 94.8358 770.948 109.723 787.273C124.61 803.648 144.597 811.784 169.633 811.784C194.668 811.784 215.84 803.751 230.264 787.633Z" fill="#C8D4FB" fill-opacity="0.4"/>
<path d="M434.925 460.744C424.571 450.393 419.42 437.519 419.42 422.122C419.42 406.725 424.571 393.851 434.925 383.5C445.28 373.15 458.158 368 473.56 368C488.963 368 501.841 373.15 512.195 383.5C522.549 393.851 527.701 406.725 527.701 422.122C527.701 437.519 522.549 450.393 512.195 460.744C501.841 471.094 488.963 476.244 473.56 476.244C458.158 476.244 445.28 471.094 434.925 460.744ZM431.68 519.551H515.389V880.329H431.68V519.551Z" fill="#C8D4FB" fill-opacity="0.4"/>
<path d="M619.343 858.697C598.635 839.49 588.332 812.763 588.332 778.622C588.332 760.341 591.217 743.965 596.986 729.546C602.756 715.128 612.131 702.872 625.113 692.727C638.094 682.582 654.939 674.91 675.647 669.657C696.355 664.353 721.339 661.727 750.702 661.727H822.15V642.261C822.15 623.517 816.587 608.944 805.563 598.593C794.488 588.243 777.437 583.093 754.308 583.093C731.178 583.093 714.591 587.316 704.494 595.709C694.398 604.103 688.371 614.814 686.465 627.843H602.756C603.735 611.519 607.547 596.224 614.295 582.012C621.043 567.85 630.624 555.543 643.142 545.192C655.66 534.842 671.165 526.808 689.71 521.041C708.203 515.273 729.787 512.39 754.308 512.39C805.769 512.39 843.941 524.182 868.718 547.767C893.496 571.352 905.911 605.236 905.911 649.522V880.429H840.953L833.02 833.516H831.577C817.617 850.819 800.515 864.207 780.322 873.58C760.129 882.952 738.236 887.638 714.642 887.638C671.784 887.638 640.051 878.008 619.343 858.749V858.697ZM766.207 810.343C777.489 806.017 787.379 799.992 795.827 792.32C804.224 784.647 810.715 775.738 815.299 765.645C819.884 755.552 822.15 744.48 822.15 732.43V723.779H754.308C725.409 723.779 705.216 728.465 693.677 737.837C682.138 747.209 676.368 759.826 676.368 775.738C676.368 787.788 680.592 797.624 688.989 805.348C697.386 813.072 710.779 816.883 729.066 816.883C742.511 816.883 754.926 814.72 766.259 810.395L766.207 810.343Z" fill="#C8D4FB" fill-opacity="0.4"/>
<path d="M1046.29 864.829C1030.16 854.478 1018.37 842.583 1010.9 829.091C1003.43 815.65 999.1 802.262 997.915 789.027C996.73 775.793 996.112 766.524 996.112 761.271V375.26H1079.82V752.62C1079.82 769.922 1083.89 782.796 1092.08 791.242C1100.27 799.635 1112.74 803.858 1129.63 803.858H1147.66V880.329H1114.44C1085.08 880.329 1062.36 875.179 1046.23 864.829H1046.29Z" fill="#C8D4FB" fill-opacity="0.4"/>
<path d="M1229.98 840.674C1199.17 809.416 1183.77 765.181 1183.77 707.918V692.058C1183.77 663.684 1187.74 638.399 1195.67 616.308C1203.6 594.165 1215.14 575.42 1230.34 560.023C1245.48 544.626 1263.77 532.833 1285.2 524.646C1306.63 516.458 1330.53 512.39 1357.01 512.39C1411.36 512.39 1453.85 528.044 1484.4 559.302C1514.95 590.56 1530.25 634.846 1530.25 692.058V707.918C1530.25 736.292 1526.28 761.577 1518.35 783.668C1510.42 805.811 1498.88 824.556 1483.68 839.953C1468.54 855.35 1450.35 867.143 1429.18 875.33C1408.01 883.518 1383.95 887.586 1357.01 887.586C1303.13 887.586 1260.78 871.983 1229.98 840.674ZM1419.44 786.192C1434.59 769.61 1442.16 743.502 1442.16 707.918V692.058C1442.16 657.401 1434.43 631.55 1419.08 614.505C1403.68 597.46 1382.97 588.912 1357.01 588.912C1331.05 588.912 1309.72 597.203 1294.58 613.784C1279.43 630.366 1271.86 656.474 1271.86 692.058V707.918C1271.86 742.575 1279.53 768.426 1294.94 785.471C1310.34 802.567 1331.05 811.064 1357.01 811.064C1382.97 811.064 1404.3 802.773 1419.44 786.192Z" fill="#C8D4FB" fill-opacity="0.4"/>
<path d="M1669.18 861.943C1650.64 854.476 1634.87 843.559 1621.89 829.089C1608.91 814.67 1598.82 796.75 1591.55 775.328C1584.34 753.906 1580.73 729.033 1580.73 700.659V684.799C1580.73 656.888 1584.34 632.222 1591.55 610.851C1598.76 589.429 1608.96 571.405 1622.25 556.729C1635.49 542.053 1651.36 530.981 1669.9 523.514C1688.4 516.048 1708.74 512.34 1730.9 512.34C1755.42 512.34 1777.1 516.562 1795.85 524.956C1814.6 533.402 1831.45 546.018 1846.39 562.857H1847.83L1854.32 519.549H1920V883.932C1920 932.492 1907.02 969.312 1881 994.338C1855.04 1019.37 1814.6 1031.88 1759.74 1031.88C1708.74 1031.88 1671.29 1021.43 1647.5 1000.47C1623.7 979.508 1609.84 950.31 1605.98 912.821H1694.01C1697.88 929.145 1704.73 941.555 1714.57 950.001C1724.4 958.395 1739.45 962.617 1759.69 962.617C1785.65 962.617 1804.92 956.129 1817.44 943.152C1829.96 930.175 1836.19 909.216 1836.19 880.379V829.862H1834.75C1823.21 843.353 1808.16 853.91 1789.62 861.634C1771.08 869.359 1751.5 873.169 1730.79 873.169C1708.18 873.169 1687.57 869.462 1669.08 861.995L1669.18 861.943ZM1813.88 772.856C1828.77 756.995 1836.24 732.947 1836.24 700.711V684.85C1836.24 653.077 1828.67 629.183 1813.52 613.065C1798.38 596.947 1778.03 588.914 1752.53 588.914C1727.03 588.914 1706.07 596.844 1691.18 612.705C1676.24 628.565 1668.82 652.614 1668.82 684.85V700.711C1668.82 732.483 1676.39 756.377 1691.54 772.495C1706.68 788.614 1727.03 796.647 1752.53 796.647C1778.03 796.647 1798.94 788.717 1813.88 772.856Z" fill="#C8D4FB" fill-opacity="0.4"/>
<mask id="mask0_2002_1449" style="mask-type:alpha" maskUnits="userSpaceOnUse" x="603" y="19" width="1291" height="900">
<rect x="603" y="19" width="1291" height="900" fill="#D9D9D9"/>
</mask>
<g mask="url(#mask0_2002_1449)">
<path d="M254.221 1315.18C215.078 1336.03 175.229 1340.82 140.638 1345C90.2192 1351.08 50.3862 1355.88 13.8717 1402.43L-52.0972 1350.69C5.86172 1276.79 75.0233 1268.45 130.603 1261.76C181.022 1255.68 220.855 1250.88 257.369 1204.33C293.884 1157.78 289.058 1117.95 282.951 1067.53C276.215 1011.96 267.837 942.796 325.786 868.905C383.745 795.009 452.907 786.672 508.486 779.982C558.905 773.9 598.738 769.1 635.253 722.55C671.767 675.999 666.942 636.167 660.834 585.748C654.098 530.18 645.721 461.015 703.669 387.124C761.628 313.227 830.79 304.891 886.37 298.2C936.789 292.119 976.622 287.319 1013.14 240.768C1049.65 194.218 1044.82 154.386 1038.72 103.967C1032 48.5317 1023.64 -20.4246 1081.12 -94.1036L1081.6 -94.7201C1139.56 -168.616 1208.72 -176.952 1264.3 -183.643C1314.72 -189.725 1354.55 -194.525 1391.06 -241.075C1427.58 -287.626 1422.75 -327.458 1416.65 -377.876C1409.91 -433.445 1401.53 -502.61 1459.48 -576.501C1517.44 -650.397 1586.6 -658.734 1642.18 -665.424C1692.6 -671.506 1732.43 -676.306 1768.95 -722.856C1805.46 -769.407 1800.64 -809.239 1794.53 -859.657C1787.79 -915.226 1779.42 -984.391 1837.36 -1058.28C1895.32 -1132.18 1964.48 -1140.51 2020.06 -1147.21C2070.48 -1153.29 2110.32 -1158.09 2146.83 -1204.64C2183.34 -1251.19 2178.52 -1291.02 2172.41 -1341.44C2165.68 -1397.01 2157.3 -1466.17 2215.25 -1540.06L2281.22 -1488.32C2244.7 -1441.77 2249.53 -1401.94 2255.63 -1351.52C2262.37 -1295.95 2270.75 -1226.79 2212.8 -1152.89C2154.84 -1079 2085.68 -1070.66 2030.1 -1063.97C1979.68 -1057.89 1939.85 -1053.09 1903.33 -1006.54C1866.82 -959.989 1871.64 -920.157 1877.75 -869.739C1884.49 -814.17 1892.86 -745.005 1834.92 -671.114C1776.97 -597.223 1707.8 -588.881 1652.22 -582.191C1601.8 -576.109 1561.96 -571.309 1525.45 -524.758C1488.94 -478.208 1493.76 -438.376 1499.87 -387.957C1506.6 -332.389 1514.98 -263.223 1457.03 -189.333C1399.07 -115.436 1329.91 -107.1 1274.33 -100.409C1224.05 -94.3466 1184.3 -89.5539 1147.87 -43.3589L1147.53 -42.9202C1111.02 3.63022 1115.84 43.4626 1121.95 93.881C1128.69 149.449 1137.06 218.615 1079.12 292.506C1021.16 366.402 951.995 374.738 896.415 381.429C845.996 387.51 806.163 392.311 769.649 438.861C733.134 485.411 737.96 525.244 744.067 575.662C750.803 631.23 759.181 700.396 701.232 774.287C643.273 848.183 574.111 856.519 518.532 863.21C468.113 869.292 428.28 874.092 391.765 920.642C355.251 967.193 360.076 1007.02 366.184 1057.44C372.92 1113.01 381.297 1182.18 323.349 1256.07C301.463 1283.97 277.979 1302.52 254.231 1315.17L254.221 1315.18Z" fill="#C8D4FB"/>
<path d="M576.557 787.039L589.414 782.888C594.207 781.347 598.06 781.252 600.973 782.631C603.886 784.01 605.977 786.645 607.223 790.519C608.453 794.338 608.274 797.701 606.685 800.609C605.096 803.517 601.958 805.733 597.266 807.247L590.706 809.367L594.706 821.746L588.409 823.777L576.547 787.045L576.557 787.039ZM584.723 790.782L588.857 803.583L595.153 801.552C597.845 800.689 599.606 799.517 600.424 798.057C601.241 796.597 601.307 794.798 600.623 792.66C599.977 790.67 598.862 789.306 597.282 788.579C595.691 787.857 593.609 787.916 591.019 788.751L584.723 790.782Z" fill="white" fill-opacity="0.5"/>
<path d="M604.918 777.379L626.324 764.811L629.398 770.046L613.702 779.262L618.591 787.59L631.432 780.05L634.506 785.285L621.665 792.825L627.111 802.1L642.807 792.884L645.881 798.12L624.475 810.688L604.929 777.4L604.918 777.379Z" fill="white" fill-opacity="0.5"/>
<path d="M653.625 788.289C650.311 788.226 647.114 786.752 644.013 783.852L649.109 779.128C650.972 780.703 652.744 781.523 654.42 781.577C656.095 781.631 657.821 780.828 659.601 779.18C661.381 777.532 662.343 775.93 662.472 774.37C662.606 772.82 662.078 771.39 660.882 770.095C659.729 768.855 658.382 768.249 656.832 768.284C655.281 768.319 653.613 769.156 651.838 770.814L648.403 774.006L644.432 769.715L647.867 766.524C649.482 765.028 650.347 763.608 650.466 762.274C650.585 760.939 650.103 759.692 649.028 758.527C647.901 757.312 646.662 756.714 645.31 756.708C643.964 756.712 642.467 757.457 640.858 758.963C639.242 760.458 638.4 761.945 638.345 763.4C638.291 764.856 638.959 766.548 640.345 768.469L635.249 773.193C632.694 770.002 631.496 766.828 631.681 763.669C631.866 760.51 633.548 757.462 636.724 754.512C638.314 753.043 639.898 751.927 641.472 751.206C643.05 750.469 644.571 750.086 646.045 750.053C647.519 750.021 648.903 750.282 650.208 750.857C651.513 751.433 652.692 752.283 653.745 753.408C655.019 754.778 655.851 756.242 656.233 757.788C656.616 759.335 656.536 760.986 656.003 762.735L656.071 762.815C658.074 762.267 659.927 762.24 661.64 762.728C663.352 763.216 664.919 764.236 666.346 765.771C667.447 766.961 668.254 768.256 668.756 769.661C669.263 771.077 669.414 772.553 669.234 774.114C669.049 775.665 668.506 777.251 667.61 778.856C666.715 780.461 665.425 782.056 663.719 783.626C660.299 786.796 656.929 788.357 653.615 788.294L653.625 788.289Z" fill="white" fill-opacity="0.5"/>
<path d="M667.316 728.493L660.943 738.487L655.821 735.225L672.125 709.645L677.247 712.907L670.874 722.902L698.317 740.391L694.754 745.972L667.311 728.483L667.316 728.493Z" fill="white" fill-opacity="0.5"/>
<path d="M672.686 707.997L681.374 684.748L687.056 686.87L680.691 703.915L689.738 707.291L694.949 693.338L700.63 695.46L695.419 709.413L705.49 713.178L711.856 696.133L717.537 698.255L708.849 721.504L672.686 707.997Z" fill="white" fill-opacity="0.5"/>
<path d="M681.934 681.972L683.667 668.575C684.311 663.576 685.885 660.054 688.371 658.003C690.858 655.953 694.13 655.182 698.173 655.713C702.145 656.23 705.109 657.828 707.068 660.507C709.016 663.19 709.682 666.972 709.055 671.858L708.171 678.695L721.081 680.364L720.231 686.925L681.939 681.983L681.934 681.972ZM688.799 676.189L702.14 677.914L702.99 671.353C703.348 668.544 703.053 666.457 702.076 665.085C701.104 663.722 699.505 662.888 697.281 662.607C695.206 662.338 693.501 662.766 692.169 663.891C690.836 665.016 689.999 666.927 689.649 669.629L688.799 676.189Z" fill="white" fill-opacity="0.5"/>
<path d="M685.311 651.723L684.957 645.117L700.648 644.267L699.668 626.091L683.976 626.941L683.621 620.335L722.178 618.251L722.533 624.857L705.732 625.766L706.712 643.942L723.513 643.033L723.868 649.639L685.317 651.733L685.311 651.723Z" fill="white" fill-opacity="0.5"/>
<path d="M682.629 613.823L681.83 607.259L711.944 603.615L711.926 603.508L679.918 591.497L678.84 582.632L717.162 577.988L717.95 584.557L687.836 588.201L687.854 588.308L719.862 600.319L720.94 609.185L682.619 613.828L682.629 613.823Z" fill="white" fill-opacity="0.5"/>
<path d="M677.61 573.432L677.163 566.823L707.431 564.758L707.423 564.645L676.084 550.969L675.475 542.06L713.992 539.439L714.439 546.048L684.172 548.113L684.18 548.226L715.519 561.902L716.127 570.811L677.61 573.432Z" fill="white" fill-opacity="0.5"/>
<path d="M676.227 514.183L677.215 507.639L692.764 509.978L693.336 506.159L679.454 492.805L680.581 485.28L696.781 501.38L718.912 489.93L717.719 497.891L699.329 507.064L698.757 510.883L715.39 513.383L714.401 519.926L676.227 514.183Z" fill="white" fill-opacity="0.5"/>
<path d="M726.783 466.753C725.163 468.265 723.317 469.351 721.24 470.004C719.163 470.657 716.889 470.843 714.399 470.575C711.909 470.306 709.282 469.513 706.52 468.223L704.426 467.237C701.798 466.005 699.621 464.545 697.897 462.844C696.174 461.142 694.918 459.295 694.109 457.289C693.299 455.282 692.963 453.166 693.1 450.94C693.232 448.705 693.824 446.457 694.887 444.192C695.853 442.135 697.022 440.41 698.374 439.028C699.731 437.657 701.21 436.61 702.799 435.893C704.388 435.177 706.067 434.775 707.816 434.674C709.564 434.572 711.306 434.799 713.055 435.332L710.018 441.826C709.045 441.656 708.082 441.625 707.137 441.726C706.198 441.837 705.303 442.08 704.478 442.455C703.649 442.845 702.884 443.382 702.186 444.091C701.487 444.8 700.896 445.686 700.386 446.749C699.759 448.081 699.425 449.4 699.377 450.722C699.329 452.044 699.572 453.303 700.125 454.512C700.678 455.722 701.548 456.867 702.738 457.957C703.928 459.048 705.479 460.037 707.376 460.92L709.47 461.905C711.47 462.837 713.303 463.43 714.984 463.663C716.654 463.901 718.158 463.852 719.501 463.526C720.829 463.195 721.986 462.591 722.966 461.706C723.947 460.821 724.744 459.735 725.35 458.439C725.835 457.403 726.122 456.407 726.209 455.427C726.302 454.457 726.206 453.523 725.938 452.628C725.669 451.734 725.237 450.875 724.653 450.045C724.058 449.221 723.326 448.456 722.438 447.762L725.524 441.165C727.18 442.228 728.569 443.473 729.681 444.903C730.793 446.334 731.607 447.91 732.106 449.602C732.611 451.304 732.77 453.113 732.574 455.033C732.377 456.953 731.804 458.944 730.844 461.012C729.771 463.307 728.412 465.211 726.798 466.732L726.783 466.753Z" fill="#162661" fill-opacity="0.5"/>
<path d="M698.019 438.677C699.415 437.267 700.943 436.182 702.593 435.437C704.24 434.694 705.98 434.279 707.787 434.175C709.599 434.069 711.4 434.304 713.201 434.854L713.752 435.023L713.508 435.544L710.47 442.037L710.308 442.384L709.932 442.319C709.005 442.157 708.088 442.127 707.19 442.223L707.19 442.222C706.301 442.328 705.458 442.559 704.685 442.91L704.685 442.909C703.912 443.274 703.198 443.776 702.542 444.442C701.891 445.103 701.329 445.94 700.837 446.965L700.835 446.965C700.236 448.241 699.922 449.494 699.877 450.74C699.832 451.986 700.06 453.167 700.58 454.304C701.1 455.441 701.924 456.534 703.075 457.589C704.218 458.636 705.723 459.599 707.587 460.467L707.589 460.467L709.682 461.452L710.412 461.78C712.095 462.507 713.637 462.971 715.052 463.168L715.054 463.168C716.673 463.399 718.111 463.349 719.38 463.041L719.842 462.911C720.9 462.582 721.829 462.059 722.631 461.335C723.559 460.497 724.317 459.467 724.897 458.228C725.362 457.235 725.63 456.295 725.711 455.383L725.712 455.38C725.798 454.474 725.709 453.605 725.459 452.773C725.208 451.937 724.802 451.127 724.246 450.337C723.68 449.553 722.982 448.822 722.13 448.156L721.817 447.911L721.985 447.551L725.071 440.953L725.313 440.436L725.794 440.744C727.492 441.835 728.925 443.117 730.076 444.597C731.153 445.983 731.961 447.504 732.484 449.134L732.585 449.46C733.11 451.229 733.274 453.104 733.071 455.084C732.868 457.067 732.277 459.112 731.297 461.222L731.297 461.223C730.209 463.553 728.826 465.497 727.177 467.06L727.161 467.084L727.124 467.119C725.451 468.679 723.54 469.806 721.39 470.481C719.237 471.158 716.893 471.346 714.345 471.071C711.788 470.796 709.108 469.984 706.308 468.676L706.307 468.675L704.213 467.689C701.545 466.438 699.317 464.948 697.546 463.199C695.78 461.455 694.482 459.553 693.645 457.476C692.807 455.399 692.46 453.207 692.601 450.91C692.737 448.605 693.348 446.296 694.435 443.98C695.421 441.879 696.62 440.106 698.016 438.678L698.019 438.677Z" stroke="#162661" stroke-opacity="0.5"/>
<path d="M733.721 441.364L731.069 424.285C730.8 422.612 730.543 421.18 730.308 419.983C730.072 418.786 729.79 417.769 729.477 416.938C729.163 416.106 728.813 415.424 728.42 414.881C728.033 414.348 727.575 413.879 727.028 413.509C726.303 413 725.572 412.65 724.825 412.465C724.078 412.279 723.35 412.252 722.657 412.388C721.954 412.529 721.276 412.812 720.632 413.259C719.988 413.706 719.379 414.315 718.836 415.097C718.302 415.848 717.943 416.61 717.738 417.394C717.527 418.167 717.501 418.921 717.642 419.649C717.784 420.378 718.094 421.081 718.588 421.765C719.082 422.449 719.743 423.082 720.588 423.669L716.602 429.358C715.069 428.281 713.835 427.059 712.914 425.695C711.987 424.321 711.413 422.877 711.178 421.342C710.95 419.817 711.047 418.222 711.491 416.572C711.925 414.927 712.727 413.268 713.882 411.615C715.038 409.963 716.319 408.644 717.702 407.662C719.085 406.679 720.527 406.027 722.029 405.707C723.532 405.387 725.048 405.409 726.572 405.764C728.097 406.119 729.589 406.802 731.033 407.81C731.941 408.442 732.708 409.2 733.355 410.074C734.002 410.948 734.566 411.983 735.048 413.179C735.539 414.37 735.954 415.757 736.291 417.315C736.633 418.883 736.94 420.652 737.206 422.637L738.699 434.252L748.61 420.116L753.392 423.469L738.517 444.696L733.736 441.343L733.721 441.364Z" fill="#162661" fill-opacity="0.5"/>
<path d="M717.413 407.254C718.845 406.236 720.35 405.554 721.925 405.218C723.502 404.882 725.092 404.906 726.686 405.277C728.279 405.648 729.828 406.361 731.318 407.399C732.272 408.064 733.079 408.86 733.757 409.776C734.433 410.689 735.015 411.762 735.509 412.988L735.51 412.988C736.015 414.212 736.438 415.629 736.78 417.209C737.126 418.792 737.434 420.575 737.701 422.57L737.702 422.573L739.029 432.907L748.201 419.829L748.488 419.419L748.897 419.706L753.679 423.06L754.088 423.347L753.801 423.756L738.926 444.983L738.64 445.392L738.231 445.105L733.854 442.037L733.416 442.657L733.227 441.441L730.575 424.361C730.308 422.695 730.051 421.27 729.817 420.08C729.585 418.903 729.31 417.914 729.008 417.114C728.706 416.312 728.375 415.672 728.016 415.175L727.878 414.993C727.55 414.576 727.178 414.214 726.748 413.923L726.741 413.918C726.057 413.438 725.382 413.118 724.705 412.95C724.021 412.78 723.368 412.758 722.754 412.878L722.753 412.877C722.119 413.005 721.505 413.262 720.917 413.67C720.327 414.079 719.759 414.644 719.247 415.382L719.243 415.387C718.742 416.093 718.41 416.801 718.222 417.521L718.22 417.525C718.029 418.227 718.007 418.903 718.134 419.554C718.26 420.204 718.538 420.842 718.993 421.473C719.448 422.102 720.066 422.697 720.873 423.259L721.286 423.545L720.997 423.956L717.011 429.645L716.725 430.055L716.315 429.767C714.74 428.66 713.459 427.396 712.5 425.975C711.535 424.543 710.93 423.03 710.684 421.417L710.684 421.416C710.445 419.818 710.547 418.153 711.008 416.442C711.459 414.731 712.29 413.02 713.472 411.329C714.655 409.637 715.977 408.275 717.413 407.254Z" stroke="#162661" stroke-opacity="0.5"/>
<path d="M791.75 369.401C789.572 369.498 787.739 369.125 786.243 368.288C784.747 367.451 783.536 366.346 782.599 364.952C781.662 363.558 780.861 362.273 780.2 361.082L774.712 351.193L780.497 347.982L785.846 357.634C786.238 358.345 786.723 359.111 787.288 359.952C787.852 360.792 788.561 361.465 789.388 361.971C790.215 362.477 791.235 362.738 792.434 362.748C793.632 362.758 795.069 362.291 796.745 361.372C797.866 360.749 798.934 360.076 799.944 359.344C800.944 358.617 801.993 357.786 803.075 356.847L794.006 340.502L799.79 337.291L818.514 371.056L812.729 374.267L806.071 362.253C804.797 363.294 803.673 364.153 802.701 364.813C801.72 365.478 800.728 366.097 799.698 366.672C796.573 368.401 793.934 369.314 791.75 369.401Z" fill="white" fill-opacity="0.5"/>
<path d="M811.837 332.249L835.37 324.357L837.305 330.108L820.056 335.898L823.129 345.05L837.245 340.319L839.181 346.07L825.064 350.801L828.486 360.999L845.744 355.204L847.679 360.955L824.146 368.847L811.862 332.248L811.837 332.249Z" fill="white" fill-opacity="0.5"/>
<path d="M845.051 322.001L858.323 319.432C863.269 318.47 867.104 318.852 869.836 320.574C872.569 322.295 874.312 325.153 875.096 329.158C875.858 333.096 875.272 336.403 873.34 339.105C871.408 341.807 868.029 343.619 863.184 344.553L856.413 345.864L858.888 358.642L852.387 359.9L845.051 322.001ZM852.704 326.704L855.266 339.914L861.767 338.656C864.544 338.123 866.434 337.168 867.429 335.822C868.418 334.465 868.705 332.691 868.285 330.49C867.889 328.432 866.944 326.951 865.461 326.042C863.979 325.133 861.89 324.936 859.22 325.45L852.72 326.708L852.704 326.704Z" fill="white" fill-opacity="0.5"/>
<path d="M879.535 315.874L904.154 312.772L904.908 318.789L886.852 321.067L888.062 330.641L902.836 328.775L903.59 334.792L888.816 336.658L890.156 347.33L908.212 345.052L908.966 351.069L884.347 354.171L879.519 315.87L879.535 315.874Z" fill="white" fill-opacity="0.5"/>
<path d="M915.744 347.459C913.067 345.5 911.309 342.443 910.449 338.297L917.338 337.377C917.952 339.747 918.927 341.432 920.269 342.442C921.611 343.452 923.478 343.793 925.886 343.47C928.295 343.147 930.006 342.391 931.004 341.198C932.003 340.005 932.4 338.535 932.165 336.78C931.948 335.106 931.188 333.825 929.901 332.968C928.619 332.095 926.769 331.835 924.371 332.153L919.723 332.774L918.944 326.978L923.592 326.357C925.781 326.06 927.3 325.406 928.164 324.375C929.028 323.344 929.354 322.056 929.139 320.484C928.918 318.852 928.257 317.635 927.151 316.849C926.051 316.074 924.401 315.824 922.212 316.121C920.023 316.418 918.49 317.144 917.604 318.303C916.717 319.463 916.291 321.22 916.312 323.595L909.423 324.515C909.17 320.436 910.027 317.152 912.006 314.685C913.97 312.212 917.11 310.682 921.412 310.116C923.565 309.825 925.491 309.836 927.198 310.146C928.906 310.455 930.375 311.021 931.599 311.835C932.823 312.648 933.797 313.672 934.535 314.887C935.273 316.102 935.748 317.483 935.952 319.008C936.204 320.871 936.033 322.544 935.461 324.028C934.89 325.512 933.875 326.819 932.424 327.941L932.442 328.049C934.385 328.751 935.928 329.797 937.034 331.192C938.15 332.581 938.84 334.314 939.119 336.396C939.339 338.003 939.24 339.521 938.842 340.965C938.444 342.409 937.715 343.718 936.67 344.871C935.614 346.03 934.267 347.007 932.608 347.813C930.954 348.603 928.982 349.161 926.681 349.466C922.058 350.087 918.395 349.418 915.728 347.454L915.744 347.459Z" fill="white" fill-opacity="0.5"/>
<path d="M962.791 308.849L951.452 312.321L949.675 306.525L978.676 297.652L980.454 303.448L969.115 306.92L978.637 338.04L972.302 339.975L962.781 308.855L962.791 308.849Z" fill="white" fill-opacity="0.5"/>
<path d="M980.169 296.779L1001.86 284.73L1004.81 290.036L988.896 298.874L993.583 307.308L1006.6 300.076L1009.54 305.381L996.526 312.614L1001.76 322.018L1017.67 313.18L1020.61 318.485L998.913 330.534L980.159 296.784L980.169 296.779Z" fill="white" fill-opacity="0.5"/>
<path d="M1004.1 282.968L1014.12 273.908C1017.86 270.53 1021.35 268.868 1024.57 268.928C1027.79 268.989 1030.78 270.535 1033.5 273.557C1036.19 276.534 1037.41 279.672 1037.15 282.976C1036.88 286.28 1034.94 289.587 1031.27 292.886L1026.16 297.503L1034.88 307.16L1029.97 311.593L1004.09 282.948L1004.1 282.968ZM1013.08 283.033L1022.11 293.02L1027.03 288.588C1029.13 286.69 1030.25 284.91 1030.4 283.237C1030.55 281.564 1029.88 279.897 1028.37 278.236C1026.97 276.675 1025.39 275.896 1023.65 275.89C1021.91 275.884 1020.02 276.782 1018 278.611L1013.09 283.043L1013.08 283.033Z" fill="white" fill-opacity="0.5"/>
<path d="M1026.27 262.459L1030.19 257.131L1042.85 266.44L1053.64 251.785L1040.98 242.475L1044.9 237.147L1075.99 260.031L1072.07 265.359L1058.53 255.392L1047.74 270.047L1061.28 280.014L1057.37 285.343L1026.27 262.459Z" fill="white" fill-opacity="0.5"/>
<path d="M1047.27 233.471L1049.78 227.349L1077.85 238.852L1077.88 238.754L1055.8 212.653L1059.19 204.389L1094.92 219.023L1092.41 225.144L1064.34 213.641L1064.3 213.739L1086.39 239.84L1082.99 248.105L1047.27 233.471Z" fill="white" fill-opacity="0.5"/>
<path d="M1060.04 200.63L1060.77 194.057L1090.92 197.397L1090.93 197.289L1062.51 178.284L1063.49 169.396L1101.86 173.634L1101.14 180.206L1070.98 176.867L1070.98 176.975L1099.39 195.985L1098.41 204.858L1060.04 200.619L1060.04 200.63Z" fill="white" fill-opacity="0.5"/>
<path d="M1062.37 150.905L1061.7 144.322L1077.35 142.747L1076.96 138.907L1060.21 129.39L1059.44 121.822L1079.12 133.423L1097.74 116.867L1098.55 124.879L1082.99 138.3L1083.38 142.141L1100.12 140.46L1100.78 147.043L1062.37 150.905Z" fill="white" fill-opacity="0.5"/>
<path d="M1093.7 90.1267C1093.07 92.2524 1092.04 94.1276 1090.57 95.7372C1089.11 97.3569 1087.25 98.6747 1084.97 99.6961C1082.68 100.717 1080.02 101.385 1076.98 101.668L1074.67 101.887C1071.78 102.156 1069.15 101.998 1066.81 101.403C1064.46 100.813 1062.44 99.8569 1060.72 98.5391C1059.01 97.2214 1057.65 95.5718 1056.63 93.5758C1055.61 91.5899 1054.98 89.343 1054.75 86.8607C1054.54 84.5877 1054.67 82.5209 1055.14 80.6503C1055.61 78.7796 1056.35 77.1272 1057.35 75.7086C1058.36 74.29 1059.6 73.0855 1061.06 72.1162C1062.51 71.1469 1064.14 70.4497 1065.9 70.0305L1066.57 77.1658C1065.64 77.5174 1064.8 77.9693 1064.04 78.5418C1063.28 79.1143 1062.65 79.7758 1062.12 80.5215C1061.6 81.2773 1061.22 82.132 1060.97 83.0905C1060.73 84.0491 1060.67 85.1208 1060.78 86.2957C1060.91 87.7668 1061.29 89.0677 1061.93 90.2341C1062.55 91.3957 1063.41 92.3616 1064.5 93.1169C1065.58 93.8876 1066.92 94.4317 1068.5 94.7597C1070.08 95.0979 1071.91 95.1582 1074 94.9661L1076.31 94.7478C1078.51 94.5376 1080.39 94.1206 1081.96 93.4657C1083.52 92.8162 1084.79 92.0204 1085.77 91.0582C1086.75 90.096 1087.44 88.9876 1087.84 87.7383C1088.24 86.489 1088.37 85.1339 1088.24 83.7139C1088.13 82.5802 1087.88 81.5729 1087.45 80.6827C1087.04 79.8025 1086.49 79.0333 1085.8 78.4008C1085.11 77.7682 1084.3 77.2413 1083.38 76.8248C1082.46 76.4082 1081.42 76.1276 1080.31 75.9822L1079.63 68.7346C1081.58 68.807 1083.42 69.1796 1085.11 69.8477C1086.8 70.5158 1088.29 71.4604 1089.58 72.6662C1090.87 73.872 1091.93 75.3551 1092.73 77.1059C1093.55 78.8514 1094.06 80.8707 1094.27 83.1336C1094.52 85.6617 1094.31 87.9861 1093.68 90.1119L1093.7 90.1267Z" fill="#162661" fill-opacity="0.5"/>
<path d="M1062.37 89.9988C1062.88 90.9529 1063.56 91.7662 1064.41 92.4307L1064.79 92.7059L1064.79 92.7093C1065.68 93.3414 1066.76 93.8196 1068.04 94.1419L1068.6 94.2699L1068.6 94.2707C1070.12 94.5951 1071.9 94.6574 1073.96 94.4687L1073.96 94.4682L1076.27 94.2497L1076.26 94.2502C1078.16 94.069 1079.79 93.7332 1081.18 93.23L1081.77 93.0044L1082.32 92.7607C1083.58 92.179 1084.61 91.4951 1085.42 90.7018C1086.35 89.7934 1086.99 88.7539 1087.37 87.5866C1087.69 86.5544 1087.83 85.4401 1087.78 84.2674L1087.74 83.7612C1087.63 82.6719 1087.4 81.7239 1087 80.8972L1086.85 80.5914C1086.48 79.8925 1086.02 79.2805 1085.46 78.7684C1084.82 78.1756 1084.05 77.6775 1083.17 77.2808C1082.3 76.8871 1081.32 76.6184 1080.24 76.4785L1079.85 76.4263L1079.81 76.0288L1079.13 68.7816L1079.07 68.2137L1079.64 68.2344C1081.65 68.3088 1083.54 68.6921 1085.29 69.3825C1087.04 70.0735 1088.58 71.0524 1089.92 72.3012C1091.26 73.5541 1092.36 75.0914 1093.19 76.8977C1094.03 78.7016 1094.56 80.7765 1094.77 83.0846L1094.77 83.0851C1095.01 85.5343 1094.83 87.8092 1094.26 89.9087L1094.29 89.9264L1094.18 90.2693C1093.53 92.4636 1092.46 94.4056 1090.94 96.0733L1090.94 96.0729C1089.43 97.7504 1087.51 99.1074 1085.17 100.153C1082.83 101.2 1080.11 101.879 1077.02 102.166L1077.02 102.166L1074.72 102.385C1071.78 102.658 1069.1 102.5 1066.69 101.888C1064.28 101.284 1062.19 100.299 1060.42 98.9356C1058.64 97.5708 1057.24 95.8626 1056.18 93.804C1055.13 91.7549 1054.49 89.4448 1054.25 86.907C1054.03 84.5874 1054.17 82.4628 1054.65 80.5288C1055.13 78.6046 1055.9 76.8939 1056.95 75.4193C1057.99 73.9511 1059.27 72.703 1060.78 71.6997C1062.28 70.696 1063.97 69.9763 1065.78 69.5441L1066.34 69.4113L1066.39 69.9831L1067.07 77.1187L1067.11 77.4987L1066.75 77.6333C1065.86 77.9702 1065.05 78.4003 1064.34 78.9405C1063.62 79.4814 1063.03 80.106 1062.53 80.8093C1062.05 81.5137 1061.69 82.3119 1061.46 83.2127C1061.26 83.9944 1061.19 84.8683 1061.24 85.8316L1061.27 86.2503C1061.4 87.6606 1061.77 88.8948 1062.37 89.9954L1062.37 89.9988Z" stroke="#162661" stroke-opacity="0.5"/>
<path d="M1086.27 64.5338L1074.44 51.9413C1073.28 50.7168 1072.26 49.678 1071.39 48.8198C1070.52 47.9616 1069.72 47.286 1068.98 46.7827C1068.25 46.2794 1067.57 45.9128 1066.96 45.6829C1066.33 45.4584 1065.69 45.3315 1065.03 45.3332C1064.15 45.3253 1063.35 45.4535 1062.63 45.7176C1061.92 45.9818 1061.3 46.3766 1060.8 46.886C1060.3 47.4007 1059.91 48.0098 1059.63 48.7441C1059.35 49.4785 1059.2 50.322 1059.19 51.2746C1059.18 52.2017 1059.3 53.0278 1059.57 53.7941C1059.84 54.5449 1060.24 55.19 1060.76 55.714C1061.29 56.2381 1061.94 56.641 1062.73 56.9229C1063.51 57.2047 1064.42 57.3554 1065.45 57.3647L1065.38 64.3144C1063.5 64.2911 1061.8 63.9765 1060.26 63.3711C1058.72 62.7657 1057.43 61.898 1056.37 60.763C1055.31 59.6281 1054.5 58.2562 1053.93 56.6529C1053.37 55.0496 1053.09 53.2391 1053.11 51.2161C1053.14 49.193 1053.44 47.3829 1054.02 45.791C1054.61 44.1938 1055.44 42.8464 1056.49 41.7388C1057.55 40.6312 1058.81 39.7897 1060.27 39.2196C1061.73 38.6495 1063.35 38.3723 1065.11 38.3935C1066.22 38.4008 1067.28 38.5885 1068.3 38.9513C1069.32 39.314 1070.37 39.8451 1071.45 40.5546C1072.53 41.2641 1073.65 42.1722 1074.81 43.2635C1075.98 44.3649 1077.23 45.6588 1078.57 47.1346L1086.35 55.8787L1086.55 38.6192L1092.39 38.6836L1092.1 64.6036L1086.26 64.5392L1086.27 64.5338Z" fill="#162661" fill-opacity="0.5"/>
<path d="M1056.13 41.3938C1057.24 40.2322 1058.57 39.3499 1060.09 38.7539C1061.62 38.1583 1063.3 37.8722 1065.11 37.8936L1065.11 37.8931C1066.28 37.9008 1067.39 38.0981 1068.47 38.4795C1069.53 38.8577 1070.62 39.4088 1071.72 40.1369C1072.69 40.7749 1073.69 41.5644 1074.71 42.492L1075.15 42.8992L1075.15 42.8996C1076.34 44.0126 1077.59 45.3166 1078.94 46.7977L1078.95 46.8019L1085.87 54.5808L1086.05 38.6135L1086.06 38.1136L1086.56 38.1195L1092.4 38.1838L1092.9 38.1893L1092.89 38.6892L1092.6 64.6092L1092.6 65.1091L1092.1 65.1032L1086.25 65.0393L1086.16 64.6399L1085.91 64.8761L1074.08 52.2836L1074.08 52.2827C1072.92 51.0629 1071.91 50.0291 1071.04 49.1761C1070.18 48.3323 1069.4 47.6778 1068.7 47.1957C1067.99 46.7096 1067.35 46.3656 1066.79 46.1537L1066.57 46.0802C1066.07 45.9191 1065.56 45.8319 1065.04 45.8332L1065.03 45.8329C1064.19 45.8255 1063.46 45.9464 1062.81 46.1865C1062.16 46.4269 1061.6 46.7828 1061.16 47.234L1061.16 47.2358C1060.71 47.699 1060.36 48.249 1060.1 48.9239C1059.84 49.5924 1059.7 50.3757 1059.69 51.2809C1059.68 52.156 1059.8 52.9243 1060.04 53.6304C1060.29 54.3172 1060.65 54.8945 1061.11 55.3595C1061.58 55.8255 1062.17 56.1924 1062.9 56.4525C1063.62 56.7119 1064.47 56.856 1065.46 56.8649L1065.96 56.869L1065.95 57.3698L1065.88 64.3197L1065.88 64.8205L1065.37 64.8142C1063.44 64.7903 1061.68 64.4663 1060.08 63.8362C1058.47 63.2052 1057.12 62.297 1056 61.1042C1054.89 59.9136 1054.05 58.4804 1053.46 56.8201C1052.87 55.1527 1052.59 53.2816 1052.61 51.2094C1052.64 49.1401 1052.95 47.2732 1053.55 45.6202L1053.55 45.618C1054.16 43.9627 1055.02 42.5554 1056.13 41.3938Z" stroke="#162661" stroke-opacity="0.5"/>
</g>
<rect y="523" width="1920" height="366" fill="url(#paint2_linear_2002_1449)"/>
</g>
<defs>
<filter id="filter0_f_2002_1449" x="127.5" y="-395" width="1605" height="1861" filterUnits="userSpaceOnUse" color-interpolation-filters="sRGB">
<feFlood flood-opacity="0" result="BackgroundImageFix"/>
<feBlend mode="normal" in="SourceGraphic" in2="BackgroundImageFix" result="shape"/>
<feGaussianBlur stdDeviation="150" result="effect1_foregroundBlur_2002_1449"/>
</filter>
<linearGradient id="paint0_linear_2002_1449" x1="2156.5" y1="-46.5" x2="1730.27" y2="1343.66" gradientUnits="userSpaceOnUse">
<stop stop-color="#98A4FF"/>
<stop offset="0.336538" stop-color="#C8D4FB"/>
<stop offset="0.613936" stop-color="#E5EBFF"/>
<stop offset="1" stop-color="white"/>
</linearGradient>
<radialGradient id="paint1_radial_2002_1449" cx="0" cy="0" r="1" gradientTransform="matrix(1261 -1112 540.69 1386.52 369.5 998)" gradientUnits="userSpaceOnUse">
<stop offset="0.112961" stop-color="#162661"/>
<stop offset="0.250637" stop-color="#23339F"/>
<stop offset="0.369792" stop-color="#69ABFF"/>
<stop offset="0.531583" stop-color="#162661"/>
<stop offset="0.662322" stop-color="#162661"/>
<stop offset="0.901939" stop-color="#94C5FB"/>
</radialGradient>
<linearGradient id="paint2_linear_2002_1449" x1="960" y1="523" x2="960" y2="889" gradientUnits="userSpaceOnUse">
<stop stop-color="white" stop-opacity="0"/>
<stop offset="0.802885" stop-color="white"/>
</linearGradient>
<clipPath id="clip0_2002_1449">
<rect width="1920" height="888" fill="white"/>
</clipPath>
<clipPath id="clip1_2002_1449">
<rect width="1920" height="900" fill="white"/>
</clipPath>
</defs>
</svg>
