<svg width="973" height="943" viewBox="0 0 973 943" fill="none" xmlns="http://www.w3.org/2000/svg">
<path d="M615.977 250.788C615.371 249.548 613.874 249.034 612.633 249.641C610.284 250.789 608.067 251.825 605.991 252.74C604.728 253.298 604.155 254.774 604.713 256.037C605.27 257.3 606.745 257.872 608.008 257.315C610.154 256.369 612.432 255.304 614.83 254.132C616.07 253.525 616.583 252.028 615.977 250.788Z" fill="url(#paint0_linear_37_938)"/>
<path d="M642.239 236.362C641.547 235.168 640.017 234.761 638.822 235.453C634.279 238.086 629.933 240.539 625.825 242.78C624.613 243.442 624.166 244.961 624.828 246.173C625.489 247.384 627.008 247.831 628.219 247.17C632.372 244.904 636.756 242.429 641.33 239.778C642.524 239.086 642.931 237.557 642.239 236.362Z" fill="url(#paint1_linear_37_938)"/>
<path d="M667.899 220.826C667.171 219.653 665.63 219.292 664.457 220.021C660.099 222.725 655.833 225.337 651.683 227.84C650.501 228.553 650.12 230.089 650.833 231.271C651.546 232.454 653.083 232.835 654.265 232.122C658.435 229.607 662.72 226.983 667.093 224.269C668.266 223.54 668.627 221.999 667.899 220.826Z" fill="url(#paint2_linear_37_938)"/>
<path d="M693.17 204.75C692.421 203.59 690.873 203.257 689.714 204.006C685.466 206.749 681.257 209.445 677.106 212.078C675.94 212.818 675.595 214.363 676.335 215.529C677.074 216.695 678.619 217.04 679.785 216.301C683.948 213.659 688.168 210.956 692.425 208.206C693.585 207.457 693.918 205.91 693.17 204.75Z" fill="url(#paint3_linear_37_938)"/>
<path d="M718.215 188.3C717.452 187.15 715.9 186.836 714.75 187.6C710.577 190.37 706.406 193.123 702.254 195.845C701.099 196.602 700.777 198.151 701.534 199.306C702.291 200.46 703.84 200.783 704.995 200.026C709.156 197.299 713.335 194.54 717.515 191.765C718.665 191.001 718.979 189.45 718.215 188.3Z" fill="url(#paint4_linear_37_938)"/>
<path d="M743.082 171.579C742.307 170.436 740.752 170.138 739.609 170.913C735.499 173.7 731.357 176.496 727.199 179.287C726.053 180.057 725.748 181.611 726.517 182.757C727.287 183.903 728.84 184.208 729.986 183.438C734.151 180.642 738.3 177.842 742.416 175.052C743.558 174.277 743.857 172.722 743.082 171.579Z" fill="url(#paint5_linear_37_938)"/>
<path d="M767.802 154.639C767.018 153.503 765.461 153.218 764.325 154.002C760.278 156.795 756.158 159.627 751.984 162.483C750.845 163.263 750.553 164.819 751.333 165.958C752.112 167.097 753.669 167.389 754.808 166.609C758.988 163.749 763.114 160.914 767.166 158.117C768.302 157.333 768.587 155.775 767.802 154.639Z" fill="url(#paint6_linear_37_938)"/>
<path d="M792.397 137.503C791.604 136.373 790.045 136.099 788.915 136.892C784.944 139.677 780.838 142.546 776.623 145.479C775.49 146.268 775.21 147.826 775.999 148.959C776.787 150.092 778.346 150.372 779.479 149.583C783.7 146.646 787.81 143.774 791.786 140.984C792.916 140.192 793.19 138.633 792.397 137.503Z" fill="url(#paint7_linear_37_938)"/>
<path d="M816.85 120.177C816.048 119.053 814.487 118.792 813.363 119.595C809.544 122.322 805.461 125.223 801.156 128.269C800.029 129.066 799.762 130.626 800.559 131.753C801.357 132.88 802.916 133.148 804.044 132.351C808.355 129.301 812.443 126.395 816.268 123.664C817.392 122.862 817.652 121.3 816.85 120.177Z" fill="url(#paint8_linear_37_938)"/>
<path d="M841.096 102.571C840.275 101.461 838.71 101.227 837.6 102.048C835.481 103.615 833.454 105.104 831.527 106.508C829.679 107.855 827.674 109.309 825.526 110.861C824.407 111.67 824.155 113.233 824.964 114.352C825.772 115.471 827.336 115.723 828.455 114.914C830.608 113.358 832.618 111.9 834.472 110.549C836.41 109.137 838.445 107.641 840.573 106.068C841.683 105.247 841.917 103.681 841.096 102.571Z" fill="url(#paint9_linear_37_938)"/>
<path d="M865.24 84.3535C864.403 83.2556 862.834 83.0446 861.736 83.8818C857.524 87.094 853.489 90.1536 849.657 93.041C848.554 93.8719 848.334 95.4393 849.165 96.542C849.995 97.6447 851.563 97.8651 852.666 97.0342C856.507 94.1402 860.55 91.0746 864.768 87.8574C865.866 87.0202 866.077 85.4513 865.24 84.3535Z" fill="url(#paint10_linear_37_938)"/>
<path d="M889.234 65.8789C888.389 64.7873 886.819 64.5874 885.727 65.4326C881.622 68.6111 877.615 71.7041 873.722 74.6982C872.628 75.5401 872.423 77.1098 873.265 78.2041C874.107 79.2985 875.677 79.503 876.771 78.6611C880.668 75.6635 884.68 72.5671 888.789 69.3857C889.88 68.5403 890.079 66.9704 889.234 65.8789Z" fill="url(#paint11_linear_37_938)"/>
<path d="M913.114 47.2803C912.264 46.1926 910.693 46.0003 909.605 46.8506C905.572 50.0035 901.595 53.1051 897.687 56.1465C896.598 56.9946 896.403 58.5657 897.251 59.6553C898.099 60.7445 899.669 60.9406 900.758 60.0928C904.669 57.0491 908.648 53.944 912.684 50.7891C913.772 49.9387 913.964 48.3679 913.114 47.2803Z" fill="url(#paint12_linear_37_938)"/>
<path d="M936.931 28.583C936.077 27.4982 934.506 27.3112 933.421 28.165C929.42 31.3145 925.448 34.4353 921.517 37.5195C920.431 38.3718 920.241 39.944 921.093 41.0303C921.946 42.1165 923.518 42.3054 924.604 41.4531C928.537 38.3672 932.511 35.2447 936.513 32.0938C937.598 31.2398 937.785 29.6678 936.931 28.583Z" fill="url(#paint13_linear_37_938)"/>
<path d="M960.701 9.81055C959.844 8.72794 958.272 8.54556 957.189 9.40234C953.218 12.5453 949.255 15.6773 945.311 18.791C944.227 19.6465 944.043 21.2191 944.898 22.3027C945.754 23.386 947.325 23.571 948.409 22.7158C952.355 19.6008 956.319 16.4665 960.292 13.3223C961.374 12.4653 961.558 10.8931 960.701 9.81055Z" fill="url(#paint14_linear_37_938)"/>
<path d="M696 939.805C696 937.318 695.997 934.84 695.988 932.365C695.984 930.985 697.099 929.861 698.48 929.856C699.86 929.852 700.983 930.967 700.988 932.348C700.997 934.83 701 937.315 701 939.805C701 941.185 699.881 942.305 698.5 942.305C697.119 942.305 696 941.185 696 939.805ZM697.779 900.079C699.158 900.019 700.324 901.089 700.384 902.469C700.601 907.489 700.743 912.464 700.835 917.419C700.861 918.799 699.762 919.939 698.382 919.965C697.002 919.99 695.862 918.892 695.836 917.512C695.745 912.589 695.604 907.656 695.389 902.685C695.329 901.305 696.399 900.139 697.779 900.079ZM695.322 870.407C696.694 870.251 697.933 871.236 698.09 872.607C698.667 877.661 699.13 882.626 699.502 887.525C699.607 888.902 698.575 890.102 697.198 890.207C695.822 890.311 694.621 889.28 694.517 887.903C694.149 883.062 693.692 878.161 693.122 873.175C692.966 871.803 693.951 870.564 695.322 870.407ZM690.536 841.019C691.891 840.75 693.206 841.63 693.475 842.984C694.47 848.008 695.336 852.921 696.086 857.74C696.298 859.104 695.364 860.382 694 860.595C692.636 860.807 691.357 859.874 691.145 858.51C690.405 853.757 689.552 848.912 688.57 843.957C688.302 842.603 689.182 841.287 690.536 841.019ZM683.408 812.095C684.738 811.722 686.118 812.499 686.49 813.828C687.877 818.778 689.131 823.611 690.266 828.34C690.588 829.682 689.761 831.032 688.418 831.354C687.076 831.677 685.726 830.849 685.404 829.507C684.283 824.839 683.044 820.067 681.675 815.177C681.303 813.847 682.079 812.467 683.408 812.095ZM674.249 783.752C675.551 783.293 676.98 783.977 677.439 785.279C679.145 790.119 680.728 794.846 682.196 799.471C682.614 800.787 681.886 802.192 680.57 802.61C679.255 803.028 677.849 802.3 677.431 800.984C675.978 796.411 674.412 791.733 672.723 786.941C672.264 785.639 672.947 784.211 674.249 783.752ZM663.455 756.019C664.731 755.491 666.193 756.096 666.721 757.372C668.678 762.1 670.525 766.724 672.266 771.251C672.761 772.54 672.118 773.986 670.829 774.481C669.541 774.977 668.094 774.335 667.599 773.046C665.873 768.56 664.042 763.974 662.101 759.284C661.573 758.009 662.18 756.547 663.455 756.019ZM650.876 728.4C652.104 727.769 653.61 728.252 654.242 729.479C655.508 731.939 656.688 734.373 657.777 736.772C658.822 739.077 659.843 741.358 660.838 743.615C661.395 744.879 660.822 746.354 659.559 746.911C658.295 747.468 656.82 746.896 656.263 745.633C655.275 743.391 654.262 741.126 653.224 738.837C652.172 736.517 651.028 734.159 649.797 731.768C649.165 730.54 649.648 729.032 650.876 728.4ZM633.866 701.396C634.993 700.599 636.553 700.866 637.351 701.993C640.54 706.5 643.523 710.991 646.269 715.433C646.995 716.607 646.631 718.148 645.456 718.874C644.282 719.6 642.742 719.237 642.016 718.062C639.328 713.715 636.403 709.309 633.27 704.881C632.472 703.754 632.739 702.194 633.866 701.396ZM613.898 676.489C614.939 675.583 616.517 675.692 617.424 676.732C620.99 680.827 624.423 684.961 627.7 689.108C628.556 690.192 628.372 691.764 627.289 692.62C626.206 693.476 624.634 693.292 623.778 692.209C620.551 688.126 617.17 684.052 613.654 680.017C612.748 678.975 612.857 677.396 613.898 676.489ZM591.69 653.549C592.644 652.551 594.227 652.516 595.225 653.471C599.107 657.186 602.9 660.988 606.587 664.851C607.54 665.849 607.504 667.432 606.505 668.386C605.506 669.339 603.923 669.302 602.97 668.304C599.335 664.495 595.594 660.746 591.767 657.083C590.77 656.128 590.735 654.546 591.69 653.549ZM567.45 632.767C568.304 631.682 569.876 631.495 570.961 632.349C575.149 635.645 579.286 639.077 583.351 642.62C584.391 643.527 584.5 645.107 583.593 646.147C582.686 647.188 581.107 647.297 580.066 646.39C576.061 642.899 571.989 639.52 567.869 636.277C566.784 635.423 566.596 633.852 567.45 632.767ZM541.577 614.818C542.328 613.66 543.877 613.33 545.035 614.081C547.176 615.469 549.287 616.848 551.371 618.214C553.601 619.675 555.824 621.184 558.038 622.735C559.169 623.528 559.443 625.086 558.651 626.217C557.858 627.348 556.3 627.622 555.169 626.83C552.996 625.307 550.815 623.828 548.63 622.396C546.55 621.032 544.446 619.658 542.316 618.276C541.157 617.525 540.826 615.977 541.577 614.818ZM515.779 599.036C516.47 597.841 517.999 597.432 519.195 598.123C523.679 600.716 528.015 603.33 532.223 605.938C533.396 606.666 533.758 608.207 533.03 609.381C532.303 610.554 530.762 610.916 529.588 610.188C525.416 607.602 521.125 605.015 516.692 602.451C515.496 601.76 515.087 600.231 515.779 599.036ZM121.958 600.851C123.174 600.195 124.691 600.649 125.346 601.864C126.001 603.079 125.546 604.596 124.331 605.251C121.906 606.559 119.718 607.799 117.78 608.953C116.593 609.659 115.058 609.27 114.352 608.084C113.645 606.898 114.035 605.363 115.221 604.656C117.227 603.462 119.478 602.188 121.958 600.851ZM149.842 587.662C151.114 587.126 152.58 587.724 153.116 588.996C153.652 590.268 153.056 591.735 151.783 592.271C146.783 594.377 142.141 596.45 137.888 598.449C136.638 599.037 135.149 598.499 134.562 597.25C133.974 596.001 134.511 594.511 135.76 593.924C140.076 591.895 144.78 589.794 149.842 587.662ZM488.938 585.115C489.529 583.868 491.02 583.336 492.268 583.928C496.959 586.152 501.489 588.432 505.875 590.749C507.096 591.394 507.563 592.907 506.918 594.128C506.273 595.348 504.761 595.815 503.54 595.171C499.213 592.885 494.747 590.637 490.125 588.445C488.878 587.854 488.346 586.363 488.938 585.115ZM178.617 576.708C179.923 576.26 181.346 576.956 181.794 578.262C182.242 579.568 181.546 580.989 180.24 581.438C175.259 583.147 170.479 584.88 165.918 586.614C164.628 587.105 163.183 586.456 162.693 585.165C162.202 583.875 162.85 582.431 164.141 581.94C168.753 580.187 173.584 578.436 178.617 576.708ZM460.947 573.651C461.419 572.354 462.853 571.686 464.151 572.158C469.041 573.939 473.77 575.796 478.351 577.715C479.624 578.248 480.224 579.713 479.691 580.986C479.157 582.26 477.693 582.859 476.419 582.326C471.91 580.437 467.254 578.61 462.44 576.856C461.142 576.384 460.474 574.949 460.947 573.651ZM8.71701 572.423C10.0161 571.956 11.4477 572.63 11.9152 573.929C12.3826 575.228 11.7084 576.659 10.4094 577.127C7.9634 578.007 5.6048 578.853 3.33908 579.66C2.03857 580.123 0.60911 579.444 0.145719 578.144C-0.317671 576.843 0.360754 575.414 1.66134 574.95C3.92191 574.145 6.27571 573.302 8.71701 572.423ZM208.036 567.635C209.368 567.269 210.744 568.052 211.11 569.384C211.475 570.715 210.692 572.091 209.361 572.457C204.348 573.834 199.47 575.259 194.738 576.718C193.418 577.124 192.019 576.384 191.613 575.065C191.206 573.746 191.945 572.346 193.265 571.939C198.045 570.466 202.973 569.025 208.036 567.635ZM432.01 564.873C432.36 563.537 433.726 562.738 435.062 563.088C440.094 564.405 444.973 565.806 449.707 567.281C451.025 567.692 451.761 569.094 451.35 570.412C450.939 571.73 449.538 572.466 448.22 572.056C443.558 570.603 438.753 569.222 433.795 567.925C432.46 567.575 431.66 566.209 432.01 564.873ZM36.8274 562.144C38.1219 561.664 39.5603 562.325 40.0402 563.619C40.52 564.914 39.8601 566.352 38.5656 566.832C33.6796 568.644 28.9792 570.374 24.4885 572.017C23.192 572.491 21.7569 571.825 21.2824 570.528C20.8082 569.232 21.4743 567.796 22.7707 567.321C27.2544 565.681 31.9479 563.953 36.8274 562.144ZM237.949 560.413C239.301 560.131 240.626 560.998 240.907 562.35C241.189 563.701 240.322 565.026 238.97 565.308C233.917 566.361 228.96 567.48 224.109 568.651C222.766 568.976 221.415 568.15 221.091 566.808C220.767 565.466 221.593 564.115 222.935 563.791C227.836 562.607 232.844 561.477 237.949 560.413ZM402.424 558.721C402.658 557.36 403.95 556.446 405.311 556.68C410.431 557.558 415.409 558.521 420.252 559.562C421.602 559.853 422.461 561.182 422.171 562.532C421.881 563.882 420.551 564.74 419.201 564.45C414.427 563.424 409.518 562.473 404.466 561.607C403.105 561.374 402.191 560.082 402.424 558.721ZM268.262 555.105C269.629 554.912 270.894 555.863 271.087 557.23C271.281 558.598 270.329 559.862 268.962 560.056C263.878 560.775 258.865 561.573 253.929 562.438C252.569 562.676 251.273 561.766 251.034 560.406C250.796 559.046 251.706 557.751 253.066 557.513C258.054 556.639 263.122 555.833 268.262 555.105ZM64.9201 551.603C66.211 551.113 67.6549 551.763 68.1447 553.054C68.6343 554.344 67.985 555.787 66.6945 556.277C61.907 558.094 57.2292 559.859 52.6779 561.567C51.3854 562.052 49.9442 561.397 49.4592 560.104C48.9744 558.812 49.6295 557.371 50.9221 556.886C55.4674 555.18 60.1385 553.417 64.9201 551.603ZM375.123 552.712C380.295 553.196 385.336 553.763 390.254 554.407C391.623 554.587 392.588 555.841 392.408 557.21C392.229 558.579 390.974 559.544 389.605 559.364C384.749 558.728 379.768 558.169 374.657 557.69C373.283 557.562 372.272 556.342 372.401 554.968C372.529 553.593 373.749 552.583 375.123 552.712ZM298.871 551.833C300.248 551.734 301.445 552.77 301.544 554.147C301.643 555.524 300.607 556.721 299.23 556.82C294.122 557.187 289.066 557.642 284.068 558.178C282.695 558.325 281.463 557.331 281.316 555.958C281.169 554.585 282.162 553.353 283.534 553.206C288.589 552.665 293.704 552.204 298.871 551.833ZM344.766 550.91C349.952 551.05 355.022 551.268 359.979 551.561C361.357 551.642 362.408 552.825 362.326 554.203C362.245 555.581 361.062 556.633 359.684 556.552C354.782 556.263 349.766 556.047 344.632 555.909C343.252 555.872 342.163 554.723 342.199 553.343C342.237 551.963 343.386 550.873 344.766 550.91ZM329.591 550.73C330.972 550.727 332.094 551.843 332.098 553.224C332.101 554.604 330.985 555.727 329.605 555.73C327.11 555.737 324.59 555.762 322.042 555.805C319.495 555.848 316.958 555.913 314.432 556.003C313.052 556.052 311.894 554.973 311.845 553.594C311.796 552.214 312.874 551.056 314.254 551.007C316.811 550.916 319.38 550.848 321.958 550.805C324.529 550.761 327.073 550.737 329.591 550.73ZM92.9553 540.85C94.2426 540.351 95.6905 540.989 96.1897 542.276C96.6887 543.564 96.05 545.012 94.7629 545.511C90.0128 547.352 85.3322 549.157 80.7336 550.921C79.4445 551.415 77.9987 550.771 77.5041 549.482C77.0097 548.193 77.6536 546.748 78.9426 546.253C83.5357 544.491 88.2109 542.689 92.9553 540.85ZM120.867 529.913C122.151 529.405 123.603 530.034 124.112 531.317C124.62 532.601 123.992 534.054 122.708 534.563C118.006 536.425 113.344 538.26 108.736 540.065C107.45 540.569 106 539.935 105.496 538.649C104.993 537.364 105.627 535.914 106.912 535.41C111.515 533.607 116.171 531.773 120.867 529.913ZM148.731 518.757C150.01 518.239 151.468 518.856 151.987 520.136C152.505 521.415 151.887 522.873 150.608 523.392C145.937 525.283 141.288 527.154 136.668 529.004C135.386 529.517 133.931 528.894 133.418 527.612C132.905 526.331 133.528 524.876 134.81 524.362C139.423 522.515 144.067 520.645 148.731 518.757ZM176.478 507.387C177.753 506.858 179.216 507.463 179.745 508.738C180.274 510.014 179.669 511.476 178.394 512.005C173.76 513.927 169.129 515.837 164.509 517.73C163.232 518.253 161.772 517.642 161.248 516.364C160.725 515.087 161.336 513.626 162.613 513.103C167.227 511.212 171.851 509.306 176.478 507.387ZM204.127 495.762C205.397 495.221 206.866 495.811 207.407 497.081C207.949 498.351 207.358 499.82 206.088 500.361C201.489 502.322 196.875 504.275 192.255 506.217C190.982 506.752 189.517 506.154 188.982 504.881C188.447 503.608 189.045 502.142 190.318 501.607C194.93 499.669 199.536 497.719 204.127 495.762ZM231.643 483.849C232.907 483.292 234.382 483.866 234.938 485.13C235.494 486.393 234.921 487.869 233.657 488.425C229.097 490.432 224.504 492.436 219.887 494.435C218.62 494.983 217.147 494.4 216.599 493.133C216.051 491.866 216.634 490.394 217.901 489.846C222.508 487.851 227.092 485.851 231.643 483.849ZM259.011 471.578C260.267 471.004 261.75 471.557 262.324 472.813C262.898 474.068 262.346 475.552 261.09 476.126C256.576 478.19 252.008 480.257 247.397 482.323C246.137 482.888 244.658 482.324 244.093 481.064C243.528 479.805 244.092 478.325 245.352 477.761C249.952 475.699 254.509 473.637 259.011 471.578ZM286.138 458.883C287.383 458.285 288.876 458.81 289.474 460.055C290.071 461.299 289.547 462.793 288.302 463.391C283.853 465.526 279.323 467.67 274.724 469.821C273.473 470.406 271.986 469.867 271.401 468.616C270.816 467.366 271.355 465.877 272.606 465.292C277.19 463.148 281.705 461.01 286.138 458.883ZM312.991 445.591C314.22 444.962 315.726 445.447 316.356 446.676C316.985 447.905 316.5 449.412 315.271 450.041C310.91 452.275 306.43 454.527 301.844 456.795C300.606 457.407 299.106 456.9 298.494 455.662C297.883 454.425 298.39 452.925 299.627 452.313C304.194 450.055 308.653 447.813 312.991 445.591ZM339.7 431.298C340.907 430.626 342.43 431.059 343.102 432.265C343.774 433.471 343.34 434.993 342.134 435.665C339.815 436.957 337.504 438.235 335.202 439.497C333.048 440.678 330.851 441.867 328.614 443.063C327.397 443.713 325.883 443.254 325.232 442.036C324.581 440.819 325.04 439.304 326.257 438.653C328.479 437.466 330.66 436.285 332.798 435.112C335.09 433.856 337.391 432.584 339.7 431.298ZM367.124 415.584C368.314 414.884 369.846 415.282 370.546 416.472C371.246 417.662 370.848 419.194 369.657 419.894C365.07 422.59 360.494 425.249 355.938 427.861C354.74 428.548 353.212 428.133 352.526 426.936C351.839 425.738 352.254 424.21 353.451 423.523C357.991 420.921 362.552 418.272 367.124 415.584ZM394.221 399.306C395.398 398.584 396.938 398.954 397.659 400.131C398.381 401.308 398.011 402.847 396.834 403.568C392.32 406.335 387.799 409.081 383.28 411.796C382.097 412.507 380.561 412.124 379.85 410.94C379.139 409.757 379.522 408.221 380.705 407.51C385.211 404.802 389.719 402.065 394.221 399.306ZM421.049 382.57C422.215 381.831 423.76 382.177 424.499 383.343C425.239 384.509 424.894 386.053 423.728 386.793C419.278 389.615 414.803 392.43 410.314 395.231C409.142 395.962 407.6 395.605 406.869 394.434C406.139 393.262 406.496 391.72 407.667 390.989C412.146 388.195 416.609 385.386 421.049 382.57ZM447.644 365.449C448.8 364.694 450.349 365.02 451.104 366.176C451.858 367.332 451.534 368.881 450.378 369.636C445.987 372.504 441.552 375.38 437.083 378.257C435.922 379.004 434.376 378.669 433.628 377.509C432.881 376.348 433.215 374.8 434.376 374.053C438.835 371.182 443.261 368.311 447.644 365.449ZM474.027 347.99C475.173 347.222 476.727 347.528 477.495 348.675C478.264 349.822 477.958 351.375 476.811 352.144C472.476 355.049 468.074 357.981 463.616 360.932C462.465 361.694 460.914 361.378 460.152 360.227C459.39 359.075 459.705 357.524 460.857 356.762C465.306 353.817 469.7 350.89 474.027 347.99ZM500.195 330.234C501.333 329.453 502.888 329.742 503.67 330.88C504.452 332.018 504.163 333.575 503.025 334.356C498.758 337.287 494.39 340.269 489.936 343.292C488.793 344.067 487.239 343.769 486.464 342.627C485.689 341.484 485.987 339.93 487.129 339.154C491.576 336.137 495.935 333.16 500.195 330.234ZM526.181 312.171C527.31 311.376 528.87 311.647 529.664 312.776C530.459 313.905 530.188 315.465 529.059 316.26C524.879 319.201 520.544 322.234 516.07 325.343C514.937 326.131 513.379 325.851 512.591 324.717C511.803 323.583 512.083 322.025 513.217 321.237C517.682 318.134 522.009 315.107 526.181 312.171ZM551.913 293.816C553.032 293.007 554.595 293.257 555.404 294.376C556.214 295.494 555.963 297.058 554.845 297.867C550.821 300.779 546.527 303.864 541.989 307.1C540.865 307.901 539.305 307.64 538.503 306.516C537.702 305.391 537.963 303.83 539.087 303.028C543.615 299.8 547.9 296.721 551.913 293.816ZM571.004 279.802C572.11 278.976 573.677 279.202 574.503 280.309C575.329 281.415 575.102 282.981 573.996 283.808C572.029 285.277 569.917 286.844 567.671 288.501C566.56 289.32 564.995 289.084 564.176 287.973C563.356 286.861 563.592 285.296 564.703 284.477C566.942 282.825 569.045 281.265 571.004 279.802Z" fill="#162661"/>
<path d="M164.969 269.743C176.532 264.526 187.798 272.588 194.936 279.732C199.643 284.405 204.128 289.233 208.68 294.012C208.74 294.064 208.801 294.127 208.862 294.184C205.092 292.747 201.361 291.246 197.498 289.991C194.587 289.074 190.448 286.513 188.339 289.785C187.474 291.238 188.202 293.133 189.974 293.823C195.809 296.192 201.534 298.772 207.619 300.682C211.524 301.986 216.087 303.239 217.105 298.589C217.199 298.314 217.278 298.034 217.365 297.757C217.702 297.353 217.83 296.881 217.785 296.358C218.978 292.067 219.534 287.63 220.139 283.262C220.25 282.072 220.225 280.577 218.824 279.891C216.837 278.86 214.684 280.106 214.434 281.909C213.737 284.37 213.133 286.848 212.579 289.332C210.587 287.421 208.614 285.674 207.866 284.578C198.563 275.731 188.482 263.66 172.946 263.544C154.085 265.127 140.883 281.437 121.169 280.34C102.73 277.129 93.3957 260.996 86.6296 247.809C81.364 237.954 77.8765 226.053 66.995 219.198C52.1922 208.842 28.8386 208.725 14.4132 219.52C12.1507 222.903 17.1934 224.526 19.4975 221.284C35.0994 212.629 56.1059 214.679 68.0626 226.988C81.5507 244.766 84.9631 268.928 107.851 281.006C127.46 292.624 147.5 276.676 164.97 269.742L164.969 269.743Z" fill="#162661"/>
<defs>
<linearGradient id="paint0_linear_37_938" x1="-415.5" y1="-224.695" x2="-353.5" y2="108.805" gradientUnits="userSpaceOnUse">
<stop stop-color="#162661"/>
</linearGradient>
<linearGradient id="paint1_linear_37_938" x1="-415.5" y1="-224.695" x2="-353.5" y2="108.805" gradientUnits="userSpaceOnUse">
<stop stop-color="#162661"/>
</linearGradient>
<linearGradient id="paint2_linear_37_938" x1="-415.5" y1="-224.695" x2="-353.5" y2="108.805" gradientUnits="userSpaceOnUse">
<stop stop-color="#162661"/>
</linearGradient>
<linearGradient id="paint3_linear_37_938" x1="-415.5" y1="-224.695" x2="-353.5" y2="108.805" gradientUnits="userSpaceOnUse">
<stop stop-color="#162661"/>
</linearGradient>
<linearGradient id="paint4_linear_37_938" x1="-415.5" y1="-224.695" x2="-353.5" y2="108.805" gradientUnits="userSpaceOnUse">
<stop stop-color="#162661"/>
</linearGradient>
<linearGradient id="paint5_linear_37_938" x1="-415.5" y1="-224.695" x2="-353.5" y2="108.805" gradientUnits="userSpaceOnUse">
<stop stop-color="#162661"/>
</linearGradient>
<linearGradient id="paint6_linear_37_938" x1="-415.5" y1="-224.695" x2="-353.5" y2="108.805" gradientUnits="userSpaceOnUse">
<stop stop-color="#162661"/>
</linearGradient>
<linearGradient id="paint7_linear_37_938" x1="-415.5" y1="-224.695" x2="-353.5" y2="108.805" gradientUnits="userSpaceOnUse">
<stop stop-color="#162661"/>
</linearGradient>
<linearGradient id="paint8_linear_37_938" x1="-415.5" y1="-224.695" x2="-353.5" y2="108.805" gradientUnits="userSpaceOnUse">
<stop stop-color="#162661"/>
</linearGradient>
<linearGradient id="paint9_linear_37_938" x1="-415.5" y1="-224.695" x2="-353.5" y2="108.805" gradientUnits="userSpaceOnUse">
<stop stop-color="#162661"/>
</linearGradient>
<linearGradient id="paint10_linear_37_938" x1="-415.5" y1="-224.695" x2="-353.5" y2="108.805" gradientUnits="userSpaceOnUse">
<stop stop-color="#162661"/>
</linearGradient>
<linearGradient id="paint11_linear_37_938" x1="-415.5" y1="-224.695" x2="-353.5" y2="108.805" gradientUnits="userSpaceOnUse">
<stop stop-color="#162661"/>
</linearGradient>
<linearGradient id="paint12_linear_37_938" x1="-415.5" y1="-224.695" x2="-353.5" y2="108.805" gradientUnits="userSpaceOnUse">
<stop stop-color="#162661"/>
</linearGradient>
<linearGradient id="paint13_linear_37_938" x1="-415.5" y1="-224.695" x2="-353.5" y2="108.805" gradientUnits="userSpaceOnUse">
<stop stop-color="#162661"/>
</linearGradient>
<linearGradient id="paint14_linear_37_938" x1="-415.5" y1="-224.695" x2="-353.5" y2="108.805" gradientUnits="userSpaceOnUse">
<stop stop-color="#162661"/>
</linearGradient>
</defs>
</svg>
