<svg width="104" height="37" viewBox="0 0 104 37" fill="none" xmlns="http://www.w3.org/2000/svg">
<path d="M23.3272 5.04057C22.7651 4.47801 22.485 3.77838 22.485 2.9417C22.485 2.10501 22.7651 1.40539 23.3272 0.842823C23.8894 0.280259 24.5886 0 25.4247 0C26.2608 0 26.96 0.282305 27.5222 0.842823C28.0843 1.40539 28.3644 2.10501 28.3644 2.9417C28.3644 3.77838 28.0823 4.47801 27.5222 5.04057C26.96 5.60314 26.2608 5.8834 25.4247 5.8834C24.5886 5.8834 23.8894 5.60314 23.3272 5.04057ZM23.1514 8.23798H27.7V27.8561H23.1514V8.24003V8.23798Z" fill="#162661"/>
<path d="M33.347 26.6798C32.2226 25.6345 31.6604 24.182 31.6604 22.3246C31.6604 21.3304 31.8178 20.4405 32.1306 19.657C32.4434 18.8735 32.9544 18.2045 33.6597 17.6563C34.365 17.106 35.2809 16.6887 36.4052 16.4002C37.5296 16.1118 38.8891 15.9686 40.4836 15.9686H44.3658V14.9089C44.3658 13.8881 44.0653 13.0985 43.4642 12.5359C42.8632 11.9734 41.9351 11.6931 40.6799 11.6931C39.4247 11.6931 38.5231 11.9222 37.9753 12.3805C37.4274 12.8387 37.1003 13.4197 36.996 14.1275H32.4475C32.5006 13.2376 32.7091 12.4071 33.0751 11.6358C33.441 10.8646 33.9643 10.1977 34.643 9.63516C35.3218 9.07259 36.1661 8.63482 37.1718 8.32183C38.1776 8.00679 39.347 7.85132 40.6819 7.85132C43.4785 7.85132 45.5494 8.49162 46.8966 9.77426C48.2418 11.0569 48.9164 12.9001 48.9164 15.3058V27.8602H45.3879L44.9566 25.3092H44.8789C44.1204 26.2502 43.1923 26.9764 42.0945 27.4858C40.9967 27.9952 39.807 28.2509 38.5272 28.2509C36.2008 28.2509 34.4754 27.7272 33.351 26.6819L33.347 26.6798ZM41.3259 24.0511C41.9392 23.8159 42.4748 23.4886 42.9327 23.0712C43.3906 22.6539 43.7423 22.1691 43.9917 21.6188C44.239 21.0705 44.3637 20.4691 44.3637 19.8145V19.344H40.6778C39.1099 19.344 38.0121 19.5997 37.3845 20.1091C36.7569 20.6185 36.4441 21.3058 36.4441 22.1691C36.4441 22.8237 36.673 23.3597 37.131 23.777C37.5889 24.1964 38.3126 24.405 39.3061 24.405C40.038 24.405 40.7105 24.2864 41.3259 24.0511Z" fill="#162661"/>
<path d="M56.5373 27.0134C55.6603 26.4508 55.0204 25.8043 54.6157 25.072C54.2109 24.3396 53.9758 23.6134 53.9104 22.8933C53.845 22.1753 53.8123 21.6721 53.8123 21.3836V0.392822H58.3608V20.9131C58.3608 21.8541 58.5837 22.5558 59.0273 23.012C59.4709 23.4702 60.1517 23.6993 61.0655 23.6993H62.0447V27.8582H60.2416C58.647 27.8582 57.4123 27.578 56.5373 27.0154V27.0134Z" fill="#162661"/>
<path d="M90.3749 26.8558C89.3691 26.4508 88.5126 25.8555 87.8073 25.0699C87.102 24.2844 86.5521 23.3106 86.1596 22.1466C85.7671 20.9826 85.5708 19.6284 85.5708 18.086V17.2227C85.5708 15.7068 85.7671 14.3648 86.1596 13.2009C86.5521 12.0369 87.1061 11.057 87.8257 10.2592C88.5432 9.46134 89.4059 8.85991 90.4138 8.45486C91.4196 8.04981 92.5235 7.84729 93.7276 7.84729C95.0605 7.84729 96.238 8.07641 97.2561 8.53464C98.2762 8.99287 99.19 9.68023 100.002 10.5946H100.079L100.433 8.24006H104V28.0546C104 30.6956 103.295 32.6963 101.882 34.0566C100.47 35.417 98.2741 36.0962 95.2956 36.0962C92.5255 36.0962 90.4935 35.5275 89.1994 34.3901C87.9054 33.2527 87.1531 31.6632 86.9446 29.6236H91.7283C91.9368 30.5135 92.3088 31.1865 92.8465 31.6448C93.3821 32.101 94.1998 32.3321 95.2976 32.3321C96.7102 32.3321 97.7549 31.9782 98.4336 31.2725C99.1123 30.5667 99.4537 29.4293 99.4537 27.8582V25.1108H99.376C98.7484 25.8432 97.9307 26.418 96.9249 26.8374C95.9191 27.2568 94.854 27.4654 93.7296 27.4654C92.501 27.4654 91.3828 27.2629 90.377 26.8579L90.3749 26.8558ZM98.2353 22.0096C99.0448 21.1463 99.4516 19.8391 99.4516 18.086V17.2227C99.4516 15.4961 99.0407 14.1951 98.2169 13.3195C97.393 12.4439 96.2891 12.0041 94.9031 12.0041C93.517 12.0041 92.3804 12.4358 91.5708 13.299C90.7613 14.1623 90.3565 15.4716 90.3565 17.2227V18.086C90.3565 19.8125 90.7674 21.1136 91.5913 21.9891C92.4151 22.8667 93.5191 23.3045 94.9051 23.3045C96.2911 23.3045 97.4278 22.8729 98.2373 22.0096H98.2353Z" fill="#162661"/>
<path d="M4.73269 27.6598C3.7412 27.2691 2.89282 26.6677 2.18957 25.8576C1.48429 25.0495 0.942547 24.0431 0.566395 22.8423C0.188198 21.6414 0.00012207 20.2442 0.00012207 18.6527V17.7915C0.00012207 16.1999 0.196376 14.8027 0.586838 13.6019C0.9773 12.4011 1.52517 11.3966 2.23046 10.5865C2.9337 9.77849 3.78209 9.17092 4.77358 8.76588C5.76507 8.36083 6.84855 8.15831 8.02198 8.15831C9.19541 8.15831 10.1992 8.36697 11.1907 8.78429C12.1821 9.20161 12.9774 9.76417 13.5784 10.4679H13.6561V0.836792H18.1556V27.8562H14.6721L14.2816 25.5467H14.204C13.421 26.4611 12.5215 27.1402 11.5034 27.5821C10.4854 28.026 9.3242 28.247 8.01994 28.247C6.81993 28.247 5.72418 28.0506 4.73269 27.6598ZM12.4806 22.8238C13.2636 21.9503 13.654 20.547 13.654 18.6138V17.7526C13.654 15.8726 13.2493 14.4897 12.4418 13.6019C11.6322 12.7141 10.5508 12.2701 9.19337 12.2701C7.83595 12.2701 6.68909 12.7079 5.90612 13.5814C5.12315 14.457 4.73269 15.8603 4.73269 17.7915V18.6527C4.73269 20.5327 5.13746 21.9156 5.94496 22.8034C6.75247 23.6912 7.83595 24.1351 9.19337 24.1351C10.5508 24.1351 11.6976 23.6973 12.4806 22.8238Z" fill="#162661"/>
<path d="M72.1315 24.7403C68.6766 22.9483 66.5301 19.3806 66.5301 15.4325C66.5301 11.4843 68.6664 7.93298 72.1069 6.13687C72.7121 5.81978 72.9533 5.06083 72.6425 4.44304C72.4913 4.14027 72.2337 3.91934 71.9168 3.81706C71.6081 3.71682 71.2688 3.7475 70.9805 3.89684C66.712 6.12664 64.0605 10.5474 64.0605 15.4345C64.0605 17.8709 64.727 20.246 65.9904 22.3019C67.217 24.3005 68.9526 25.9207 71.0112 26.9886C71.187 27.0806 71.3751 27.1256 71.5693 27.1256C72.0374 27.1256 72.4586 26.8617 72.6712 26.4362C72.9799 25.8164 72.7366 25.0574 72.1315 24.7424V24.7403Z" fill="#FA2D1A"/>
<path d="M77.8291 2.83313H76.486C75.8809 2.83313 75.3882 3.33432 75.3882 3.95212C75.3882 4.56992 75.8809 5.07111 76.486 5.07111H77.8291C78.4342 5.07111 78.9269 4.56992 78.9269 3.95212C78.9269 3.33432 78.4342 2.83313 77.8291 2.83313Z" fill="#FA2D1A"/>
<path d="M85.9385 6.43965L84.9777 5.48432C84.7712 5.27975 84.4993 5.16724 84.1968 5.16724C83.9044 5.17133 83.6284 5.29202 83.424 5.50477C83.0008 5.94664 83.0111 6.6565 83.4445 7.08814L84.4073 8.04347C84.6138 8.24804 84.8857 8.36055 85.1719 8.36055C85.4581 8.36055 85.7504 8.23986 85.9589 8.02302C86.3801 7.58115 86.3719 6.87129 85.9385 6.43965Z" fill="#FA2D1A"/>
<path d="M79.4461 26.9928C79.3929 26.6941 79.2273 26.4384 78.982 26.2686C78.7428 26.1029 78.4546 26.0415 78.1704 26.0947C78.1602 26.0947 77.0195 26.2973 75.9565 26.0947C75.6682 26.0415 75.38 26.1029 75.1428 26.2666C74.8975 26.4364 74.7319 26.6921 74.6767 26.9907C74.5663 27.5983 74.9609 28.1834 75.5558 28.2959C76.0035 28.3798 76.4921 28.4227 77.0113 28.4227C77.8536 28.4227 78.4975 28.3082 78.5691 28.2959C79.164 28.1834 79.5585 27.5983 79.4502 26.9928H79.4461Z" fill="#FA2D1A"/>
<path d="M85.5605 23.595C85.3601 23.3761 85.0903 23.2492 84.7979 23.239H84.7571C84.479 23.239 84.2133 23.3454 84.0109 23.5377C84.0027 23.5459 83.1196 24.3723 82.1035 24.896C81.5639 25.1742 81.3472 25.8493 81.6211 26.3996C81.8092 26.7781 82.1853 27.0133 82.6003 27.0133C82.7741 27.0133 82.9397 26.9724 83.095 26.8926C84.3605 26.238 85.3928 25.2827 85.5053 25.1763C85.9489 24.7569 85.9734 24.0471 85.5625 23.595H85.5605Z" fill="#FA2D1A"/>
</svg>
