<svg width="22" height="22" viewBox="0 0 22 22" fill="none" xmlns="http://www.w3.org/2000/svg">
<path d="M20.3063 0.00179352C20.0085 0.0155444 19.7309 0.108213 19.4864 0.213437C19.2576 0.311487 18.3827 0.711457 17.0053 1.34161C15.6262 1.97175 13.8007 2.80757 11.853 3.70018C7.95753 5.48599 3.57862 7.49601 1.33532 8.52493C1.2512 8.5638 0.956765 8.66364 0.644386 8.92371C0.332008 9.18378 0 9.72246 0 10.3227C0 10.807 0.216478 11.2877 0.488477 11.5746C0.760477 11.8616 1.04874 12.0033 1.29606 12.1109C2.1917 12.5007 4.96946 13.7126 5.49439 13.941C5.6789 14.5436 6.68446 17.8229 6.91776 18.6264C7.07142 19.1567 7.2178 19.4886 7.40848 19.7522C7.50382 19.8837 7.6143 19.9997 7.7489 20.09C7.80274 20.1265 7.86106 20.154 7.92051 20.1797L7.92388 20.1815C7.93734 20.1875 7.94911 20.197 7.96313 20.2024C7.98949 20.212 8.00688 20.2132 8.04165 20.2215C8.18129 20.2694 8.32206 20.2999 8.44825 20.2999C8.98439 20.2999 9.31304 19.9848 9.31304 19.9848L9.33267 19.9692L12.0914 17.4253L15.4372 20.7997C15.4843 20.8708 15.9235 21.5135 16.8926 21.5135C17.468 21.5135 17.9245 21.2056 18.2172 20.878C18.51 20.5504 18.6928 20.206 18.7702 19.7731V19.7713C18.8426 19.3624 21.9265 2.48651 21.9265 2.48651L21.9209 2.50923C22.0112 2.0698 22.0348 1.66086 21.9355 1.25731C21.8357 0.853749 21.5732 0.466931 21.2479 0.259473C20.9226 0.0514162 20.6041 -0.0119573 20.3063 0.00179352ZM20.1347 2.0441C20.1302 2.07279 20.1381 2.05844 20.1313 2.09192L20.1296 2.10328L20.128 2.11464C20.128 2.11464 17.0827 18.7747 16.97 19.409C16.9784 19.3612 16.9408 19.4563 16.9021 19.5143C16.8477 19.4742 16.7355 19.4228 16.7355 19.4228L16.7176 19.4019L12.1474 14.7929L8.91597 17.7703L9.87722 13.6672C9.87722 13.6672 15.8865 7.03566 16.2487 6.65003C16.5404 6.34154 16.6015 6.23392 16.6015 6.1269C16.6015 5.98401 16.532 5.88058 16.376 5.88058C16.2358 5.88058 16.0474 6.02587 15.9465 6.09462C14.633 6.98723 8.86606 10.5702 6.28122 12.1731C5.8707 11.9937 3.01667 10.7484 2.04925 10.3275C2.05654 10.3239 2.0543 10.3251 2.06159 10.3215C4.30544 9.29259 8.68267 7.28257 12.577 5.49676C14.5242 4.60415 16.3514 3.76774 17.7293 3.13819C19.0859 2.5182 20.0281 2.09073 20.1347 2.0441Z" fill="#FFF3E8"/>
</svg>
